<?xml version="1.0" encoding="UTF-8" standalone="no"?>
<!-- Created with Inkscape (http://www.inkscape.org/) -->

<svg
   width="20.293999mm"
   height="20.294176mm"
   viewBox="0 0 20.293999 20.294176"
   version="1.1"
   id="svg1"
   xml:space="preserve"
   xmlns="http://www.w3.org/2000/svg"
   xmlns:svg="http://www.w3.org/2000/svg"><defs
     id="defs1"><marker
       style="overflow:visible"
       id="marker35"
       refX="0"
       refY="0"
       orient="auto-start-reverse"
       markerWidth="0.80000001"
       markerHeight="0.80000001"
       viewBox="0 0 1 1"
       preserveAspectRatio="xMidYMid"><path
         style="fill:none;stroke:context-stroke;stroke-width:1;stroke-linecap:butt"
         d="M 3,-3 0,0 3,3"
         transform="rotate(180,0.125,0)"
         id="path35" /></marker></defs><g
     id="layer1"
     transform="translate(-135.80365,-42.492494)"><g
       id="g67"
       transform="translate(0,-0.59531251)"><g
         id="g61"
         transform="translate(17.586335,-2.5256969)"><path
           id="path32"
           style="fill:none;fill-opacity:0.45939;stroke:#456aa2;stroke-width:0.4;stroke-linecap:round;stroke-opacity:1;marker-end:url(#marker35)"
           d="m 134.04021,52.784552 c 0.47376,0.89114 0.74219,1.908075 0.74219,2.987705 0,3.52011 -2.85361,6.373723 -6.37372,6.373723 -3.52011,0 -6.37372,-2.853613 -6.37372,-6.373723 0,-3.52011 2.85361,-6.373723 6.37372,-6.373723 2.11141,0 3.98303,1.026674 5.14288,2.608019" /><g
           id="g53"
           transform="matrix(0.91982094,0.04145678,-0.04145678,0.91982094,-0.69963231,-4.9563825)"
           style="fill:#25254b;fill-opacity:1;stroke-width:1.08606"><path
             style="fill:#25254b;fill-opacity:1;stroke:none;stroke-width:0.411573;stroke-linecap:round;stroke-dasharray:none;stroke-opacity:1"
             id="path36"
             d="m 145.54831,61.962163 -3.43601,0.920677 -2.51534,-2.515336 0.92068,-3.436013 3.43601,-0.920677 2.51534,2.515336 z"
             transform="matrix(1.0170297,0.27966825,-0.27920785,1.0187068,14.206824,-41.070848)" /><rect
             style="fill:#25254b;fill-opacity:1;stroke:none;stroke-width:0.434426;stroke-linecap:round;stroke-dasharray:none;stroke-opacity:1"
             id="rect37"
             width="1.8237586"
             height="2.2184527"
             x="58.403507"
             y="-147.6418"
             ry="0.3269704"
             transform="rotate(90.076559)" /><rect
             style="fill:#25254b;fill-opacity:1;stroke:none;stroke-width:0.434426;stroke-linecap:round;stroke-dasharray:none;stroke-opacity:1"
             id="rect49"
             width="1.8237586"
             height="2.2184527"
             x="152.71288"
             y="-24.69553"
             ry="0.3269704"
             transform="rotate(30.076559)" /><rect
             style="fill:#25254b;fill-opacity:1;stroke:none;stroke-width:0.434426;stroke-linecap:round;stroke-dasharray:none;stroke-opacity:1"
             id="rect50"
             width="1.8237586"
             height="2.2184527"
             x="93.392967"
             y="118.45191"
             ry="0.3269704"
             transform="rotate(-29.923441)" /><rect
             style="fill:#25254b;fill-opacity:1;stroke:none;stroke-width:0.434426;stroke-linecap:round;stroke-dasharray:none;stroke-opacity:1"
             id="rect51"
             width="1.8237586"
             height="2.2184527"
             x="-60.236309"
             y="138.65308"
             ry="0.3269704"
             transform="rotate(-89.923441)" /><rect
             style="fill:#25254b;fill-opacity:1;stroke:none;stroke-width:0.434426;stroke-linecap:round;stroke-dasharray:none;stroke-opacity:1"
             id="rect52"
             width="1.8237586"
             height="2.2184527"
             x="-154.54567"
             y="15.706807"
             ry="0.3269704"
             transform="rotate(-149.92344)" /><rect
             style="fill:#25254b;fill-opacity:1;stroke:none;stroke-width:0.434426;stroke-linecap:round;stroke-dasharray:none;stroke-opacity:1"
             id="rect53"
             width="1.8237586"
             height="2.2184527"
             x="-95.225761"
             y="-127.44064"
             ry="0.3269704"
             transform="rotate(150.07656)" /></g><path
           style="fill:#ffffff;fill-opacity:1;stroke:#ffffff;stroke-width:0.4;stroke-linecap:butt;stroke-dasharray:none;stroke-opacity:1"
           d="m 128.37925,53.532151 v 4.385093"
           id="path55" /><path
           style="fill:#ffffff;fill-opacity:1;stroke:#ffffff;stroke-width:0.4;stroke-linecap:butt;stroke-dasharray:none;stroke-opacity:1"
           d="m 128.37924,53.372277 v 4.605871"
           id="path53" /><path
           style="fill:none;fill-opacity:1;stroke:#ffffff;stroke-width:0.4;stroke-linecap:butt;stroke-dasharray:none;stroke-opacity:1"
           d="m 129.41462,54.499003 c 0,0 -0.36543,-0.464394 -1.04298,-0.464394 -0.70802,0 -0.99731,0.373038 -0.99731,0.761302 0,0.388263 0.36542,0.715622 0.98969,0.822204 0.62426,0.106582 1.05821,0.365425 1.05821,0.875497 0,0.510071 -0.38827,0.860269 -1.05059,0.860269 -0.70039,0 -1.20286,-0.540523 -1.20286,-0.540523"
           id="path54" /></g><rect
         style="fill:#ffffff;fill-opacity:0;stroke:none;stroke-width:0.4;stroke-linecap:round;stroke-dasharray:none;stroke-opacity:1"
         id="rect66"
         width="20.293999"
         height="20.294176"
         x="135.80365"
         y="43.087807"
         ry="0" /></g></g></svg>
