<?xml version="1.0" encoding="UTF-8" standalone="no"?>
<!-- Created with Inkscape (http://www.inkscape.org/) -->

<svg
   width="191.17903mm"
   height="296.48044mm"
   viewBox="0 0 191.17903 296.48044"
   version="1.1"
   id="svg1"
   xml:space="preserve"
   inkscape:version="1.3.2 (091e20ef0f, 2023-11-25)"
   sodipodi:docname="giant-sloth.svg"
   inkscape:export-filename="giant-sloth.png"
   inkscape:export-xdpi="96"
   inkscape:export-ydpi="96"
   xmlns:inkscape="http://www.inkscape.org/namespaces/inkscape"
   xmlns:sodipodi="http://sodipodi.sourceforge.net/DTD/sodipodi-0.dtd"
   xmlns="http://www.w3.org/2000/svg"
   xmlns:svg="http://www.w3.org/2000/svg"><sodipodi:namedview
     id="namedview1"
     pagecolor="#ffffff"
     bordercolor="#000000"
     borderopacity="0.25"
     inkscape:showpageshadow="2"
     inkscape:pageopacity="0.0"
     inkscape:pagecheckerboard="0"
     inkscape:deskcolor="#d1d1d1"
     inkscape:document-units="mm"
     showguides="false"
     inkscape:zoom="0.66193219"
     inkscape:cx="799.17552"
     inkscape:cy="919.27845"
     inkscape:window-width="2560"
     inkscape:window-height="2811"
     inkscape:window-x="0"
     inkscape:window-y="0"
     inkscape:window-maximized="1"
     inkscape:current-layer="layer2"><sodipodi:guide
       position="-98.620612,275.34857"
       orientation="0.70710678,-0.70710678"
       id="guide14"
       inkscape:locked="false" /></sodipodi:namedview><defs
     id="defs1" /><g
     inkscape:groupmode="layer"
     id="layer2"
     inkscape:label="giant-sloth"
     style="display:inline;stroke-width:0.925475"
     transform="matrix(1.0805262,0,0,1.0805262,-16.540815,-11.382979)"><path
       id="path1"
       style="display:inline;fill:#000000;fill-opacity:1;stroke:#000000;stroke-width:0.185094;stroke-opacity:1"
       d="m 60.523722,40.336873 v 4.46e-4 c -1.416456,-0.01344 -2.603359,0.20277 -3.265027,0.738815 -1.32335,1.072099 -3.815032,3.076206 -4.628719,4.030101 -0.8137,0.953896 0.239892,2.902742 0.239892,2.902742 l -0.915953,0.610634 0.846077,1.251535 4.882408,1.636964 c 0,0 -2.919418,0.544003 -3.974467,0.732584 -1.055048,0.188583 -1.302651,1.434091 -1.548396,2.15102 -0.245759,0.716928 0.462977,2.97563 1.827009,3.583696 1.364018,0.608066 4.345004,1.894651 7.598667,2.969502 3.25364,1.074837 3.292586,2.504958 4.447131,4.469385 1.154557,1.964398 2.539418,5.842389 4.105763,7.242165 1.566342,1.399781 4.989012,1.518208 6.941299,1.197682 1.952306,-0.320523 1.235512,1.300491 1.235512,1.300491 l 4.681237,-2.443875 0.386765,0.589272 c 0.208258,0.317576 1.162379,-0.368534 2.255166,-1.150948 l 0.15711,1.693933 2.119864,-1.752683 0.234997,3.56901 1.420661,-1.497212 c 0,0 0.170826,2.184385 0.257249,3.679831 0.08638,1.495452 -0.0017,3.988661 -1.429562,5.562916 -1.091084,1.20296 -2.541274,2.76493 -3.177794,3.99984 -0.57941,0.64359 -1.12718,1.20412 -1.437128,1.39129 -0.895842,0.54097 -1.871722,1.65173 -2.260952,2.07802 -0.389237,0.42632 -2.951254,1.27691 -2.951254,1.27691 l 2.263178,0.0556 -3.578802,1.38417 1.723308,0.0632 c 0,0 -2.18986,0.72783 -2.780792,0.94844 -0.590936,0.22056 -2.66374,1.59514 -2.66374,1.59514 l -2.281869,-0.5915 c 0,0 1.151309,0.6768 0.54966,0.84251 l -0.602179,0.16557 -0.932419,-1.6067 -0.04628,1.98634 -1.136263,0.0507 -1.274678,-0.0441 c -0.04124,-0.026 -0.09873,-0.072 -0.141532,-0.10014 l 0.725018,-0.35695 -1.660553,-0.3071 c -0.171578,-0.13472 -0.276756,-0.18545 -0.469103,-0.34582 l 1.86484,-0.31155 -3.57079,-1.25509 c -0.548714,-0.50436 -0.954608,-0.83596 -1.642751,-1.5079 -4.944447,-4.82809 -7.610128,-6.45222 -9.054932,-9.71452 l 0.814477,-0.33603 -1.069947,-0.343146 c -0.106895,-0.289638 -0.2182,-0.571121 -0.309772,-0.890494 l 0.734365,-0.214523 -0.988944,-1.108667 c -0.04579,-0.367054 -0.06431,-0.71275 -0.06275,-1.049473 0.461724,0.35579 0.845632,0.664933 0.845632,0.664933 l -0.75751,-1.953409 c 0.0228,-0.151785 0.04154,-0.307698 0.06944,-0.452189 0.315663,0.665937 0.605739,1.296486 0.605739,1.296486 0,0 0.446911,-1.852976 0.294636,-2.354861 -0.075,-0.247182 -0.201317,-0.663208 -0.365847,-1.206583 0.172936,-0.846409 0.131256,-1.481122 -0.612415,-1.941837 -0.386748,-0.239572 -0.817662,-0.402683 -1.267112,-0.55233 -0.07521,-0.693732 -0.22177,-1.831033 -0.41703,-2.236028 -0.28711,-0.595473 -3.421898,-3.419424 -3.841837,-3.776857 -0.419939,-0.357437 -0.632964,1.051171 -0.559007,2.490162 0.01662,0.323636 0.02468,0.718128 0.02848,1.12914 -0.569159,-0.532192 -1.141762,-1.170078 -1.711736,-2.050878 -0.887768,-1.371898 -1.916852,-2.609915 -2.937457,-3.749708 0.06499,0.538413 0.0956,1.196051 -0.0049,1.873296 -0.233109,1.571189 0.431639,4.030915 0.650246,6.903468 0.218607,2.87257 0.540172,8.877634 0.583485,10.637158 0.02381,0.96797 -0.126139,1.67226 -0.266151,2.11897 1.699475,2.42354 3.46093,4.89812 4.136028,5.82595 0.958112,1.31676 3.838541,4.10052 6.254557,6.51538 -2.045632,0.29779 -3.154813,-2.34599 -4.993231,-4.23261 -0.43927,-0.45078 -0.855386,-0.70172 -1.263106,-0.84029 -0.763431,-1.33119 -2.671305,-3.72657 -2.671305,-3.72657 0,0 -4.178773,-3.51757 -6.455284,-4.0479 -0.853687,-0.19885 -1.558943,-0.26255 -2.106957,-0.26393 -0.913342,-0.003 -1.389951,0.16779 -1.389951,0.16779 0,0 0.792621,3.22642 1.310729,4.15517 0.518123,0.92875 1.904482,2.11828 2.384235,2.41049 0.47974,0.29222 3.685173,2.5458 3.685173,2.5458 0.07581,0.0815 0.15157,0.15691 0.22743,0.23054 -0.371715,0.21837 -0.762834,0.52712 -1.160295,0.85943 -1.415339,-1.07791 -3.413797,-2.5386 -4.492973,-2.99754 -0.866744,-0.36858 -2.345612,-0.46567 -3.69897,-0.46465 -1.353343,8.3e-4 -2.581841,0.0999 -2.947249,0.12417 -0.730795,0.0484 0.256307,1.35932 0.697424,2.19508 0.231403,0.43843 1.954119,1.70765 3.544976,2.8213 -1.196491,-0.12034 -2.179498,-0.17815 -2.368658,-0.27238 -0.642112,-0.31994 -4.18009,-0.91329 -4.18009,-0.91329 l -0.08501,1.96588 3.244109,3.902361 4.035887,1.84437 c -0.184237,0.51879 -0.343016,1.06509 -0.439283,1.57554 -0.621773,-0.31685 -1.536878,-0.76235 -1.99035,-0.85898 -0.705892,-0.15045 -3.817358,-0.37653 -3.817358,-0.37653 l -0.19049,1.49499 3.934857,3.09412 1.506559,0.45486 c -0.08999,2.39071 2.822585,2.56333 3.82537,2.89606 0.712542,0.23642 4.129035,0.62164 7.275991,1.42823 l -0.631108,0.62488 1.884423,-0.316 c 0.244392,0.0759 0.462753,0.16726 0.696533,0.25012 l -0.918178,0.55546 1.916468,0.42993 1.481635,0.1896 c 0.291679,0.18764 0.575942,0.35279 0.862099,0.52963 -1.199492,0.13378 -3.116819,0.21809 -3.116819,0.21809 l 3.860975,0.239 c 0.125999,0.0739 0.2551,0.162 0.381424,0.23366 -0.430779,0.076 -1.014066,0.18718 -1.863059,0.36406 -2.687149,0.55994 -0.167383,0.0392 4.024315,0.7041 1.734674,0.75062 3.678795,1.30977 6.268355,1.60626 4.898055,0.5608 10.627675,0.70212 16.306444,2.53022 0.951973,0.30646 1.996464,0.59165 3.02113,0.89059 l -0.826049,1.08552 5.374211,0.25547 c 1.09566,0.32021 2.06166,0.64569 3.022019,0.96313 -0.809044,0.47841 -2.495057,1.02499 -2.495057,1.02499 l 3.89302,-0.54833 c 0.04857,0.0178 0.110661,0.0364 0.158444,0.0543 l -1.746896,2.0037 2.86491,-0.2715 -0.101921,2.88406 2.557368,-1.40287 2.216889,-0.6133 c 2.217042,-0.61322 -1.284469,1.47095 -1.284469,1.47095 l 3.237433,-1.40597 0.418365,1.30939 1.271557,-1.26088 c 0.004,7.2e-4 0.006,8.7e-4 0.009,8.7e-4 l 0.069,-0.0147 c 0.37575,2.55987 0.75339,4.59833 1.10378,5.31857 1.572801,3.23343 3.254341,4.00568 4.371911,5.25137 0.63217,0.70463 1.30495,1.9809 2.02596,3.49424 l 0.68139,2.94369 0.41703,-0.56078 c 0.15428,0.34027 0.28742,0.61916 0.44908,0.97425 l 0.40456,3.66114 0.64847,-0.85453 c 0,0 0.82837,4.70405 0.90037,5.82061 0.0718,1.11658 -0.0329,3.73636 -0.0329,3.73636 l 0.69387,-1.21994 c 0,0 1.29764,6.3616 1.03523,8.73537 -0.26241,2.37368 -0.97292,5.11429 -0.97292,5.11429 l 1.16519,-0.76818 0.28841,1.1238 c -0.45905,1.32596 -0.89138,2.36879 -1.21326,2.71225 -0.76069,0.8116 -2.19865,2.5504 -3.34292,3.94687 l -1.27156,0.88836 -0.81671,1.31073 c -0.17339,0.0147 -0.37725,0.004 -0.52785,0.0382 -2.05241,0.45525 -2.66346,3.81869 -3.3705,6.50557 -0.51632,1.96195 1.17735,5.76965 2.44076,9.30996 l 0.53542,4.14804 c 0,0 0.16744,-0.6371 0.35383,-1.26221 0.0685,0.27468 0.15429,0.56181 0.20383,0.82249 0.0164,0.0868 0.0419,0.14633 0.0592,0.23144 l -0.32401,2.41049 -0.39032,1.73755 1.17766,-1.80476 -0.65159,4.79874 1.01698,-1.23951 -0.49358,3.47776 c 0,0 1.78677,-2.98526 1.25466,-0.6133 l -0.53231,2.37133 c 0,0 0.97025,0.68764 -0.065,1.42956 -0.41218,0.29534 -0.92528,0.65797 -1.68459,1.19679 -1.92749,0.38772 -4.242791,0.95559 -6.093001,1.75357 -3.860064,1.66464 -4.163382,3.11921 -6.496675,3.89169 -2.333319,0.77244 -3.468869,3.55299 -3.468869,3.55299 0,0 3.018985,-0.44096 3.978919,-0.10994 0.959914,0.33099 4.520503,0.58069 5.803705,0.51361 1.28322,-0.0671 6.387841,0.01 10.812071,0.65915 4.42406,0.64932 8.34841,-0.82137 10.68833,-0.43706 1.89129,0.31064 6.44978,-0.67864 9.42923,-1.73399 l 1.32409,0.34983 2.47592,-0.5105 -1.24219,-1.14649 c 0.91398,-1.25485 -1.40283,-2.93959 -2.11097,-3.8058 -0.82013,-1.00338 -4.94777,0.0565 -8.84129,-3.75682 0,0 -0.3159,-0.61012 -0.44151,-0.84385 l 0.13752,0.13397 -1.26399,-2.35576 c -0.16658,-0.34159 -0.32952,-0.67447 -0.50115,-1.0428 l 1.16742,-0.25057 -2.06245,-2.32459 2.04954,0.53808 -1.50656,-2.03396 -0.55366,-2.19153 c -0.55297,-2.19186 1.15717,1.08642 1.15717,1.08642 l -2.0353,-4.54728 0.18738,-2.23958 0.50204,1.40063 c 0,0 0.38604,-0.6869 1.30271,-2.40693 0.91669,-1.72005 0.85097,1.86617 0.85097,1.86617 l 1.6343,-5.1045 0.67605,-0.0917 0.11839,-0.97025 c 0.44966,-0.13459 0.91161,-0.0823 1.37304,0.16735 l 0.48424,1.99257 0.39745,-0.59417 c 0,0 1.06973,2.8701 1.32052,4.17698 0.25076,1.30687 0.87322,2.9557 0.87322,2.9557 l 0.49937,-1.64497 c 0,0 1.41879,2.86107 1.70817,3.50669 0.28935,0.64565 1.04592,3.16979 1.04592,3.16979 l 0.58527,-2.30991 c 0,0 2.017,2.62773 2.34373,3.40122 0.32672,0.77357 1.06327,1.82745 1.06327,1.82745 0,0 1.07507,-2.65762 1.55195,-2.86713 0.4769,-0.20952 1.42423,2.86135 1.42423,2.86135 l 2.12476,-0.96135 c 0.10417,1.23371 0.1365,2.72803 0.27104,4.25397 l -0.0752,2.45456 -1.25865,4.09063 0.87278,-0.2083 -0.38276,1.23018 c 0.35728,-1.05606 0.92489,-2.29662 0.69252,1.42956 -0.22181,3.55716 0.34882,3.03257 0.74594,2.31124 0.21856,1.87747 0.44799,2.05353 0.66404,3.81202 0.29195,2.3761 -2.04998,1.51206 -4.32117,3.64423 -2.27106,2.13213 -3.85034,3.65067 -5.62834,5.94612 -0.63068,0.81417 -0.52593,1.42231 0.0267,1.8595 -0.34143,0.67716 -0.66538,1.38194 -0.66538,1.38194 l 2.68243,-0.67472 c 1.19136,0.17334 2.68997,0.16765 4.23617,-0.003 0.0227,-0.003 0.0481,0.004 0.0708,0.003 0.0259,0.0745 0.0475,0.14772 0.077,0.22253 0.23621,0.6003 1.5159,1.90401 1.5159,1.90401 0,0 1.86413,-0.59225 3.56323,-0.91329 0.37699,0.15265 0.74357,0.28143 1.12869,0.44329 -0.29068,0.14779 -0.60755,0.39622 -0.7575,0.81804 -0.31436,0.88427 -0.51139,2.14478 -0.51139,2.14478 0,0 3.08378,-0.78372 5.46323,-1.42243 1.44494,0.41178 2.91213,0.64663 4.38126,0.44996 5.37208,-0.71913 9.38454,-5.95247 11.97503,-9.69539 2.59065,-3.74304 -0.12542,-4.08285 -0.9974,-5.52553 -0.87199,-1.4427 -4.72009,-1.39412 -7.37836,-2.13856 -2.65824,-0.74444 -1.94834,-2.92471 -2.63614,-5.04753 -0.68779,-2.12273 0.5216,-5.89758 0.75839,-7.34631 0.14555,-0.88993 0.52516,-1.12733 0.84608,-1.21593 l 1.60803,2.054 c 0,0 -0.0341,-0.75474 0.0556,-1.33432 0.49524,0.32691 0.6792,0.45766 1.54928,0.9836 0.51349,0.98984 0.60352,1.50567 0.60352,1.50567 l 1.27334,-0.42815 c 0.26949,0.14851 0.51675,0.2773 0.79311,0.42192 l 1.13182,1.70195 1.23684,-0.56702 c 0.0148,0.006 0.0304,0.0153 0.0454,0.0214 0.27881,0.11432 0.71248,0.21921 1.03612,0.33157 l 1.38372,1.32231 -0.0935,-0.90883 c 0.59764,0.17574 1.16643,0.34524 1.83902,0.51138 l 0.66361,0.45619 0.21541,-0.25769 c 0.47473,0.10991 0.94033,0.22014 1.43445,0.32401 0.8477,0.91014 2.01616,2.00496 2.09717,1.21771 l 0.0805,-0.78511 c 2.61761,0.48035 5.27655,0.87567 7.3975,1.08286 4.83474,0.47228 10.32987,-2.31674 12.66266,-3.04249 2.02031,-0.62848 -1.7174,-1.76448 -4.18231,-2.77902 l 2.66373,-0.60306 c 0,0 -2.29269,-0.031 -4.48318,-0.27238 -2.17475,-1.1654 -5.19719,-2.98895 -7.02541,-4.54372 -0.98116,-0.83446 -2.78178,-2.6675 -4.56241,-4.67412 1.0423,0.2088 3.01757,1.01165 3.01757,1.01165 0,0 -3.12581,-1.75135 -4.19922,-2.41672 -1.33515,-1.58309 -2.54491,-3.13898 -3.24679,-4.34922 0.92325,0.0387 2.28588,0.39655 2.28588,0.39655 0,0 -2.08791,-0.9987 -2.8618,-1.84258 0.13293,-0.80237 0.23847,-1.68272 0.32846,-2.59698 0.81044,0.47262 2.07803,2.09005 2.07803,2.09005 l -1.78117,-5.34084 c 0.10038,-1.12628 0.20388,-2.16308 0.34583,-2.83509 0.47177,-2.23346 3.43907,-7.05393 4.87662,-11.28917 l 0.73614,2.46701 -0.11482,-4.71551 c 0.15017,-0.76152 0.25539,-1.48722 0.39477,-2.23958 l 0.72991,2.77233 c 0,0 0.0614,-4.89273 -0.1264,-6.49044 0.17437,-1.51024 0.25903,-2.95434 0.12685,-4.24062 0.0513,-0.15321 0.0672,-0.24752 0.1126,-0.39033 0.5482,0.5758 1.1761,1.14429 1.11089,0.5866 -0.0512,-0.43737 -0.24152,-2.01964 -0.46108,-3.60996 0.0369,-0.87046 -0.0915,-1.65045 -0.28129,-2.75007 -0.0763,-0.44229 -0.24573,-0.90788 -0.45264,-1.38105 -0.0374,-0.13153 -0.0754,-0.28978 -0.11126,-0.37876 -0.0824,-0.20448 -0.29058,-0.51236 -0.54165,-0.85453 -1.1072,-1.86657 -2.56846,-3.57578 -3.66782,-4.96119 l 1.78295,-0.0569 c 0,0 -1.78019,-0.83687 -2.95749,-1.60314 -0.66412,-1.11053 -1.52355,-2.87605 -2.43586,-4.829 l 3.12127,1.71885 c 0,0 -3.69511,-3.54696 -4.32963,-4.28868 -0.56944,-1.19734 -1.10821,-2.29628 -1.53949,-3.04338 -1.10502,-1.91419 -4.34981,-7.96346 -7.81364,-13.39258 0.97987,-0.47133 2.94013,1.98279 2.94013,1.98279 0,0 -0.69437,-1.40215 -1.1465,-2.18663 -0.38626,-0.67017 -3.58464,-4.07891 -5.03729,-5.34172 -0.93094,-1.87261 -1.77553,-3.5174 -2.52043,-4.89977 1.30902,0.5299 3.44261,1.72242 3.44261,1.72242 0,0 -4.05976,-3.27307 -5.11429,-4.33853 -0.68937,-0.69652 -1.67293,-1.56112 -2.54802,-2.24182 -0.56771,-0.57168 -1.02509,-1.11483 -1.03524,-1.55062 -0.007,-0.30983 -0.26927,-1.22504 -0.64178,-2.39313 l 1.51724,1.985 c 0,0 -0.27821,-1.79879 -0.57014,-2.60276 -0.22086,-0.60829 -1.72301,-3.19308 -2.97973,-5.278081 -0.75447,-2.10389 -1.39775,-3.8775 -1.89066,-5.2349 l 1.8101,1.0646 -3.52006,-4.48362 -0.028,0.0311 c -1.32647,-1.37651 -3.2046,-2.11473 -4.32474,-3.65313 -1.23351,-1.69412 -4.77455,-4.84324 -8.10471,-7.308925 -0.61902,-1.0683 -1.23281,-2.124345 -1.78784,-3.008222 l 1.78295,0.501592 c 0,0 -2.18755,-2.429677 -2.97974,-2.54357 -0.0806,-0.01159 -0.22733,-0.0614 -0.38231,-0.116608 -0.12153,-0.123964 -0.2524,-0.287958 -0.36451,-0.371632 -1.02016,-0.761395 -2.86915,-1.433741 -4.74934,-2.025065 -0.007,-0.0034 -0.13263,-0.06587 -0.13263,-0.06587 l 1.187,-0.45397 -4.67011,-0.555446 c -0.0974,-0.02832 -0.26985,-0.08051 -0.36006,-0.107262 l 3.14041,-0.854533 c 0,0 -3.74225,-0.458483 -4.82011,-0.541204 -0.66466,-0.888923 -1.2693,-2.054992 -1.86171,-3.227641 l 1.49943,0.04718 -1.12513,-1.344999 -1.75313,-1.261326 c -0.2103,-0.33732 -0.42289,-0.645398 -0.64001,-0.903936 -0.13302,-0.158369 -0.31434,-0.420413 -0.46109,-0.608854 l 2.67486,0.662708 c 0,0 -2.38483,-1.83789 -3.32912,-2.31436 -0.41103,-0.207396 -1.02765,-0.80992 -1.59913,-1.414874 -0.41557,-0.58248 -0.81065,-1.101376 -1.22305,-1.653433 l 0.82872,-0.344039 -1.99658,-1.178543 c -0.5611,-0.668702 -1.07446,-1.19545 -1.49454,-1.463832 -1.67029,-1.06714 -4.899611,-2.405914 -4.341651,-2.189295 0.55804,0.216611 5.051991,-2.605853 5.975501,-3.519607 0.92366,-0.91376 -2.93718,-2.131398 -5.544671,-2.446991 -2.607677,-0.315572 -6.013686,0.115499 -7.631164,-0.154439 -1.617483,-0.269949 -4.529535,-1.919116 -6.618178,-2.505739 -2.088633,-0.586623 -4.104819,-0.05747 -8.453645,-0.0089 -4.348403,0.04843 -7.552871,-1.462286 -10.711947,-2.224848 -1.579555,-0.381287 -3.225156,-0.623939 -4.641627,-0.637339 z M 33.03892,55.082015 c 0,0 -2.822752,1.396151 -3.232538,1.636075 -0.409797,0.239937 -1.608111,2.862812 -1.918693,3.087 -0.310593,0.224177 -1.510119,0.452635 -1.510119,0.452635 0,0 -0.272197,1.134234 -0.245233,2.241369 0.02696,1.107158 0.882864,3.390185 1.179878,4.012743 0.297015,0.622568 -0.267486,1.498103 -0.267486,1.498103 l -0.898595,-0.09613 c 0,0 -0.917826,0.890588 -0.727688,1.834574 0.190126,0.943987 1.151922,2.600192 1.811877,3.713658 0.622413,1.050098 2.833583,1.560748 5.143664,1.630733 -0.04591,-0.85728 -0.223379,-4.249726 -0.186039,-5.845094 0.04224,-1.803569 0.193892,-5.01899 0.201617,-5.943898 0.0072,-0.862145 0.411499,-4.133928 0.469992,-4.605577 -0.21389,-0.04204 -0.429415,-0.08457 -0.486015,-0.174021 -0.293278,-0.463536 0.665378,-3.442166 0.665378,-3.442166 z M 95.352166,102.7191 c 0.01099,0.11706 0.335891,3.66997 0.466432,5.24826 -1.710409,-0.29933 -3.29932,-0.48749 -4.548606,-0.46064 -2.563452,0.055 -4.527538,-0.33852 -6.442822,-0.87279 l 2.131881,-0.94221 0.48379,0.72235 c 0.48443,0.72209 2.037972,-1.75624 2.037972,-1.75624 l 0.311994,1.45003 2.35219,-1.41042 1.814547,-1.21504 c 1.814471,-1.2144 0.122839,0.81092 0.122839,0.81092 z" /><path
       style="fill:#000000;fill-opacity:1;stroke:#000000;stroke-width:0.185094;stroke-opacity:1"
       d="m 55.535478,51.429512 -4.439016,-1.444528 c 0,0 -4.961792,-1.092951 -5.86519,-0.608994 -0.903393,0.483954 -1.651483,2.316444 -1.66616,4.15688 -0.01469,1.840436 0.531031,2.948675 0.531031,2.948675 0,0 0.05962,-5.592546 1.745647,-5.689153 1.686033,-0.0966 5.637736,1.400811 5.637736,1.400811 z"
       id="path8" /><path
       style="fill:#000000;fill-opacity:1;stroke:#000000;stroke-width:0.185094;stroke-opacity:1"
       d="m 43.121483,241.15609 c 0,0 0.537706,-6.63661 0.667001,-9.21223 0.129289,-2.57562 0.371528,-6.50388 0.371528,-7.80937 0,-1.3055 0.513749,-0.88263 0.309541,-2.2718 -0.204208,-1.38913 0.611862,-3.16123 0.433134,-4.49868 -0.178731,-1.33743 -0.409937,-3.02549 -0.409937,-5.85247 0,-2.82698 0.500443,-7.82307 0.306882,-8.99092 -0.193561,-1.16783 -0.379132,-2.03636 -0.257824,-3.62746 0.121312,-1.59108 -0.0289,-1.89797 -0.148689,-4.75613 -0.119789,-2.85816 -0.503482,-9.68112 -0.35822,-11.58858 0.145267,-1.90748 -0.4472,-6.86707 -0.185192,-8.46004 0.262008,-1.593 0.03307,-2.87035 0.147926,-5.09536 0.114843,-2.22498 0.155912,-5.51287 0.171125,-6.5632 0.0152,-1.05033 -0.144886,-6.00268 -0.111414,-7.30513 0.03346,-1.30246 0.433891,-6.48071 0.235009,-7.67249 -0.198884,-1.19179 -0.436936,-5.94146 -0.446443,-7.73562 -0.0094,-1.79415 -0.393963,-8.08888 -0.399669,-9.64916 -0.0057,-1.56026 -0.105713,-6.33391 -0.119022,-7.55193 -0.01329,-1.21804 -0.25174,-5.65245 -0.25174,-6.26166 0,-0.6092 -0.228926,-1.77439 -0.228926,-1.77439 0,0 -5.234471,-0.83128 -6.155874,-1.24577 -0.921403,-0.4145 -3.77422,-2.42998 -3.77422,-2.42998 0,0 0.365065,6.60085 0.196983,8.14251 -0.168081,1.54164 -0.292812,7.49224 -0.05248,9.3655 0.240333,1.87322 0.549876,7.17087 0.366584,9.75067 -0.183291,2.57981 0.08175,8.57414 0.543412,11.40491 0.461653,2.8308 -0.585243,4.08991 -0.585243,6.06355 0,1.97363 0.0031,3.14907 -0.08746,6.31451 -0.09051,3.16543 -0.536948,5.91254 -0.282164,10.35951 0.254782,4.44698 0.130811,9.92905 0.115225,12.29629 -0.01559,2.36723 0.277982,11.4821 0.301178,13.73906 0.02319,2.25694 -0.276459,6.31793 0.09583,8.29767 0.372288,1.97972 0.242234,8.61288 0.242234,8.61288 0,0 -0.64761,8.3053 -0.743818,10.97939 -0.09621,2.67412 -0.01329,4.6242 -0.425908,9.59137 -0.412596,4.96719 -1.046132,7.65082 -0.727843,8.38133 0.318289,0.73051 2.578257,1.63558 5.163738,1.68462 2.585483,0.0491 5.130658,-1.44506 5.95319,-2.42539 0.822534,-0.98036 0.131578,-2.20601 0.131578,-2.20601 z"
       id="path9" /><path
       id="path10"
       style="fill:#000000;fill-opacity:1;stroke:#000000;stroke-width:0.185094;stroke-opacity:1"
       d="m 38.916806,38.584964 c -2.217737,-0.01555 -3.482824,1.648121 -3.482824,1.648121 0,0 -0.248368,4.774205 -0.347207,7.135285 -0.09883,2.361084 -0.283801,1.143122 -0.394754,3.204285 -0.110991,2.061162 0.04156,3.21452 -0.0057,4.151258 -0.0474,0.936739 -0.337338,2.815803 -0.337338,2.815803 0,0 -0.508727,-1.231753 -0.635197,-1.478105 -0.126466,-0.246352 0.296066,-1.21927 0.296066,-1.21927 l -1.08245,-1.151532 c 0,0 -0.16075,-0.164111 -1.698796,0.129635 -1.538046,0.293755 -1.179333,1.245288 -1.179333,1.245288 l 0.763943,0.515879 c 0,0 1.207196,-1.179917 1.95135,-0.633858 0.744153,0.54606 0.221876,1.277776 0.219359,2.105685 -0.0012,0.39368 0.303691,0.611941 0.70742,0.744212 0.0847,0.446964 0.249908,1.437691 0.200968,2.148749 -0.06497,0.944006 -0.345001,2.707062 -0.467427,3.848014 -0.122423,1.140965 -0.56605,3.673186 -0.488961,4.543779 0.07708,0.870579 0.381729,3.043555 0.374571,4.293911 -0.0071,1.250356 -0.425538,2.800856 -0.365151,3.327647 0.0012,0.01097 0.01734,0.03672 0.02288,0.05209 l -0.03948,-0.02193 c 0,0 0.03275,5.44562 0.03275,5.879239 0,0.433617 -1.199512,2.75974 -0.772915,3.69817 0.426598,0.93844 0.592135,1.63123 0.592135,2.88086 0,1.24962 -0.235958,2.50942 -0.235958,2.50942 l 2.774955,-0.0238 c 0,0 -0.211414,-0.99345 -0.477745,-2.2129 -0.266331,-1.21943 -0.798932,-3.72778 -0.798932,-3.72778 0,0 2.242317,-0.75429 3.98569,-0.37637 1.743374,0.37794 4.600251,2.49821 4.600251,2.49821 l 0.03364,-1.05778 c 0,0 -0.154352,-0.15417 -0.238199,-0.23731 0.02803,-0.41763 0.07243,-1.1425 0.08345,-2.01282 0.01504,-1.190161 0.165587,-4.768568 -0.02108,-6.403636 -0.186668,-1.635082 -0.493249,-7.139723 -0.741961,-8.47029 -0.248707,-1.330566 -0.117473,-3.517934 0.04441,-4.74699 0.106276,-0.806788 0.188868,-1.669896 0.245378,-2.292307 0.01097,0.01232 0.02136,0.02344 0.0323,0.03632 0,0 0.39358,-2.441342 0.457558,-3.941779 0.09265,-2.172923 0.858658,-5.560173 0.876088,-7.345225 0.01747,-1.785052 0.199709,-2.904684 -0.0016,-4.221686 -0.201502,-1.317001 0.470647,-4.709258 0.362457,-5.475947 -0.108194,-0.766695 -0.482012,-1.26647 -3.516019,-2.157723 -0.474061,-0.139256 -0.917571,-0.19988 -1.328262,-0.202763 z" /><path
       id="path14"
       style="display:inline;fill:#000000;fill-opacity:1;stroke:#000000;stroke-width:0.185094;stroke-opacity:1"
       d="m 129.38558,207.29199 5.2996,8.26693 -7.7855,-5.42174 4.02516,4.95893 -4.19645,-1.0397 c 0,0 4.22287,5.93636 2.75931,6.27295 -1.46358,0.33664 -22.31922,3.25245 -25.25646,3.32854 -2.93726,0.076 -18.109857,-0.0868 -18.109857,-0.0868 l -3.846707,-0.074 5.310094,-7.90955 -7.567438,6.74962 -0.574955,-4.80336 -2.085105,5.01332 -3.63533,-6.3832 0.424657,6.91186 c 0,0 -0.29351,-0.87205 -6.092603,0.0859 -5.79909,0.958 -12.75968,-0.0435 -12.75968,-0.0435 l 4.500386,1.87277 -13.300757,4.87113 -13.510223,5.5248 -7.314556,-24.12373 4.973231,24.79507 -8.477825,-13.54841 5.876933,13.64431 -9.109557,-4.31812 7.633286,5.72949 -6.16131,-1.36413 8.430112,9.87346 0.878891,1.37607 H 182.72221 l 0.0778,0.10019 7.66239,-0.0825 v -27.1397 l -7.02398,-1.69955 -0.89369,1.06972 c -0.5422,-0.0388 -21.64222,-1.55323 -23.18759,-2.15809 -1.56521,-0.61264 -6.25147,-2.94396 -6.25147,-2.94396 l 2.73783,3.54037 -5.36068,-1.01869 c 0,0 -3.14048,-0.20826 -6.28823,-0.61265 -0.4015,2.2232 -1.66024,4.43646 -1.99061,4.98852 5.28651,5.93526 11.80552,13.92552 10.79575,16.27333 -1.66285,3.86633 -3.79197,5.08038 -7.23009,5.42842 -3.43811,0.34808 -5.07728,0.87536 -6.99393,-0.0267 -1.91666,-0.90213 -0.69922,-1.47171 -1.54546,-1.81171 -0.84622,-0.33997 -2.55368,0.0736 -4.24749,-1.31736 -1.69382,-1.3909 -4.36351,0.32633 -5.81968,0.43944 -1.45614,0.11307 -1.6657,-2.07843 -1.6657,-2.07843 0,0 4.93288,-6.18561 5.85452,-7.76164 0.92164,-1.57601 6.27773,-3.29942 6.27773,-3.29942 l 0.51579,-2.19293 -2.27167,-6.25197 v -4.23462 c 0,0 0.33039,0.34942 0.36644,0.38649 l 0.10115,-1.41568 c -2.76971,-2.36105 -6.95574,-6.33976 -6.95574,-6.33976 z" /><text
       xml:space="preserve"
       style="font-size:32.8996px;text-align:center;text-anchor:middle;fill:#000000;fill-opacity:1;stroke-width:2.64162;stroke-dasharray:7.92488, 7.92488"
       x="103.29205"
       y="273.96118"
       id="text5"><tspan
         sodipodi:role="line"
         id="tspan5"
         style="font-style:normal;font-variant:normal;font-weight:normal;font-stretch:normal;font-family:Carlito;-inkscape-font-specification:Carlito;stroke-width:2.64162"
         x="103.29205"
         y="273.96118">GIANT SLOTH</tspan></text><g
       id="g16"
       transform="matrix(0.92332246,0,0,0.92332246,7.3531926,9.9822287)"
       style="stroke-width:1.00233"><rect
         style="fill:#000000;fill-opacity:1;stroke-width:0.234024;stroke-dasharray:0.702071, 0.702071"
         id="rect5"
         width="191.04346"
         height="4.2386951"
         x="9.1968021"
         y="293.53125"
         ry="0" /><rect
         style="fill:#000000;fill-opacity:1;stroke-width:0.234024;stroke-dasharray:0.702071, 0.702071"
         id="rect6"
         width="191.04346"
         height="4.2386951"
         x="9.1968021"
         y="0.59831142"
         ry="0" /><path
         id="rect1"
         style="fill:#000000;fill-opacity:1;stroke-width:0.148261;stroke-dasharray:0.444784, 0.444784"
         d="m 9.196582,253.16248 v 4.23917 h 65.259246 l 8.808937,-4.23917 z m 76.544603,0 0.132719,0.0911 v -0.0911 z" /></g><path
       id="path3"
       style="display:inline;opacity:1;fill:#000000;fill-opacity:0.310843;stroke-width:0.185095;stroke-dasharray:0.555286, 0.555286"
       d="m 56.2021,10.575098 c 9.562738,2.192056 23.249085,5.024627 39.755805,7.582198 32.890935,5.096162 46.411365,8.891593 46.411365,8.891593 0,0 -24.19284,-12.446938 -48.591314,-15.428769 -3.182777,-0.388982 -6.412758,-0.698119 -9.65088,-1.045022 z m 113.42499,0 c -12.77577,10.512353 -32.62789,23.631775 -62.8402,37.125891 l 1.45359,2.09227 -4.93938,2.808386 c 0,0 1.3392,-0.840139 3.60106,2.182174 1.20995,1.616739 1.83582,3.110071 2.58852,4.475171 2.59654,-1.276974 5.11942,-2.54709 7.90888,-3.843172 31.57108,-14.668937 49.93608,-31.585888 60.41102,-44.84072 z M 19.296074,12.052727 c 0,0 2.992925,10.949358 15.348655,25.60483 0.474182,-0.241251 1.00247,-0.516661 1.314735,-0.664933 1.247301,-0.592251 4.364022,-1.051242 6.654674,-0.454861 C 24.451102,22.049046 19.296074,12.052727 19.296074,12.052727 Z M 31.868833,24.25964 c 0,0 20.325038,4.41326 50.077849,7.30492 29.752858,2.891649 42.355008,5.580722 42.355008,5.580722 0,0 -23.78392,-9.801499 -45.68012,-11.242002 C 56.725355,24.462744 31.868833,24.25964 31.868833,24.25964 Z m 13.276859,14.276039 c 0.03444,0.106911 0.07878,0.207066 0.0997,0.32312 0.616959,3.423533 -0.943471,5.824651 0.817592,7.394379 1.761066,1.56973 4.311304,2.65107 4.342541,1.199462 0.02406,-1.118292 -0.207293,-2.726823 1.056148,-4.274 C 49.2207,41.592352 47.10364,40.040357 45.145697,38.535679 Z m 1.152284,0.457976 c 0,0 3.064095,0.797913 7.631156,1.821668 0.177497,-0.433774 0.164284,-0.830056 0.131295,-1.213259 -4.054403,-0.330209 -7.762451,-0.608409 -7.762451,-0.608409 z m 19.633337,33.207947 c -4.013455,3.426926 -7.514948,6.933661 -10.408388,10.511644 3.217423,2.765113 5.791708,6.285133 7.444227,8.098923 3.787957,-4.59357 9.052516,-9.241563 15.79328,-13.981403 -0.539299,-0.04697 -0.989777,-0.09045 -1.64008,-0.146873 -4.303206,-0.373304 -8.954144,-2.681815 -11.189039,-4.482291 z m -2.175499,19.452637 c 0.0056,0.006 0.01214,0.011 0.0178,0.0165 0.09848,0.0328 3.290049,1.05024 8.158563,2.48749 0.666035,-0.21979 1.369972,-0.48644 2.165706,-0.80424 -5.044873,-0.83547 -10.29813,-1.69283 -10.342072,-1.69972 z m 82.961786,7.14826 3.13774,11.184591 c 0.16667,0.15928 0.21449,0.25113 0.35517,0.39388 l 7.22258,5.19975 -0.87234,3.13729 0.0534,0.44596 c 2.51765,3.50316 5.0559,7.07305 5.60565,8.1421 0.39624,0.77057 1.4158,2.40479 2.59431,4.26376 -0.32668,-11.34642 -6.80128,-22.40937 -18.09652,-32.767331 z M 47.552181,119.96865 c 6.062429,16.08832 24.881472,32.37182 59.600549,47.61973 0.98511,-4.06347 2.00005,-8.72301 -1.0428,-13.99609 -23.04439,-10.93587 -38.117469,-21.29182 -45.300918,-31.47262 -3.462945,-0.017 -6.949915,-0.28755 -9.181333,-1.40019 -0.862358,-0.42999 -2.363466,-0.61749 -4.075498,-0.75083 z m 17.864187,2.06824 c -0.608357,0.0219 -1.145422,0.0383 -1.792294,0.0561 2.211957,0.6607 7.735017,2.19796 16.301104,4.36257 -2.059151,-1.2734 -4.198529,-2.44485 -5.931437,-3.26948 -4.335202,-0.58964 -7.024892,-0.94975 -8.577373,-1.14872 z m 18.809068,18.19309 c 0,0 6.483036,1.79584 17.068854,4.06304 -0.2158,-0.70456 -0.39622,-1.3772 -0.56969,-2.03041 -9.0498,-1.18506 -16.499164,-2.03263 -16.499164,-2.03263 z m 15.421643,39.77406 c -1.2036,0.55083 -2.30395,1.0932 -3.548087,1.64719 -22.528197,10.03116 -38.268251,19.33455 -49.50549,27.58984 l -0.114828,11.06398 c 11.786038,-7.4263 28.627322,-16.39655 52.900035,-26.76602 -1.01048,-3.75081 -1.73257,-6.69971 -1.57376,-10.00381 0.0593,-1.23367 0.82655,-2.38361 1.84213,-3.53118 z m 71.702431,11.12984 0.0205,6.49445 6.64222,8.58094 c 0.31169,0.25297 0.60473,0.49764 0.90125,0.74414 0.94103,0.47297 5.41235,2.70626 9.36961,4.37014 -2.3952,-4.994 -7.2566,-11.8963 -16.93356,-20.18967 z m -50.79218,4.13291 -1.17098,1.88309 c 1.29179,0.29417 2.5354,0.57862 3.95978,0.89148 -0.24226,-0.71724 -0.49735,-1.59273 -0.73081,-2.5013 -0.69286,-0.0918 -1.38556,-0.18534 -2.05799,-0.27327 z m -40.694462,8.16034 c 0,0 8.362355,2.64651 21.626352,6.16422 -0.0204,-0.73639 -0.0613,-1.70479 -0.11749,-3.05452 -12.188348,-1.84212 -21.508862,-3.1097 -21.508862,-3.1097 z m 84.376222,0.31244 c -1.12569,0.55275 -2.31553,1.09813 -3.60062,1.66233 3.54539,0.72136 5.24466,1.13553 7.72907,1.68548 l -0.64712,-2.11185 c -1.14707,-0.41185 -2.21258,-0.81326 -3.48133,-1.23596 z m -42.61048,6.05918 1.48786,5.14499 c 3.15142,0.71679 6.36912,1.43859 9.79019,2.16349 32.2784,6.83945 45.1763,11.03816 45.1763,11.03816 0,0 -21.84981,-12.128 -45.96763,-16.5499 -3.44768,-0.63216 -6.96883,-1.20121 -10.48672,-1.79674 z m -62.298563,5.74584 c 0,0 9.702285,3.09229 25.15887,7.0904 0.530006,-0.99681 1.172482,-2.07049 1.971212,-3.11148 -14.919805,-2.31805 -27.130082,-3.97892 -27.130082,-3.97892 z m 130.626913,0.0725 -1.64942,0.72145 c 1.86297,2.49755 2.31168,3.87477 2.31168,3.87477 0,0 0.18606,-1.64039 -0.66226,-4.59622 z m -86.39816,6.72143 -12.153062,2.08693 c 6.266591,1.53955 13.262992,3.16676 20.967212,4.79918 32.27839,6.8395 45.1763,11.03816 45.1763,11.03816 0,0 -21.84844,-12.12752 -45.9663,-16.54945 -2.6381,-0.48369 -5.33203,-0.91131 -8.02415,-1.37482 z m -72.940611,0.82739 c -12.15775,13.23564 -11.064865,21.39272 -11.064865,21.39272 0,0 1.177391,-4.72385 11.711995,-13.4491 z" /></g></svg>
