<?xml version="1.0" encoding="UTF-8" standalone="no"?>
<!-- Created with Inkscape (http://www.inkscape.org/) -->

<svg
   width="428.09518mm"
   height="412.68939mm"
   viewBox="0 0 428.09518 412.68939"
   version="1.1"
   id="svg1"
   xml:space="preserve"
   inkscape:version="1.3.2 (091e20ef0f, 2023-11-25)"
   sodipodi:docname="hack2.svg"
   inkscape:export-filename="meerkats.png"
   inkscape:export-xdpi="96"
   inkscape:export-ydpi="96"
   xmlns:inkscape="http://www.inkscape.org/namespaces/inkscape"
   xmlns:sodipodi="http://sodipodi.sourceforge.net/DTD/sodipodi-0.dtd"
   xmlns="http://www.w3.org/2000/svg"
   xmlns:svg="http://www.w3.org/2000/svg"><sodipodi:namedview
     id="namedview1"
     pagecolor="#ffffff"
     bordercolor="#000000"
     borderopacity="0.25"
     inkscape:showpageshadow="2"
     inkscape:pageopacity="0.0"
     inkscape:pagecheckerboard="0"
     inkscape:deskcolor="#d1d1d1"
     inkscape:document-units="mm"
     inkscape:zoom="0.44114907"
     inkscape:cx="496.43083"
     inkscape:cy="1136.8039"
     inkscape:window-width="2560"
     inkscape:window-height="2811"
     inkscape:window-x="0"
     inkscape:window-y="0"
     inkscape:window-maximized="1"
     inkscape:current-layer="layer3" /><defs
     id="defs1" /><g
     inkscape:label="Layer 1"
     inkscape:groupmode="layer"
     id="layer1"
     style="display:inline"
     transform="translate(216.33766,17.401945)" /><g
     inkscape:groupmode="layer"
     id="layer2"
     inkscape:label="Layer 2"
     style="display:none"
     transform="translate(216.33766,17.401945)"><path
       id="path1"
       style="fill:#000000;fill-opacity:1;stroke-width:0.2;stroke-dasharray:0.600001, 0.600001"
       d="m 113.2644,28.590503 c -3.87659,-7.93e-4 -2.42705,-0.02574 -6.78253,0.345715 -4.19755,0.605944 -4.41119,0.483121 -9.977166,0.288872 -5.56599,-0.194249 -9.658889,1.140812 -13.485482,1.726509 -3.826594,0.585703 -5.961034,1.632129 -8.885763,2.545581 -2.92473,0.913453 -10.664522,6.515103 -13.500984,9.02839 -2.836459,2.513281 -5.228249,5.848747 -6.754627,8.828401 -1.526378,2.979655 -2.509924,6.208924 -2.509924,6.208924 0,0 9.492982,-3.493133 13.884424,-4.325318 4.391438,-0.832188 9.217525,-0.708484 9.217525,-0.708484 0,0 -10.685876,2.419859 -13.500468,3.410128 -2.814591,0.990272 -8.348489,2.427939 -10.028328,3.400309 -1.679839,0.972367 -3.570325,3.311426 -3.570325,3.311426 0,0 2.436326,-0.89917 4.426603,-0.89917 1.990277,0 6.9992,2.13837 10.488249,4.227649 3.489043,2.089276 7.288325,5.17576 9.482108,6.821806 2.193784,1.646044 6.664193,3.320211 6.664193,3.320211 0,0 -3.3632,0.612589 -9.800952,-3.447335 -6.437752,-4.059924 -12.734817,-9.412144 -16.385046,-9.225277 -3.650233,0.186868 -5.77631,1.926204 -6.756694,4.489132 -0.980381,2.562928 -2.980152,7.599546 -1.547192,10.40815 1.432953,2.808604 3.6495,8.878814 7.12928,12.873116 3.479783,3.994302 7.059116,9.753372 9.023739,10.705292 1.964623,0.95191 2.503197,0.96748 4.044714,0.86816 1.541521,-0.0993 2.534639,-1.79458 3.57911,-2.07946 1.044474,-0.28488 2.367297,-0.57929 2.367297,-0.57929 0,0 -2.117837,1.0647 -3.208589,2.4014 -1.090753,1.33669 -2.712548,2.06475 -5.847705,1.83193 -3.135158,-0.23281 -7.867271,-6.824491 -10.317717,-9.37927 -2.450442,-2.554775 -3.334163,-4.167704 -3.334163,-4.167704 0,0 0.548356,3.311786 0.01292,6.788216 -0.535445,3.476438 -0.304837,11.727768 0.112138,16.078608 0.416973,4.3508 3.757323,9.75955 3.766695,16.43207 0.0094,6.67253 1.44377,2.95765 0.173633,8.29562 -1.270137,5.33794 0.178833,5.75467 -0.510047,9.57822 -0.688874,3.82357 -0.59215,8.97635 -1.567346,13.35371 -0.975195,4.3774 -0.461349,7.54027 -1.883606,12.51293 -1.422257,4.97268 -2.307863,7.11241 -3.140377,8.65425 -0.832516,1.54187 -2.708362,4.99143 -2.708362,4.99143 l 127.166915,0.35088 c 0,0 -1.21564,-2.73177 -4.2106,-6.9143 -2.99493,-4.18256 -1.02438,-5.11607 -5.45961,-8.90592 -4.43526,-3.78985 -4.85071,-4.25959 -7.75043,-8.17883 -2.89975,-3.9192 -4.9988,-7.34246 -7.4843,-10.28516 -2.4855,-2.94271 -6.84336,-3.04792 -7.89719,-7.51685 -1.05384,-4.46895 -2.39391,-6.01951 -0.85731,-11.14971 1.53657,-5.13017 0.17431,-11.07563 3.22254,-12.75168 3.0482,-1.67603 0.48607,-3.67891 4.38061,-5.66993 3.8945,-1.99105 5.40052,-6.04681 8.02432,-7.44709 2.62376,-1.40031 3.0512,-0.69275 10.42416,-3.08767 7.37299,-2.39491 8.0684,-2.10048 9.55756,-3.82354 1.48915,-1.72306 5.46397,-3.87361 5.46323,-5.731951 -7.9e-4,-1.858337 0.0641,-3.630786 0.0641,-3.630786 0,0 -0.21668,2.202976 -4.55941,1.683102 -4.34275,-0.519877 -4.73405,-1.100465 -8.16798,0.502811 -3.43395,1.603275 -4.05332,3.570049 -10.05261,2.521294 -5.99932,-1.048758 -6.92979,-3.397896 -11.77965,-2.971395 -4.84983,0.426497 -11.25461,0.973584 -11.25461,0.973584 0,0 9.29985,-3.728599 13.00903,-2.957443 3.70917,0.77116 8.29631,3.474389 12.40079,3.355351 4.10452,-0.119039 8.07509,-4.149221 10.17096,-4.004407 2.09587,0.144814 5.31942,1.689108 7.10809,1.275892 1.78866,-0.413218 2.94312,-0.863276 4.39767,-1.254187 1.45453,-0.390911 0.88414,0.431235 -3.56413,-1.086756 -4.44828,-1.517991 -4.70968,-3.080561 -5.16661,-4.393013 -0.45693,-1.312452 -0.57722,-5.113383 -0.57722,-5.113383 0,0 0.77741,5.194572 2.312,6.047176 1.53459,0.852604 4.79016,2.609009 6.92413,2.7373 2.13393,0.128294 4.11839,1.331745 7.12979,0.11989 3.01144,-1.211855 4.71883,-2.959335 4.78627,-4.662248 0.0674,-1.702911 -0.23977,-5.623429 -0.23977,-5.623429 0,0 1.00965,-0.39623 1.11414,-1.977657 0.1045,-1.58143 -1.23901,-3.630046 -1.38493,-4.505152 -0.14592,-0.875107 -4.46593,-4.317618 -7.62744,-6.132442 -3.16152,-1.814824 -11.21592,-7.577446 -13.08034,-9.259383 -1.86442,-1.681937 -4.55525,-3.975402 -5.77639,-5.650301 -1.22115,-1.674899 -0.85266,-2.757971 -0.85266,-2.757971 0,0 -0.20663,-0.123269 -1.13172,-2.0283 -0.92506,-1.905033 0.97837,-2.246615 -1.5291,-6.096269 -2.50747,-3.849655 -3.85982,-6.064019 -5.61723,-6.605798 -1.75741,-0.541782 -3.30144,0.950917 -4.96714,0.4408 -1.66571,-0.510116 -0.22096,0.702268 -6.89984,-1.179257 -6.67884,-1.881528 -12.80667,-3.485284 -17.69814,-4.383195 -4.89145,-0.897914 -6.56255,-1.186799 -10.43916,-1.187524 z m 20.73362,14.64045 c 0.2445,-0.0339 0.52791,0.0012 0.90124,0.145728 1.49332,0.578174 6.4679,4.625529 8.08943,4.855 1.62153,0.229473 -0.22118,-4.316532 -0.22118,-4.316532 l 3.36259,7.179407 c 0.46761,1.389728 0.15089,0.927802 0.15089,1.920813 0,0.993011 1.98886,3.578864 4.42971,6.153629 2.44083,2.574768 1.96104,2.909896 0.71623,5.174361 -1.24156,2.258543 -3.90367,3.945202 -5.20433,4.310332 -1.30066,0.365126 0.63651,-2.310956 0.0146,-3.96596 -0.62194,-1.655007 -2.30321,1.414378 -3.00664,3.325689 -0.70343,1.911312 -3.95739,3.574645 -6.28127,4.858618 -2.32385,1.283972 -1.32734,-0.416392 -2.53162,-1.148767 -1.2043,-0.732377 -1.63114,2.155856 -4.58991,3.345532 -2.95876,1.189673 -7.26034,-0.597378 -8.82426,-3.15743 -1.56393,-2.560056 -5.37223,-4.281316 -7.41712,-4.514453 -4.53483,-1.137821 -2.97033,-0.920981 -7.95607,-2.312053 -2.15136,-0.818146 -4.66642,-0.07075 -4.66642,-0.07075 0,0 -0.0548,-1.889622 -1.027324,-4.414957 -1.28592,-3.339054 -5.711579,-6.439865 -9.094019,-7.064962 l 0.939009,-0.337018 c 2.305662,0.269215 3.056484,0.175552 5.716399,1.048603 4.590075,1.506577 5.187225,2.361817 8.236185,0.941027 1.83312,-0.85422 3.50403,-3.727763 8.19589,-5.855456 4.69184,-2.127693 4.97033,-3.278658 9.51983,-3.861263 4.54948,-0.582607 6.14193,-0.787521 8.02173,-1.144633 1.40986,-0.267837 1.79298,-0.992792 2.52646,-1.094507 z m -5.79138,7.808826 c -3.7828,-0.04981 -5.77282,1.021917 -7.15305,1.906343 -1.47224,0.943389 -3.90157,2.292367 -3.90157,2.292367 0,0 1.00521,2.69053 3.69797,4.929415 2.7226,2.263694 3.82385,2.90523 6.80217,2.787943 4.02348,-0.158446 4.82847,-0.371841 6.34225,-1.012858 1.51376,-0.64102 1.19595,-2.279015 2.50889,-1.888257 1.31291,0.390761 3.31866,0.399976 3.31866,0.399976 0,0 -3.70139,-1.53218 -5.74332,-4.615739 -1.07393,-1.621759 -0.79607,-4.555048 -5.09168,-4.773869 -0.26848,-0.01368 -0.52813,-0.022 -0.78032,-0.02532 z m 0.0755,2.662369 c 1.07702,-7.7e-5 1.95019,0.85481 1.95027,1.909445 -8e-5,1.054635 -0.87325,1.909521 -1.95027,1.909444 -1.07682,-2.04e-4 -1.94967,-0.855008 -1.94975,-1.909444 8e-5,-1.054436 0.87293,-1.909241 1.94975,-1.909445 z M 173.022,75.311165 c 1.69078,0.188365 3.81383,0.456067 3.9026,1.8526 0.0888,1.396537 2.0004,2.935222 2.0004,2.935222 0,0 -1.20035,-1.82229 -0.79272,-2.71353 0.40762,-0.891244 2.50113,-0.823298 3.63027,0.29714 1.12915,1.120442 2.76823,0.368633 1.71307,2.781225 -1.05517,2.412592 -1.921,4.310794 -4.19509,3.200322 -2.27409,-1.110472 -4.00038,-1.019674 -4.56251,-2.684591 -0.56213,-1.664914 0.67621,-2.348701 -0.17208,-3.239595 -0.84832,-0.890891 -1.52394,-2.428793 -1.52394,-2.428793 z"
       sodipodi:nodetypes="scssssscscsscssscsssssssscssscsscsssssccsscssssccssccsssscssssssscsssscssssscsssssscscsccsssssssssssscsscsssssssccsssscsssccscccscsssssscsc" /></g><g
     inkscape:groupmode="layer"
     id="layer3"
     inkscape:label="Layer 3"
     style="display:inline"
     transform="translate(216.33766,17.401945)"><rect
       style="fill:#ffffff;stroke:#000000;stroke-width:0.2"
       id="rect2"
       width="565.89386"
       height="488.61707"
       x="-285.73929"
       y="-70.71595"
       ry="0.81021029" /><g
       id="g3"
       transform="translate(0,54.338699)"><path
         style="fill:#000000;fill-opacity:1;stroke-width:0.233479;stroke-dasharray:0.700439, 0.700439"
         d="m 89.790837,11.593393 c -0.706276,0.874027 -0.354364,3.045824 -1.605814,4.149952 -1.251454,1.104125 -5.604484,4.186158 -6.863877,4.619819 -1.259392,0.433666 -2.783867,1.766348 -3.493474,2.624301 -0.709607,0.857952 -0.478427,1.977364 -0.478427,1.977364 0,0 0.536137,-0.26949 0.36099,0.895425 -0.175146,1.164914 0.845143,2.784757 1.564252,2.660778 0.719107,-0.12398 3.134627,1.135009 2.996434,2.201992 -0.138191,1.066986 -0.597893,1.824082 2.495657,3.130108 3.093551,1.306027 6.512024,1.554482 7.307092,2.710118 0.795056,1.155636 3.604432,3.302226 4.044949,5.371872 0.440529,2.069643 1.554133,4.645292 0.456254,6.439228 -1.097879,1.793935 -1.945,2.461765 -2.537093,4.311375 -0.592092,1.849611 -3.019717,3.03517 -4.353725,5.599385 -1.334004,2.564214 -0.592244,3.860783 -3.686744,6.711358 -3.094499,2.850574 -8.360918,9.864441 -10.048401,14.450751 -1.687483,4.586307 -3.583406,13.967604 -3.583406,13.967604 0,0 -8.868174,6.43893 -9.93701,9.013977 -1.068834,2.57503 -2.531728,7.9169 -2.337796,10.95036 0.193936,3.03346 -0.356521,6.97114 -1.366143,9.54994 -1.009621,2.57878 -1.062157,4.82108 -1.062157,4.82108 0,0 -0.942143,0.79359 -1.023874,2.24275 -0.08173,1.44915 1.046391,5.69835 1.046391,5.69835 l 0.41145,-3.43537 1.201565,0.51927 c 0,0 -0.723849,-3.4115 0.508209,-3.89736 1.232055,-0.48587 2.963592,-0.44603 3.422538,-1.35729 0.458947,-0.91126 2.463435,-4.64717 2.463435,-4.64717 l 0.76758,-1.25505 c 0,0 0.141721,3.10789 -0.456945,4.3401 -0.598665,1.23221 -1.6828,3.51398 -2.161925,4.89422 -0.479125,1.38022 -0.464917,2.17855 -0.357278,3.16168 0.107646,0.98313 1.241059,2.98749 1.241059,2.98749 0,0 -0.0022,-1.39559 0.555154,-2.59197 0.557214,-1.19639 0.396927,-3.41213 0.396927,-3.41213 l 0.61815,0.66074 1.073413,-2.01348 c 0,0 0.855704,0.73276 2.131152,0.001 1.275452,-0.73163 2.571316,-3.28296 2.571316,-3.28296 0,0 -1.274466,5.38398 -2.031479,8.13339 -0.757009,2.74943 -1.468729,10.6663 0.358245,15.68125 1.826973,5.01497 6.712189,13.13367 6.829074,14.61653 0.116887,1.48284 0.116576,18.49772 0.863144,23.18217 0.746569,4.68444 2.415394,8.23144 3.120803,12.21844 0.705409,3.98699 1.828414,9.39826 3.179259,10.76586 1.350842,1.3676 8.187968,8.2967 9.032276,10.56821 0.84432,2.27151 2.271696,8.25476 1.163276,10.5591 -1.10842,2.30435 -2.346526,6.1592 -2.609039,7.10179 -0.262513,0.9426 -0.380875,1.5089 -0.380875,1.5089 0,0 -1.979742,0.60265 -3.62309,1.93411 -1.643345,1.33146 -2.052053,2.69818 -2.052053,2.69818 0,0 -0.890413,-0.10215 -1.801717,1.51162 -0.911301,1.61379 -1.42052,3.71476 -1.42052,3.71476 l 1.780114,-0.94864 0.818994,1.15369 3.152718,-1.87121 -0.08605,1.43297 3.019207,-1.37927 2.25122,0.33093 2.502421,-1.03114 0.801605,0.63779 9.025822,-3.4634 c 0,0 1.21614,-3.28883 1.80789,-5.00385 0.59174,-1.71499 1.1019,-5.35848 1.90798,-6.76577 0.8061,-1.40729 3.1874,-9.34446 3.32635,-10.7548 0.13896,-1.41035 0.98121,-5.49063 -0.0148,-6.74661 -0.99607,-1.25598 -0.63633,-4.43849 -0.77808,-6.84557 -0.14177,-2.40708 -0.009,-5.58044 1.08511,-6.12202 1.09456,-0.54156 1.8219,1.94134 3.59592,5.47079 1.77401,3.52946 6.54561,11.80114 7.69931,14.26906 1.15371,2.46791 3.0059,7.16444 3.0059,7.16444 v 0 c 0,0 0.74052,1.26351 -0.29113,3.12707 -1.03165,1.86358 -2.95156,4.69957 -0.96264,5.11646 1.98891,0.41689 6.18144,-0.46304 8.45088,-0.46304 2.26942,0 3.77119,0.60475 3.37491,-2.10951 -0.39629,-2.71425 -0.60922,-10.83236 -2.26276,-13.09915 -1.65353,-2.26679 -10.62667,-20.55336 -10.96515,-25.65564 -0.33847,-5.1023 -0.56539,-14.82698 0.32324,-17.16942 0.88864,-2.34243 -2.69118,-16.95024 -3.66593,-20.34105 -0.97475,-3.39081 -5.48222,-10.37677 -5.41858,-13.20198 0.0636,-2.82521 0.96555,-5.89617 0.28473,-8.35656 -0.68081,-2.46039 -1.40048,-7.30633 -1.08716,-8.59198 0.31332,-1.28565 -0.57204,-2.52037 -0.32562,-6.07326 0.24641,-3.55289 1.0355,-8.20534 1.17447,-11.5827 0.13897,-3.37736 0.61135,-11.10144 1.9075,-13.618239 1.29614,-2.516803 4.55628,-10.504846 5.52442,-13.234676 0.96814,-2.729829 1.10711,-8.050469 1.10711,-10.676091 0,-2.625622 -0.33544,-5.997857 0.67498,-7.634628 1.0104,-1.63677 -0.0923,-3.826805 0.86618,-7.540361 0.95859,-3.713557 2.19478,-7.218388 1.68527,-10.406052 -0.50951,-3.187664 -2.7683,-2.428277 -1.55441,-5.614669 1.21389,-3.186392 3.00828,-7.110856 2.86932,-8.859424 -0.13897,-1.748569 0.63645,-5.29635 0.36428,-6.938779 -0.27215,-1.642427 -0.67712,-8.061853 -3.46512,-10.689205 C 123.42045,13.844464 117.5029,9.9060399 112.31609,9.3780776 107.12927,8.8501152 103.39675,8.135597 101.34021,8.5062911 99.283648,8.8769852 96.686972,9.4095786 94.510419,9.9565053 92.333877,10.503433 90.698715,10.426494 89.790866,11.593233 Z"
         id="path4" /><rect
         style="fill:#000000;fill-opacity:1;stroke-width:0.233479;stroke-dasharray:0.700439, 0.700439"
         id="rect6"
         width="191.04346"
         height="4.2386951"
         x="0.41878569"
         y="0.25178018"
         ry="0" /><path
         id="rect1"
         style="fill:#000000;fill-opacity:1;stroke-width:0.147916;stroke-dasharray:0.443749, 0.443749"
         d="m 0.41856735,252.81595 v 4.23917 H 65.677813 l 8.808937,-4.23917 z m 76.54460265,0 0.132719,0.0911 v -0.0911 z" /><path
         style="display:inline;fill:#000000;fill-opacity:1;stroke-width:0.233479;stroke-dasharray:0.700439, 0.700439"
         d="m 67.877933,257.09279 c 0,0 8.334885,-4.32836 10.27253,-5.12849 1.937644,-0.80013 3.648526,-1.81098 3.648526,-1.81098 0,0 -1.980424,1.97206 -0.444111,2.11282 1.536314,0.14077 9.123509,-0.59314 12.471195,-1.2098 3.347675,-0.61665 11.648217,-4.46447 13.726147,-5.01883 2.07793,-0.55438 8.79193,-2.84438 8.1367,-3.1577 -0.65523,-0.3133 -8.01733,1.21775 -8.01733,1.21775 0,0 3.68027,-2.33821 5.91169,-2.54998 2.23143,-0.21178 10.64923,-2.78835 10.64923,-2.78835 0,0 7.23025,0.24013 9.10544,0.24013 1.87519,0 7.97485,-0.67901 10.50244,-0.54005 2.52759,0.13897 8.11578,-0.99118 8.11578,-0.99118 0,0 -14.46412,-0.64644 -12.80847,-1.06609 1.65565,-0.41963 7.63783,-2.4924 8.50836,-2.22988 0.87053,0.26254 2.07122,0.84265 2.07122,0.84265 0,0 6.645,-1.55792 8.22472,-1.20213 1.57972,0.35579 2.98153,1.13778 4.19738,1.36125 1.21583,0.22348 9.673,-2.32373 13.69016,-3.01305 4.01715,-0.68933 15.39961,-2.77597 15.39961,-2.77597 l 0.44214,27.57197 z"
         id="path5" /><path
         id="path18"
         style="fill:#000000;fill-opacity:0.306165;stroke-width:0.270259;stroke-dasharray:0.810779, 0.810779"
         d="M 3.1584635,6.1298584 C 6.8033954,15.159184 19.667771,40.157572 57.921012,63.876204 20.538245,92.424021 17.234429,126.94927 69.773002,158.86317 c -1.21263,-3.914 -4.142887,-13.54737 -5.323706,-19.15128 -0.882078,-0.62532 -1.760233,-1.25032 -2.591056,-1.87328 l -3.179651,-0.42736 C 55.005696,136.91749 54.731214,134.82836 54.7672,131.97592 32.560564,111.53814 38.278013,92.093062 70.067558,70.878361 c 0.06394,0.03418 0.137496,0.06713 0.201538,0.101286 l -0.07752,-0.162781 12.530502,-7.385596 0.274918,0.0067 c -0.149725,-0.0724 -0.313972,-0.145173 -0.463537,-0.217557 0.684628,-0.39085 1.487439,-0.791745 2.18798,-1.183908 1.794662,-2.594597 3.917383,-5.689807 5.437911,-10.744047 0.718276,-2.387551 0.60696,-4.641064 -0.167432,-6.611482 C 82.307502,48.39098 75.232764,52.269616 68.858841,56.297838 26.654981,33.767559 9.7438478,14.00916 4.1801066,6.1298584 Z m 64.6813235,0 c 5.385376,0.9955841 11.032471,1.9936676 17.195333,2.957959 1.166561,0.1825296 2.123368,0.3492596 3.24528,0.5286499 1.016042,-1.9393203 2.235005,-2.9620931 2.235005,-2.9620931 0,0 3.103738,-0.2991321 5.356262,-0.5245158 z m 90.441503,0 c -6.72727,5.1044646 -14.89136,10.6406306 -24.68118,16.4243206 0.37376,4.245789 -0.60309,10.142845 -1.43092,14.447697 16.8888,-10.509122 28.93445,-21.311127 37.314,-30.8720176 z M 15.426449,15.780949 c 0,0 22.076347,4.840269 54.391512,8.011914 1.842704,0.180856 3.026589,0.344577 4.749064,0.523482 -0.01054,-0.613511 -0.05572,-1.387068 -0.04238,-1.80144 0.03317,-1.030175 1.29695,-2.250819 2.968811,-3.523299 C 73.74413,18.362829 69.962706,17.833019 66.205778,17.583423 42.423835,16.003414 15.426449,15.780949 15.426449,15.780949 Z m 115.942791,1.116728 c 0.29674,0.385294 0.50578,0.733039 0.74724,1.096057 2.15084,0.526919 3.32642,0.845943 3.32642,0.845943 0,0 -1.68783,-0.826387 -4.07366,-1.942 z M 31.09836,31.941203 c 0,0 12.936151,3.543166 32.456934,6.548437 16.690662,2.56957 23.624143,4.236513 25.676469,4.750098 C 89.111411,43.041944 89.001315,42.841097 88.86641,42.651143 84.399806,40.689459 73.452702,36.276683 62.24788,34.890377 47.769047,33.098994 31.09836,31.941203 31.09836,31.941203 Z m 95.98639,55.077258 -5.01106,12.084017 c 33.20578,22.985802 35.50273,43.957932 4.51548,66.466232 l 1.14774,12.33258 0.23719,2.4815 5.90507,-4.10208 0.0646,0.009 c -0.0357,-0.0199 -0.0641,-0.0384 -0.0997,-0.0584 39.62828,-30.56666 31.22419,-62.72001 -6.75928,-89.212639 z m -77.101754,2.669605 c 0,0 6.214565,2.023672 16.314766,4.859135 0.56982,-0.6586 1.106966,-1.300315 1.532206,-1.866553 C 57.652367,90.917518 49.982996,89.688066 49.982996,89.688066 Z M 45.01224,104.87525 c 0,0 4.5365,1.52605 11.59309,3.67833 0.09484,-0.60263 0.24567,-1.16774 0.42013,-1.72031 -5.431706,-0.88674 -12.01322,-1.95802 -12.01322,-1.95802 z m 75.28998,0.62994 -0.41548,2.42621 c 9.33824,2.45978 13.99036,3.92792 13.99036,3.92792 0,0 -5.36152,-2.9802 -13.57488,-6.35413 z m -1.16634,14.74225 0.69815,4.62607 c 17.70698,4.51052 25.10389,7.05694 25.10389,7.05694 0,0 -10.78781,-6.24061 -25.80204,-11.68301 z m -71.205989,2.24534 c 0,0 2.817182,0.8343 6.796484,1.96164 0.02629,-0.34203 0.04842,-0.68444 0.08733,-1.03043 -2.062122,-0.27144 -6.883817,-0.93121 -6.883817,-0.93121 z m 72.281379,13.16716 -0.22635,3.86178 c 16.84591,3.78395 23.93549,5.98206 23.93549,5.98206 0,0 -9.97365,-5.20748 -23.70914,-9.84384 z m 1.60042,15.63108 c 0.3523,0.83011 0.69214,1.65244 1.079,2.46394 8.69673,1.82205 12.8664,2.93832 12.8664,2.93832 0,0 -5.74316,-2.7661 -13.9454,-5.40226 z m 15.32774,26.86451 -8.74313,6.64869 0.26251,2.74919 c 54.89681,27.31588 59.18967,43.15344 59.18967,43.15344 0,0 2.94629,-21.71043 -50.70905,-52.55132 z M 74.644539,193.33652 C 22.36656,218.51984 7.6436116,239.18368 3.5749756,249.75581 l 3.2644002,0.49662 C 14.155688,241.95979 32.69829,226.70016 78.769352,205.88666 Z m 57.726711,12.93719 2.11718,4.1398 c 0.9666,0.18214 1.70181,0.35351 2.69441,0.53589 27.42237,5.03849 38.37957,8.1318 38.37957,8.1318 0,0 -18.56185,-8.93495 -39.05136,-12.19254 -1.36104,-0.21639 -2.75665,-0.40362 -4.1398,-0.61495 z m -64.817234,6.02134 c 0,0 7.108204,2.29781 18.819523,5.52576 l -3.507279,-3.33003 c -7.953075,-1.16272 -15.312244,-2.19573 -15.312244,-2.19573 z m 49.670874,7.7339 -1.00614,5.27409 c 1.63315,0.37115 3.30474,0.74319 5.00331,1.11673 l -2.4815,-6.12831 c -0.50669,-0.09 -1.00784,-0.17326 -1.51567,-0.26251 z m -71.971838,5.55728 c 0,0 16.325028,5.40381 42.624271,11.61686 l 2.856674,-4.60747 c -22.948829,-3.92609 -45.480945,-7.00939 -45.480945,-7.00939 z m 96.085608,0.0134 1.68982,5.72213 c 21.60305,5.03292 31.2043,8.08478 31.2043,8.08478 0,0 -14.29493,-7.95439 -32.89412,-13.80691 z m -28.66802,11.41274 -1.71049,5.20175 -0.14934,0.16588 c 28.61202,6.35869 41.11997,10.3172 41.11997,10.3172 0,0 -17.63601,-9.84886 -39.26014,-15.68483 z" /></g><rect
       style="fill:#000000;fill-opacity:1;stroke-width:0.233478;stroke-dasharray:0.700439, 0.700439"
       id="rect5-5"
       width="391.38644"
       height="4.2386951"
       x="-200.9933"
       y="372.08563"
       ry="0" /><text
       xml:space="preserve"
       style="font-size:74.3623px;text-align:center;text-anchor:middle;display:inline;fill:#000000;fill-opacity:1;stroke-width:2.85435;stroke-dasharray:8.56303, 8.56303"
       x="-4.7985954"
       y="49.575619"
       id="text5-4"><tspan
         sodipodi:role="line"
         style="font-style:normal;font-variant:normal;font-weight:normal;font-stretch:normal;font-family:Carlito;-inkscape-font-specification:Carlito;stroke-width:2.85435"
         x="-4.7986002"
         y="49.575619"
         id="tspan2">NBIS SYSDEV</tspan></text><text
       xml:space="preserve"
       style="font-size:75.4628px;text-align:center;text-anchor:middle;display:inline;fill:#000000;fill-opacity:1;stroke-width:2.85435;stroke-dasharray:8.56303, 8.56303"
       x="-2.0316935"
       y="366.23267"
       id="text3"><tspan
         sodipodi:role="line"
         style="font-style:normal;font-variant:normal;font-weight:normal;font-stretch:normal;font-family:Carlito;-inkscape-font-specification:Carlito;stroke-width:2.85435"
         x="-2.0316935"
         y="366.23267"
         id="tspan3">HACKATHON</tspan></text><path
       id="path1-5"
       style="display:inline;fill:#000000;fill-opacity:1;stroke:#000000;stroke-width:0.199999;stroke-opacity:1"
       d="m -152.48672,86.860816 v 4.88e-4 c -1.53525,-0.01452 -2.82169,0.219775 -3.53885,0.800769 -1.43433,1.162011 -4.13497,3.334194 -5.0169,4.368081 -0.88194,1.033898 0.26,3.146187 0.26,3.146187 l -0.99276,0.66184 0.91703,1.3565 5.29187,1.774242 c 0,0 -3.16425,0.589622 -4.30778,0.794017 -1.14353,0.204406 -1.4119,1.55436 -1.67826,2.33141 -0.26637,0.77706 0.50181,3.22518 1.98023,3.88425 1.47842,0.65906 4.7094,2.05354 8.23593,3.21853 3.5265,1.16498 3.56871,2.71504 4.82008,4.84421 1.25139,2.12915 2.75239,6.33236 4.45009,7.84952 1.6977,1.51717 5.40741,1.64554 7.52343,1.29812 2.11604,-0.3474 1.33912,1.40956 1.33912,1.40956 l 5.07383,-2.64882 0.41921,0.63868 c 0.22571,0.34422 1.25985,-0.39943 2.44428,-1.24747 l 0.17029,1.836 2.29765,-1.89968 0.2547,3.86833 1.5398,-1.62278 c 0,0 0.18516,2.36759 0.27883,3.98844 0.0936,1.62086 -0.002,4.32317 -1.54945,6.02945 -1.18259,1.30385 -2.7544,2.99681 -3.4443,4.33528 -0.628,0.69757 -1.22171,1.30511 -1.55765,1.50797 -0.97097,0.58634 -2.02869,1.79025 -2.45056,2.25229 -0.42189,0.46208 -3.19877,1.384 -3.19877,1.384 l 2.45298,0.0603 -3.87893,1.50026 1.86783,0.0685 c 0,0 -2.37351,0.78887 -3.01401,1.02798 -0.64048,0.23905 -2.88713,1.72891 -2.88713,1.72891 l -2.47323,-0.6411 c 0,0 1.24786,0.73356 0.59576,0.91316 l -0.65268,0.17946 -1.01062,-1.74145 -0.0502,2.15293 -1.23156,0.055 -1.38157,-0.0478 c -0.0447,-0.0282 -0.10698,-0.078 -0.15341,-0.10854 l 0.78582,-0.38688 -1.79981,-0.33286 c -0.18597,-0.14602 -0.29997,-0.201 -0.50844,-0.37482 l 2.02123,-0.33768 -3.87025,-1.36035 c -0.59474,-0.54665 -1.03467,-0.90606 -1.78052,-1.63435 -5.35911,-5.233 -8.24834,-6.99333 -9.81432,-10.52922 l 0.88278,-0.36422 -1.15968,-0.37192 c -0.11585,-0.31393 -0.23649,-0.61902 -0.33574,-0.96517 l 0.79595,-0.23251 -1.07188,-1.20165 c -0.0497,-0.39785 -0.0697,-0.77253 -0.068,-1.13748 0.50045,0.38562 0.91655,0.72069 0.91655,0.72069 l -0.82104,-2.11723 c 0.0247,-0.16452 0.045,-0.33351 0.0752,-0.49011 0.34214,0.72178 0.65654,1.40521 0.65654,1.40521 0,0 0.48439,-2.00837 0.31935,-2.55234 -0.0813,-0.26792 -0.21821,-0.71883 -0.39653,-1.30778 0.18744,-0.9174 0.14226,-1.60534 -0.66377,-2.10468 -0.41919,-0.25968 -0.88624,-0.43647 -1.37338,-0.59865 -0.0815,-0.75192 -0.24037,-1.9846 -0.452,-2.42356 -0.31119,-0.64542 -3.70888,-3.7062 -4.16404,-4.0936 -0.45515,-0.38742 -0.68605,1.13932 -0.60589,2.69899 0.018,0.35079 0.0268,0.77836 0.0309,1.22384 -0.61689,-0.57682 -1.23751,-1.26821 -1.85528,-2.22288 -0.96222,-1.48694 -2.07762,-2.82878 -3.18381,-4.06416 0.0704,0.58356 0.10362,1.29635 -0.005,2.03039 -0.25266,1.70296 0.46784,4.36897 0.70478,7.48242 0.23694,3.11348 0.58548,9.62215 0.63242,11.52924 0.0258,1.04915 -0.13672,1.8125 -0.28847,2.29668 1.84199,2.62678 3.75118,5.30889 4.48289,6.31454 1.03846,1.42718 4.16046,4.4444 6.77909,7.06178 -2.21719,0.32277 -3.41939,-2.54273 -5.41199,-4.58757 -0.47611,-0.48859 -0.92711,-0.76057 -1.36903,-0.91076 -0.82745,-1.44283 -2.89533,-4.0391 -2.89533,-4.0391 0,0 -4.52922,-3.81257 -6.99665,-4.38737 -0.92528,-0.21553 -1.68969,-0.28457 -2.28366,-0.28607 -0.98993,-0.003 -1.50652,0.18187 -1.50652,0.18187 0,0 0.8591,3.497 1.42066,4.50364 0.56157,1.00663 2.0642,2.29592 2.58418,2.61264 0.51997,0.31673 3.99423,2.7593 3.99423,2.7593 0.0822,0.0883 0.16429,0.17007 0.24651,0.24987 -0.4029,0.23669 -0.82682,0.57133 -1.25761,0.93151 -1.53404,-1.16831 -3.7001,-2.7515 -4.86977,-3.24893 -0.93944,-0.39949 -2.54232,-0.50472 -4.00918,-0.50361 -1.46684,9e-4 -2.79836,0.10827 -3.19442,0.13458 -0.79209,0.0525 0.27781,1.47332 0.75591,2.37917 0.25082,0.4752 2.118,1.85086 3.84228,3.0579 -1.29684,-0.13043 -2.36229,-0.19309 -2.56731,-0.29522 -0.69596,-0.34677 -4.53065,-0.98988 -4.53065,-0.98988 l -0.0921,2.13075 3.51618,4.22962 4.37435,1.99905 c -0.19969,0.5623 -0.37178,1.15441 -0.47613,1.70767 -0.67391,-0.34342 -1.66576,-0.82628 -2.15727,-0.93102 -0.76509,-0.16306 -4.13749,-0.4081 -4.13749,-0.4081 l -0.20646,1.62036 4.26484,3.35361 1.63291,0.49301 c -0.0976,2.5912 3.0593,2.7783 4.14618,3.13893 0.7723,0.25625 4.47532,0.67377 7.88619,1.54801 l -0.68403,0.67728 2.04245,-0.3425 c 0.26489,0.0823 0.50156,0.18129 0.75495,0.2711 l -0.99518,0.60204 2.07719,0.46599 1.6059,0.2055 c 0.31614,0.20337 0.62424,0.38237 0.93439,0.57405 -1.30009,0.14499 -3.3782,0.23638 -3.3782,0.23638 l 4.18476,0.25904 c 0.13657,0.0801 0.2765,0.17558 0.41342,0.25325 -0.46691,0.0824 -1.09911,0.20288 -2.0193,0.3946 -2.91251,0.6069 -0.18143,0.0425 4.3618,0.76315 1.88016,0.81357 3.98732,1.41961 6.79405,1.74096 5.30882,0.60783 11.51895,0.76101 17.67397,2.74242 1.03181,0.33216 2.16389,0.64127 3.27449,0.96528 l -0.89532,1.17655 5.82491,0.2769 c 1.18755,0.34706 2.23456,0.69984 3.27546,1.0439 -0.87689,0.51853 -2.7043,1.11095 -2.7043,1.11095 l 4.2195,-0.59432 c 0.0527,0.0193 0.11995,0.0395 0.17174,0.0589 l -1.8934,2.17174 3.10517,-0.29427 -0.11047,3.12593 2.77184,-1.52052 2.40281,-0.66474 c 2.40297,-0.66464 -1.39219,1.59431 -1.39219,1.59431 l 3.50893,-1.52388 0.45346,1.4192 1.37819,-1.36662 c 0.004,7.8e-4 0.007,9.4e-4 0.01,9.4e-4 l 0.0748,-0.0159 c 0.40726,2.77455 0.81657,4.98397 1.19635,5.76461 1.70471,3.5046 3.52727,4.34161 4.73857,5.69177 0.68518,0.76372 1.41438,2.14703 2.19586,3.78728 l 0.73854,3.19056 0.452,-0.60781 c 0.16722,0.36881 0.31152,0.67109 0.48674,1.05596 l 0.43849,3.96818 0.70285,-0.9262 c 0,0 0.89784,5.09855 0.97588,6.30875 0.07782,1.21022 -0.0357,4.04971 -0.0357,4.04971 l 0.752063,-1.32225 c 0,0 1.406465,6.89511 1.122048,9.46795 -0.284416,2.57275 -1.054513,5.5432 -1.054513,5.5432 l 1.262908,-0.8326 0.312597,1.21804 c -0.497548,1.43716 -0.966135,2.56745 -1.315009,2.93971 -0.824484,0.87967 -2.383034,2.76429 -3.623274,4.27788 l -1.3782,0.96286 -0.8852,1.42065 c -0.18793,0.0159 -0.40889,0.004 -0.57212,0.0414 -2.22453,0.49343 -2.88682,4.13895 -3.65316,7.05116 -0.55962,2.12649 1.27609,6.25352 2.64545,10.09073 l 0.58032,4.49591 c 0,0 0.18149,-0.69053 0.38351,-1.36806 0.0742,0.29771 0.16723,0.60892 0.22092,0.89147 0.0178,0.0941 0.0454,0.1586 0.0642,0.25085 l -0.35119,2.61264 -0.42305,1.88327 1.27642,-1.95612 -0.70623,5.20119 1.10227,-1.34346 -0.53498,3.76941 c 0,0 1.93662,-3.23561 1.35988,-0.66473 l -0.57695,2.5702 c 0,0 1.05162,0.74531 -0.0704,1.54945 -0.44675,0.32011 -1.00288,0.71315 -1.82587,1.29716 -2.08913,0.42023 -4.59861,1.03573 -6.60399,1.90063 -4.18378,1.80424 -4.51254,3.3808 -7.04151,4.21806 -2.529,0.83722 -3.75978,3.85096 -3.75978,3.85096 0,0 3.27217,-0.47794 4.31261,-0.11916 1.04041,0.35875 4.8996,0.62939 6.29042,0.55668 1.39084,-0.0727 6.92356,0.0108 11.71883,0.71443 4.795076,0.70378 9.048538,-0.89025 11.584694,-0.47371 2.049901,0.33669 6.990685,-0.73555 10.220004,-1.87941 l 1.435134,0.37917 2.683561,-0.55331 -1.346365,-1.24264 c 0.99063,-1.36009 -1.520477,-3.18612 -2.288005,-4.12497 -0.888909,-1.08753 -5.362711,0.0612 -9.582758,-4.07189 0,0 -0.342392,-0.66128 -0.478536,-0.91462 l 0.149053,0.14521 -1.369994,-2.55332 c -0.18055,-0.37024 -0.357155,-0.73104 -0.543178,-1.13026 l 1.265324,-0.27158 -2.235415,-2.51954 2.221423,0.5832 -1.632907,-2.20453 -0.600092,-2.37532 c -0.599344,-2.37568 1.254215,1.17753 1.254215,1.17753 l -2.205989,-4.92864 0.203095,-2.4274 0.544143,1.5181 c 0,0 0.418415,-0.74451 1.411961,-2.60879 0.993567,-1.8643 0.922336,2.02268 0.922336,2.02268 l 1.771359,-5.53259 0.732746,-0.0994 0.128319,-1.05162 c 0.48737,-0.14588 0.988061,-0.0892 1.488189,0.18139 l 0.52485,2.15967 0.430782,-0.644 c 0,0 1.159442,3.1108 1.431264,4.52728 0.27179,1.41647 0.946452,3.20358 0.946452,3.20358 l 0.541249,-1.78293 c 0,0 1.537776,3.10102 1.851425,3.80078 0.313616,0.6998 1.133635,3.43562 1.133635,3.43562 l 0.634353,-2.50363 c 0,0 2.186154,2.84811 2.540285,3.68646 0.35412,0.83845 1.15244,1.98071 1.15244,1.98071 0,0 1.16523,-2.8805 1.682104,-3.10758 0.516894,-0.22709 1.543671,3.10132 1.543671,3.10132 l 2.302952,-1.04198 c 0.112906,1.33718 0.147947,2.95682 0.29377,4.61073 l -0.08151,2.66041 -1.364206,4.43369 0.945975,-0.22577 -0.41486,1.33335 c 0.387243,-1.14463 1.002455,-2.48923 0.750598,1.54945 -0.240412,3.85547 0.378073,3.28689 0.808497,2.50507 0.23689,2.03492 0.485561,2.22574 0.71973,4.13171 0.316434,2.57537 -2.2219,1.63887 -4.683562,3.94985 -2.46152,2.31094 -4.173246,3.95683 -6.100356,6.44478 -0.683572,0.88245 -0.570037,1.5416 0.02894,2.01545 -0.370064,0.73395 -0.721181,1.49784 -0.721181,1.49784 l 2.907389,-0.73131 c 1.291273,0.18788 2.915563,0.18171 4.591433,-0.003 0.0246,-0.003 0.05213,0.004 0.07674,0.003 0.02807,0.0808 0.05148,0.16011 0.08346,0.24119 0.256019,0.65065 1.643029,2.06369 1.643029,2.06369 0,0 2.020464,-0.64192 3.862058,-0.98988 0.408606,0.16545 0.805929,0.30503 1.223346,0.48046 -0.315057,0.16019 -0.658501,0.42945 -0.821027,0.88665 -0.340723,0.95843 -0.554277,2.32465 -0.554277,2.32465 0,0 3.342399,-0.84945 5.921399,-1.54172 1.566119,0.44631 3.156354,0.70086 4.748691,0.48769 5.822606,-0.77944 10.171563,-6.45167 12.979302,-10.50848 2.807913,-4.05695 -0.135938,-4.42526 -1.081046,-5.98893 -0.945119,-1.56369 -5.115932,-1.51103 -7.997136,-2.3179 -2.881171,-0.80688 -2.111736,-3.16999 -2.857218,-5.47084 -0.74547,-2.30075 0.565344,-6.39218 0.821992,-7.9624 0.157757,-0.96457 0.569202,-1.22188 0.917036,-1.31791 l 1.742886,2.22626 c 0,0 -0.03696,-0.81804 0.06026,-1.44622 0.536773,0.35432 0.736161,0.49604 1.679209,1.06609 0.556554,1.07285 0.654134,1.63194 0.654134,1.63194 l 1.380128,-0.46406 c 0.29209,0.16097 0.560086,0.30056 0.859623,0.45731 l 1.226735,1.84468 1.340567,-0.61457 c 0.01604,0.006 0.03295,0.0166 0.04921,0.0232 0.302192,0.12391 0.772232,0.23759 1.123013,0.35938 l 1.499765,1.4332 -0.101341,-0.98505 c 0.64776,0.19048 1.264251,0.3742 1.993248,0.55427 l 0.719263,0.49445 0.233475,-0.2793 c 0.514543,0.11912 1.01919,0.2386 1.554749,0.35118 0.918792,0.98647 2.185244,2.1731 2.273047,1.31983 l 0.08725,-0.85095 c 2.837134,0.52063 5.719064,0.94911 8.017886,1.17367 5.240201,0.51189 11.196176,-2.51103 13.724604,-3.29764 2.1897414,-0.68119 -1.861429,-1.91246 -4.533056,-3.01208 l 2.887121,-0.65364 c 0,0 -2.484964,-0.0336 -4.859158,-0.29522 -2.357134,-1.26314 -5.633048,-3.23962 -7.614591,-4.92478 -1.063444,-0.90444 -3.015071,-2.8912 -4.945032,-5.06611 1.129711,0.22631 3.270636,1.09649 3.270636,1.09649 0,0 -3.387954,-1.89822 -4.551385,-2.61939 -1.447121,-1.71586 -2.758336,-3.40223 -3.519079,-4.71397 1.000678,0.0419 2.477584,0.42981 2.477584,0.42981 0,0 -2.263011,-1.08246 -3.101803,-1.99711 0.144078,-0.86966 0.258469,-1.82384 0.356006,-2.81477 0.878407,0.51226 2.252302,2.26533 2.252302,2.26533 l -1.930546,-5.78875 c 0.108798,-1.22073 0.220978,-2.34448 0.374833,-3.07285 0.511334,-2.42077 3.727485,-7.6455 5.285594,-12.23593 l 0.797875,2.67391 -0.124449,-5.11097 c 0.162764,-0.82539 0.276808,-1.61195 0.427877,-2.4274 l 0.791123,3.00482 c 0,0 0.06655,-5.30305 -0.137,-7.03475 0.188993,-1.6369 0.280753,-3.2021 0.137488,-4.59626 0.0556,-0.16606 0.07284,-0.26828 0.122043,-0.42306 0.594175,0.62409 1.274733,1.24025 1.204054,0.63579 -0.05549,-0.47405 -0.261775,-2.18901 -0.499748,-3.9127 0.03999,-0.94346 -0.09917,-1.78887 -0.30488,-2.98071 -0.0827,-0.47938 -0.266338,-0.98401 -0.4906,-1.49687 -0.04054,-0.14256 -0.08172,-0.31408 -0.120591,-0.41052 -0.08931,-0.22163 -0.314949,-0.55533 -0.587075,-0.9262 -1.200055,-2.0231 -2.783862,-3.87566 -3.975419,-5.37725 l 1.932476,-0.0617 c 0,0 -1.929484,-0.90706 -3.205518,-1.73759 -0.719816,-1.20366 -1.651321,-3.11725 -2.640141,-5.23398 l 3.383033,1.863 c 0,0 -4.004998,-3.84442 -4.692731,-4.64835 -0.617196,-1.29775 -1.20115,-2.48885 -1.668598,-3.29861 -1.197692,-2.07472 -4.714604,-8.63131 -8.468921,-14.51574 1.062046,-0.51085 3.186697,2.14908 3.186697,2.14908 0,0 -0.752598,-1.51974 -1.242645,-2.37001 -0.418654,-0.72637 -3.885263,-4.42098 -5.459739,-5.7897 -1.009012,-2.02965 -1.924433,-3.81238 -2.731804,-5.31068 1.4188,0.57434 3.731322,1.86686 3.731322,1.86686 0,0 -4.400228,-3.54756 -5.543196,-4.70237 -0.747183,-0.75494 -1.813229,-1.69204 -2.761707,-2.42983 -0.615321,-0.61962 -1.111059,-1.20833 -1.12206,-1.68066 -0.0076,-0.33582 -0.291852,-1.32778 -0.695602,-2.59383 l 1.644482,2.15147 c 0,0 -0.301542,-1.94964 -0.617955,-2.82104 -0.239382,-0.6593 -1.867509,-3.46086 -3.229622,-5.72072 -0.817743,-2.28033 -1.514972,-4.20268 -2.049219,-5.67392 l 1.961903,1.15388 -3.815267,-4.85963 -0.03035,0.0337 c -1.437713,-1.49195 -3.473351,-2.29208 -4.68743,-3.95949 -1.336958,-1.8362 -5.174964,-5.24942 -8.784406,-7.92189 -0.670933,-1.15789 -1.336198,-2.3025 -1.937775,-3.2605 l 1.932475,0.54365 c 0,0 -2.371007,-2.63343 -3.229633,-2.75688 -0.08736,-0.0126 -0.246395,-0.0666 -0.414372,-0.12638 -0.131722,-0.13437 -0.273567,-0.31211 -0.395079,-0.40281 -1.105715,-0.82524 -3.109769,-1.55398 -5.14764,-2.19489 -0.0076,-0.003 -0.143753,-0.0714 -0.143753,-0.0714 l 1.286547,-0.49205 -5.061765,-0.60203 c -0.105569,-0.0307 -0.292481,-0.0872 -0.390256,-0.11625 l 3.403778,-0.9262 c 0,0 -4.056091,-0.49694 -5.224345,-0.5866 -0.720401,-0.96346 -1.375749,-2.22733 -2.017841,-3.49832 l 1.625179,0.0512 -1.219489,-1.4578 -1.900154,-1.3671 c -0.227937,-0.36561 -0.458356,-0.69952 -0.693684,-0.97975 -0.144176,-0.17165 -0.340705,-0.45566 -0.499755,-0.65991 l 2.899181,0.71829 c 0,0 -2.584831,-1.99202 -3.608311,-2.50845 -0.4455,-0.22479 -1.11384,-0.87784 -1.73324,-1.53354 -0.45042,-0.63133 -0.87864,-1.19373 -1.32562,-1.79209 l 0.89822,-0.3729 -2.16402,-1.27737 c -0.60816,-0.72479 -1.16457,-1.29571 -1.61988,-1.58661 -1.81037,-1.15663 -5.31052,-2.607676 -4.70577,-2.37289 0.60484,0.234776 5.47568,-2.824387 6.47664,-3.814779 1.00112,-0.990392 -3.1835,-2.310148 -6.00968,-2.652205 -2.82636,-0.342035 -6.51801,0.125187 -8.27114,-0.167392 -1.75313,-0.292589 -4.9094,-2.080054 -7.17321,-2.715882 -2.26379,-0.635816 -4.44907,-0.06232 -9.1626,-0.0098 -4.71308,0.05246 -8.18628,-1.584913 -11.6103,-2.411425 -1.71201,-0.413266 -3.49563,-0.676266 -5.03089,-0.69079 z m -29.78979,15.981734 c 0,0 -3.05949,1.51324 -3.50364,1.77328 -0.44416,0.26007 -1.74297,3.1029 -2.07961,3.34589 -0.33663,0.24298 -1.63675,0.49059 -1.63675,0.49059 0,0 -0.29503,1.22936 -0.26581,2.42934 0.0293,1.20001 0.95691,3.67451 1.27883,4.34928 0.32193,0.67477 -0.28992,1.62374 -0.28992,1.62374 l -0.97395,-0.10416 c 0,0 -0.9948,0.96527 -0.78872,1.98842 0.20608,1.02316 1.24853,2.81826 1.96383,4.0251 0.67461,1.13817 3.07122,1.69165 5.57503,1.76749 -0.0497,-0.92917 -0.24211,-4.60612 -0.20164,-6.33528 0.0457,-1.95482 0.21016,-5.4399 0.21853,-6.44238 0.008,-0.93444 0.44601,-4.48062 0.50941,-4.99181 -0.23183,-0.0455 -0.46543,-0.0917 -0.52677,-0.18863 -0.31788,-0.5024 0.72118,-3.73083 0.72118,-3.73083 z m 67.53909,51.63213 c 0.0119,0.12688 0.36406,3.97775 0.50554,5.6884 -1.85385,-0.32443 -3.57601,-0.52837 -4.93006,-0.49927 -2.77843,0.0596 -4.90724,-0.36691 -6.98314,-0.94598 l 2.31067,-1.02123 0.52436,0.78293 c 0.52506,0.78264 2.20888,-1.90353 2.20888,-1.90353 l 0.33816,1.57164 2.54945,-1.52871 1.96673,-1.31693 c 1.96664,-1.31625 0.13314,0.87892 0.13314,0.87892 z" /><path
       style="display:inline;fill:#000000;fill-opacity:1;stroke:#000000;stroke-width:0.199999;stroke-opacity:1"
       d="m -157.89331,98.883731 -4.81128,-1.565674 c 0,0 -5.37791,-1.18461 -6.35707,-0.660063 -0.97916,0.524536 -1.78999,2.510707 -1.80589,4.505496 -0.0159,1.99478 0.57556,3.19596 0.57556,3.19596 0,0 0.0646,-6.061558 1.89205,-6.16627 1.82743,-0.104702 6.11053,1.518287 6.11053,1.518287 z"
       id="path8" /><path
       style="display:inline;fill:#000000;fill-opacity:1;stroke:#000000;stroke-width:0.199999;stroke-opacity:1"
       d="m -171.34839,304.52158 c 0,0 0.5828,-7.19318 0.72294,-9.98481 0.14013,-2.79162 0.40269,-7.04932 0.40269,-8.46429 0,-1.41499 0.55683,-0.95665 0.3355,-2.46233 -0.22134,-1.50562 0.66317,-3.42634 0.46945,-4.87595 -0.19372,-1.4496 -0.44431,-3.27923 -0.44431,-6.34329 0,-3.06406 0.54241,-8.47914 0.33262,-9.74493 -0.20979,-1.26577 -0.41092,-2.20714 -0.27945,-3.93168 0.13149,-1.72451 -0.0313,-2.05714 -0.16116,-5.155 -0.12983,-3.09785 -0.54571,-10.49302 -0.38826,-12.56044 0.15745,-2.06745 -0.48471,-7.44298 -0.20072,-9.16954 0.28398,-1.72659 0.0359,-3.11107 0.16033,-5.52268 0.12447,-2.41157 0.16899,-5.9752 0.18547,-7.11361 0.0165,-1.13842 -0.15703,-6.50609 -0.12075,-7.91777 0.0363,-1.41169 0.47028,-7.02421 0.25472,-8.31594 -0.21557,-1.29174 -0.47359,-6.43974 -0.48388,-8.38436 -0.01,-1.94462 -0.42701,-8.76725 -0.43319,-10.45838 -0.007,-1.69111 -0.11459,-6.8651 -0.12901,-8.18527 -0.0144,-1.32019 -0.27285,-6.12649 -0.27285,-6.78679 0,-0.66029 -0.24812,-1.92319 -0.24812,-1.92319 0,0 -5.67346,-0.901 -6.67214,-1.35025 -0.99867,-0.44926 -4.09074,-2.63377 -4.09074,-2.63377 0,0 0.39568,7.15443 0.21351,8.82538 -0.18218,1.67093 -0.31737,8.12057 -0.0569,10.15093 0.26049,2.03031 0.59599,7.77225 0.39733,10.5684 -0.19866,2.79616 0.0885,9.2932 0.58898,12.36137 0.50038,3.06821 -0.63432,4.43291 -0.63432,6.57207 0,2.13914 0.003,3.41316 -0.0948,6.84407 -0.0981,3.4309 -0.58198,6.40839 -0.30582,11.2283 0.27615,4.81992 0.14178,10.76174 0.12488,13.32751 -0.0169,2.56576 0.30129,12.44504 0.32644,14.89127 0.0251,2.44622 -0.29965,6.84778 0.10383,8.99355 0.40352,2.14575 0.26255,9.33519 0.26255,9.33519 0,0 -0.70192,9.00182 -0.80619,11.90017 -0.10427,2.89839 -0.0144,5.01201 -0.46163,10.39574 -0.4472,5.38376 -1.13386,8.29245 -0.78889,9.08423 0.34498,0.79177 2.79448,1.77274 5.59679,1.8259 2.80232,0.0532 5.56094,-1.56625 6.45245,-2.6288 0.89152,-1.06257 0.14262,-2.39101 0.14262,-2.39101 z"
       id="path9" /><path
       id="path10"
       style="display:inline;fill:#000000;fill-opacity:1;stroke:#000000;stroke-width:0.199999;stroke-opacity:1"
       d="m -175.90569,84.961983 c -2.40373,-0.0168 -3.7749,1.786339 -3.7749,1.786339 0,0 -0.2692,5.174595 -0.37633,7.733685 -0.10709,2.55909 -0.3076,1.238987 -0.42786,3.473004 -0.12029,2.234029 0.0451,3.484099 -0.006,4.499399 -0.0514,1.0153 -0.36563,3.05196 -0.36563,3.05196 0,0 -0.55139,-1.33506 -0.68847,-1.60207 -0.13707,-0.26701 0.3209,-1.32152 0.3209,-1.32152 l -1.17323,-1.24811 c 0,0 -0.17423,-0.17787 -1.84127,0.1405 -1.66702,0.3184 -1.27823,1.34973 -1.27823,1.34973 l 0.82801,0.55914 c 0,0 1.30844,-1.27887 2.11499,-0.68701 0.80656,0.59185 0.24049,1.38494 0.23776,2.28228 -0.001,0.42669 0.32916,0.66326 0.76675,0.80662 0.0918,0.48444 0.27087,1.55826 0.21782,2.32895 -0.0704,1.02317 -0.37393,2.93409 -0.50663,4.17072 -0.13269,1.23666 -0.61352,3.98124 -0.52997,4.92484 0.0836,0.94359 0.41375,3.29881 0.40599,4.65402 -0.008,1.35522 -0.46123,3.03575 -0.39578,3.60672 0.001,0.0119 0.0188,0.0398 0.0248,0.0565 l -0.0428,-0.0237 c 0,0 0.0355,5.90232 0.0355,6.3723 0,0.46999 -1.30011,2.99118 -0.83773,4.00831 0.46236,1.01715 0.64178,1.76804 0.64178,3.12247 0,1.35441 -0.25574,2.71987 -0.25574,2.71987 l 3.00768,-0.0258 c 0,0 -0.22916,-1.07676 -0.51782,-2.39848 -0.28867,-1.3217 -0.86593,-4.04041 -0.86593,-4.04041 0,0 2.43037,-0.81755 4.31994,-0.40793 1.88958,0.40963 4.98605,2.70772 4.98605,2.70772 l 0.0364,-1.14649 c 0,0 -0.1673,-0.1671 -0.25818,-0.25722 0.0303,-0.45265 0.0785,-1.23831 0.0904,-2.18162 0.0162,-1.28997 0.17947,-5.16848 -0.0229,-6.94068 -0.20233,-1.7722 -0.53462,-7.73848 -0.80419,-9.18064 -0.26957,-1.44215 -0.12732,-3.81296 0.0481,-5.14509 0.11519,-0.87444 0.20471,-1.80994 0.26595,-2.48454 0.0119,0.0133 0.0232,0.0254 0.035,0.0393 0,0 0.42659,-2.64609 0.49594,-4.27235 0.10036,-2.35516 0.93067,-6.026484 0.94956,-7.961235 0.019,-1.934752 0.21645,-3.148279 -0.002,-4.575728 -0.21841,-1.427449 0.51011,-5.104199 0.39285,-5.935186 -0.11727,-0.830999 -0.52244,-1.372682 -3.81089,-2.338676 -0.51382,-0.150939 -0.99452,-0.216643 -1.43965,-0.219775 z" /><path
       id="path14"
       style="display:inline;fill:#000000;fill-opacity:1;stroke:#000000;stroke-width:0.199999;stroke-opacity:1"
       d="m -77.849817,267.81749 5.744047,8.96023 -8.438425,-5.87643 4.362727,5.37481 -4.548382,-1.12689 c 0,0 4.577018,6.4342 2.990718,6.79902 -1.586322,0.36487 -24.191008,3.52522 -27.374578,3.60769 -3.18359,0.0824 -19.62862,-0.0941 -19.62862,-0.0941 l -4.16932,-0.0802 5.75543,-8.57288 -8.20208,7.31568 -0.62317,-5.20619 -2.25997,5.43375 -3.9402,-6.91852 0.46026,7.49152 c 0,0 -0.31813,-0.94518 -6.60355,0.0931 -6.28543,1.03834 -13.82976,-0.0471 -13.82976,-0.0471 l 4.87781,2.02983 -14.41622,5.27965 -14.64324,5.98813 -7.92799,-26.14685 5.3903,26.87449 -9.1888,-14.68464 6.36979,14.78858 -9.87352,-4.68025 8.27345,6.20999 -6.67803,-1.47853 9.1371,10.70149 0.9526,1.49147 h 165.841283 l 0.08432,0.10859 8.30499,-0.0894 v -29.41575 l -7.613041,-1.84208 -0.968638,1.15943 c -0.587671,-0.042 -23.457228,-1.68349 -25.132195,-2.33907 -1.696475,-0.66402 -6.775744,-3.19086 -6.775744,-3.19086 l 2.967436,3.83728 -5.810249,-1.10412 c 0,0 -3.403854,-0.22572 -6.815588,-0.66403 -0.435171,2.40965 -1.799474,4.80852 -2.157551,5.40688 5.729859,6.43302 12.795581,15.09337 11.701127,17.63808 -1.802303,4.19058 -4.10998,5.50644 -7.836435,5.88367 -3.726445,0.37727 -5.503082,0.94877 -7.580471,-0.0289 -2.077399,-0.97779 -0.757859,-1.59513 -1.675069,-1.96365 -0.917187,-0.36848 -2.767842,0.0798 -4.603702,-1.42784 -1.835871,-1.50754 -4.729452,0.3537 -6.307743,0.4763 -1.578258,0.12255 -1.805392,-2.25274 -1.805392,-2.25274 0,0 5.346572,-6.70436 6.345504,-8.41256 0.998933,-1.70818 6.804207,-3.57613 6.804207,-3.57613 l 0.559046,-2.37683 -2.462181,-6.77629 v -4.58975 c 0,0 0.358098,0.37872 0.397171,0.4189 l 0.109633,-1.53441 c -3.00199,-2.55905 -7.539078,-6.87143 -7.539078,-6.87143 z" /><rect
       style="fill:#000000;fill-opacity:1;stroke-width:0.23348;stroke-dasharray:0.700439, 0.700439"
       id="rect6-5"
       width="191.18791"
       height="4.2419004"
       x="-200.9126"
       y="54.559277"
       ry="0" /><path
       id="rect1-6"
       style="fill:#000000;fill-opacity:1;stroke-width:0.147916;stroke-dasharray:0.44375, 0.44375"
       d="m -200.91282,307.31442 v 4.24237 h 65.30859 l 8.8156,-4.24237 z m 76.60248,0 0.13282,0.0912 v -0.0912 z" /><path
       id="path3"
       style="display:inline;fill:#000000;fill-opacity:0.310843;stroke-width:0.2;stroke-dasharray:0.600001, 0.600001"
       d="M -195.78491 59.950439 C -193.83554 64.638889 -189.47552 73.353587 -180.53623 83.956726 C -180.02228 83.695243 -179.44945 83.39707 -179.11099 83.236357 C -177.75909 82.594438 -174.38127 82.096453 -171.89851 82.742847 C -184.74445 72.495598 -191.51977 64.393607 -194.72399 59.950439 L -195.78491 59.950439 z M -130.96044 59.950439 C -125.66833 60.916747 -120.12528 61.884536 -114.08085 62.821065 C -78.431616 68.3446 -63.777463 72.458203 -63.777463 72.458203 C -63.777463 72.458203 -78.131283 65.100769 -96.282973 59.950439 L -130.96044 59.950439 z M -41.083241 59.950439 C -54.876004 70.305384 -74.526618 82.418108 -102.34358 94.842367 L -100.76849 97.110445 L -106.12165 100.15419 C -106.12165 100.15419 -104.67059 99.243646 -102.21904 102.51942 C -100.90764 104.27174 -100.22884 105.89019 -99.413014 107.36977 C -96.598724 105.98571 -93.864317 104.6089 -90.840927 103.20413 C -60.735369 89.216118 -41.724634 73.348073 -29.853952 59.950439 L -41.083241 59.950439 z M -183.54483 69.435132 C -183.54483 69.435132 -161.51494 74.218834 -129.26701 77.352995 C -97.019008 80.487145 -83.360247 83.401721 -83.360247 83.401721 C -83.360247 83.401721 -109.13845 72.77824 -132.87092 71.216935 C -156.60341 69.65559 -183.54483 69.435132 -183.54483 69.435132 z M -169.15449 84.908606 C -169.11719 85.024482 -169.06915 85.133178 -169.04649 85.258972 C -168.37779 88.969605 -170.06899 91.5721 -168.16024 93.27347 C -166.25148 94.974841 -163.48741 96.146478 -163.45355 94.573132 C -163.42745 93.361062 -163.67832 91.617786 -162.30892 89.940857 C -164.73781 88.221538 -167.03236 86.539471 -169.15449 84.908606 z M -167.90547 85.405216 C -167.90547 85.405216 -164.58421 86.269652 -159.63414 87.379256 C -159.44177 86.90911 -159.45627 86.479953 -159.49203 86.064608 C -163.88645 85.706705 -167.90547 85.405216 -167.90547 85.405216 z M -146.62564 121.39785 C -150.97566 125.11217 -154.77102 128.91291 -157.90712 132.79095 C -154.41987 135.78795 -151.62947 139.60332 -149.83836 141.56923 C -145.73274 136.59044 -140.0266 131.55244 -132.72054 126.41512 C -133.30507 126.36422 -133.79337 126.31705 -134.49821 126.25595 C -139.1623 125.85134 -144.20332 123.34932 -146.62564 121.39785 z M -148.98363 142.48184 C -148.97763 142.48884 -148.97071 142.49392 -148.96451 142.49992 C -148.85775 142.53552 -145.39844 143.6381 -140.12164 145.19588 C -139.39974 144.95766 -138.63645 144.66856 -137.77398 144.3241 C -143.24191 143.41857 -148.93601 142.48931 -148.98363 142.48184 z M -59.064056 150.22968 L -55.66323 162.35246 C -55.482583 162.52509 -55.430718 162.6246 -55.27824 162.7793 L -47.450294 168.41514 L -48.395456 171.81545 L -48.337579 172.29862 C -45.608792 176.09557 -42.857834 179.96471 -42.26198 181.1234 C -41.832512 181.95859 -40.727609 183.72996 -39.450266 185.74483 C -39.804341 173.44688 -46.821574 161.45628 -59.064056 150.22968 z M -166.54587 173.17092 C -159.97502 190.60844 -139.57791 208.25767 -101.94723 224.78431 C -100.8795 220.38006 -99.77936 215.32947 -103.07739 209.61417 C -128.05432 197.76119 -144.39188 186.53663 -152.17775 175.50204 C -155.93111 175.48364 -159.71053 175.19077 -162.12908 173.98482 C -163.06375 173.51877 -164.69026 173.31544 -166.54587 173.17092 z M -147.18374 175.41264 C -147.84311 175.43634 -148.42514 175.4538 -149.12626 175.4731 C -146.7288 176.18921 -140.74254 177.85589 -131.45809 180.20201 C -133.68991 178.82184 -136.00892 177.55183 -137.88715 176.65804 C -142.58593 176.01897 -145.50107 175.62882 -147.18374 175.41316 L -147.18374 175.41264 z M -126.79739 195.13134 C -126.79739 195.13134 -119.77028 197.07786 -108.29671 199.5352 C -108.53061 198.77155 -108.72622 198.04229 -108.91424 197.3343 C -118.72297 196.04985 -126.79739 195.13134 -126.79739 195.13134 z M -110.08213 238.24085 C -111.38667 238.83788 -112.57942 239.42582 -113.92789 240.02627 C -138.34536 250.89867 -155.40546 260.98228 -167.58508 269.92987 L -167.70962 281.9219 C -154.93517 273.87282 -136.68133 264.15035 -110.37307 252.91127 C -111.46829 248.84592 -112.25104 245.64972 -112.07891 242.06852 C -112.01461 240.73139 -111.18288 239.48466 -110.08213 238.24085 z M -32.36646 250.3042 L -32.34424 257.34356 L -25.145196 266.64377 C -24.807366 266.91796 -24.489898 267.18327 -24.168511 267.45044 C -23.148564 267.96305 -18.302182 270.38368 -14.013059 272.1871 C -16.609125 266.77428 -21.877971 259.29306 -32.36646 250.3042 z M -87.418397 254.78403 L -88.68757 256.82473 C -87.287449 257.14357 -85.939674 257.45198 -84.395843 257.79108 C -84.65842 257.01369 -84.935005 256.06489 -85.188042 255.08013 C -85.939008 254.98063 -86.689576 254.87931 -87.418397 254.78403 z M -131.52578 263.62845 C -131.52578 263.62845 -122.46223 266.49699 -108.08587 270.30969 C -108.10797 269.51154 -108.15204 268.46171 -108.21299 266.99878 C -121.42348 265.00219 -131.52578 263.62845 -131.52578 263.62845 z M -40.073484 263.96693 C -41.293575 264.56604 -42.583227 265.15737 -43.976088 265.76888 C -40.133375 266.55074 -38.29158 266.99958 -35.598821 267.59565 L -36.30007 265.3069 C -37.543336 264.86051 -38.698333 264.42508 -40.073484 263.96693 z M -86.257228 270.53448 L -84.644923 276.11089 C -81.22922 276.88779 -77.741652 277.67028 -74.033685 278.45597 C -39.048357 285.86899 -25.068715 290.41958 -25.068715 290.41958 C -25.068715 290.41958 -48.750607 277.27439 -74.890997 272.48165 C -78.627806 271.79648 -82.444321 271.17995 -86.257228 270.53448 z M -153.78075 276.76201 C -153.78075 276.76201 -143.26441 280.11394 -126.51162 284.44733 C -125.93716 283.36693 -125.24102 282.20322 -124.37531 281.07493 C -140.54632 278.56248 -153.78075 276.76201 -153.78075 276.76201 z M -12.198699 276.84056 L -13.986187 277.62294 C -11.966984 280.32994 -11.480914 281.82268 -11.480914 281.82268 C -11.480914 281.82268 -11.279238 280.04428 -12.198699 276.84056 z M -105.8426 284.1259 L -119.01492 286.38778 C -112.2228 288.05644 -104.63949 289.82021 -96.289174 291.58953 C -61.303853 299.0026 -47.324204 303.55314 -47.324204 303.55314 C -47.324204 303.55314 -71.005019 290.40902 -97.145452 285.61625 C -100.00479 285.09199 -102.92471 284.62828 -105.8426 284.1259 z M -184.9003 285.02249 C -192.82419 293.6489 -195.51614 300.23183 -196.43397 304.15207 L -194.58447 304.15207 C -192.7986 301.69716 -189.69033 298.18043 -184.19905 293.6323 L -184.9003 285.02249 z " /><rect
       style="fill:#000000;fill-opacity:1;stroke-width:0.233478;stroke-dasharray:0.700439, 0.700439"
       id="rect3"
       width="391.38644"
       height="4.2386951"
       x="-200.9933"
       y="-7.3267717"
       ry="0" /></g></svg>
