<?xml version="1.0" encoding="UTF-8" standalone="no"?>
<!-- Created with Inkscape (http://www.inkscape.org/) -->

<svg
   width="428.09518mm"
   height="412.68939mm"
   viewBox="0 0 428.09518 412.68939"
   version="1.1"
   id="svg1"
   xml:space="preserve"
   inkscape:version="1.3.2 (091e20ef0f, 2023-11-25)"
   sodipodi:docname="hack3.svg"
   inkscape:export-filename="hack3.png"
   inkscape:export-xdpi="230"
   inkscape:export-ydpi="230"
   xmlns:inkscape="http://www.inkscape.org/namespaces/inkscape"
   xmlns:sodipodi="http://sodipodi.sourceforge.net/DTD/sodipodi-0.dtd"
   xmlns="http://www.w3.org/2000/svg"
   xmlns:svg="http://www.w3.org/2000/svg"><sodipodi:namedview
     id="namedview1"
     pagecolor="#ffffff"
     bordercolor="#000000"
     borderopacity="0.25"
     inkscape:showpageshadow="2"
     inkscape:pageopacity="0.0"
     inkscape:pagecheckerboard="0"
     inkscape:deskcolor="#d1d1d1"
     inkscape:document-units="mm"
     inkscape:zoom="0.22057454"
     inkscape:cx="1487.0257"
     inkscape:cy="999.66206"
     inkscape:window-width="2560"
     inkscape:window-height="1531"
     inkscape:window-x="0"
     inkscape:window-y="0"
     inkscape:window-maximized="1"
     inkscape:current-layer="layer3" /><defs
     id="defs1" /><g
     inkscape:label="Layer 1"
     inkscape:groupmode="layer"
     id="layer1"
     style="display:inline"
     transform="translate(216.33766,17.401945)" /><g
     inkscape:groupmode="layer"
     id="layer2"
     inkscape:label="Layer 2"
     style="display:none"
     transform="translate(216.33766,17.401945)"><path
       id="path1"
       style="fill:#000000;fill-opacity:1;stroke-width:0.2;stroke-dasharray:0.600001, 0.600001"
       d="m 113.2644,28.590503 c -3.87659,-7.93e-4 -2.42705,-0.02574 -6.78253,0.345715 -4.19755,0.605944 -4.41119,0.483121 -9.977166,0.288872 -5.56599,-0.194249 -9.658889,1.140812 -13.485482,1.726509 -3.826594,0.585703 -5.961034,1.632129 -8.885763,2.545581 -2.92473,0.913453 -10.664522,6.515103 -13.500984,9.02839 -2.836459,2.513281 -5.228249,5.848747 -6.754627,8.828401 -1.526378,2.979655 -2.509924,6.208924 -2.509924,6.208924 0,0 9.492982,-3.493133 13.884424,-4.325318 4.391438,-0.832188 9.217525,-0.708484 9.217525,-0.708484 0,0 -10.685876,2.419859 -13.500468,3.410128 -2.814591,0.990272 -8.348489,2.427939 -10.028328,3.400309 -1.679839,0.972367 -3.570325,3.311426 -3.570325,3.311426 0,0 2.436326,-0.89917 4.426603,-0.89917 1.990277,0 6.9992,2.13837 10.488249,4.227649 3.489043,2.089276 7.288325,5.17576 9.482108,6.821806 2.193784,1.646044 6.664193,3.320211 6.664193,3.320211 0,0 -3.3632,0.612589 -9.800952,-3.447335 -6.437752,-4.059924 -12.734817,-9.412144 -16.385046,-9.225277 -3.650233,0.186868 -5.77631,1.926204 -6.756694,4.489132 -0.980381,2.562928 -2.980152,7.599546 -1.547192,10.40815 1.432953,2.808604 3.6495,8.878814 7.12928,12.873116 3.479783,3.994302 7.059116,9.753372 9.023739,10.705292 1.964623,0.95191 2.503197,0.96748 4.044714,0.86816 1.541521,-0.0993 2.534639,-1.79458 3.57911,-2.07946 1.044474,-0.28488 2.367297,-0.57929 2.367297,-0.57929 0,0 -2.117837,1.0647 -3.208589,2.4014 -1.090753,1.33669 -2.712548,2.06475 -5.847705,1.83193 -3.135158,-0.23281 -7.867271,-6.824491 -10.317717,-9.37927 -2.450442,-2.554775 -3.334163,-4.167704 -3.334163,-4.167704 0,0 0.548356,3.311786 0.01292,6.788216 -0.535445,3.476438 -0.304837,11.727768 0.112138,16.078608 0.416973,4.3508 3.757323,9.75955 3.766695,16.43207 0.0094,6.67253 1.44377,2.95765 0.173633,8.29562 -1.270137,5.33794 0.178833,5.75467 -0.510047,9.57822 -0.688874,3.82357 -0.59215,8.97635 -1.567346,13.35371 -0.975195,4.3774 -0.461349,7.54027 -1.883606,12.51293 -1.422257,4.97268 -2.307863,7.11241 -3.140377,8.65425 -0.832516,1.54187 -2.708362,4.99143 -2.708362,4.99143 l 127.166915,0.35088 c 0,0 -1.21564,-2.73177 -4.2106,-6.9143 -2.99493,-4.18256 -1.02438,-5.11607 -5.45961,-8.90592 -4.43526,-3.78985 -4.85071,-4.25959 -7.75043,-8.17883 -2.89975,-3.9192 -4.9988,-7.34246 -7.4843,-10.28516 -2.4855,-2.94271 -6.84336,-3.04792 -7.89719,-7.51685 -1.05384,-4.46895 -2.39391,-6.01951 -0.85731,-11.14971 1.53657,-5.13017 0.17431,-11.07563 3.22254,-12.75168 3.0482,-1.67603 0.48607,-3.67891 4.38061,-5.66993 3.8945,-1.99105 5.40052,-6.04681 8.02432,-7.44709 2.62376,-1.40031 3.0512,-0.69275 10.42416,-3.08767 7.37299,-2.39491 8.0684,-2.10048 9.55756,-3.82354 1.48915,-1.72306 5.46397,-3.87361 5.46323,-5.731951 -7.9e-4,-1.858337 0.0641,-3.630786 0.0641,-3.630786 0,0 -0.21668,2.202976 -4.55941,1.683102 -4.34275,-0.519877 -4.73405,-1.100465 -8.16798,0.502811 -3.43395,1.603275 -4.05332,3.570049 -10.05261,2.521294 -5.99932,-1.048758 -6.92979,-3.397896 -11.77965,-2.971395 -4.84983,0.426497 -11.25461,0.973584 -11.25461,0.973584 0,0 9.29985,-3.728599 13.00903,-2.957443 3.70917,0.77116 8.29631,3.474389 12.40079,3.355351 4.10452,-0.119039 8.07509,-4.149221 10.17096,-4.004407 2.09587,0.144814 5.31942,1.689108 7.10809,1.275892 1.78866,-0.413218 2.94312,-0.863276 4.39767,-1.254187 1.45453,-0.390911 0.88414,0.431235 -3.56413,-1.086756 -4.44828,-1.517991 -4.70968,-3.080561 -5.16661,-4.393013 -0.45693,-1.312452 -0.57722,-5.113383 -0.57722,-5.113383 0,0 0.77741,5.194572 2.312,6.047176 1.53459,0.852604 4.79016,2.609009 6.92413,2.7373 2.13393,0.128294 4.11839,1.331745 7.12979,0.11989 3.01144,-1.211855 4.71883,-2.959335 4.78627,-4.662248 0.0674,-1.702911 -0.23977,-5.623429 -0.23977,-5.623429 0,0 1.00965,-0.39623 1.11414,-1.977657 0.1045,-1.58143 -1.23901,-3.630046 -1.38493,-4.505152 -0.14592,-0.875107 -4.46593,-4.317618 -7.62744,-6.132442 -3.16152,-1.814824 -11.21592,-7.577446 -13.08034,-9.259383 -1.86442,-1.681937 -4.55525,-3.975402 -5.77639,-5.650301 -1.22115,-1.674899 -0.85266,-2.757971 -0.85266,-2.757971 0,0 -0.20663,-0.123269 -1.13172,-2.0283 -0.92506,-1.905033 0.97837,-2.246615 -1.5291,-6.096269 -2.50747,-3.849655 -3.85982,-6.064019 -5.61723,-6.605798 -1.75741,-0.541782 -3.30144,0.950917 -4.96714,0.4408 -1.66571,-0.510116 -0.22096,0.702268 -6.89984,-1.179257 -6.67884,-1.881528 -12.80667,-3.485284 -17.69814,-4.383195 -4.89145,-0.897914 -6.56255,-1.186799 -10.43916,-1.187524 z m 20.73362,14.64045 c 0.2445,-0.0339 0.52791,0.0012 0.90124,0.145728 1.49332,0.578174 6.4679,4.625529 8.08943,4.855 1.62153,0.229473 -0.22118,-4.316532 -0.22118,-4.316532 l 3.36259,7.179407 c 0.46761,1.389728 0.15089,0.927802 0.15089,1.920813 0,0.993011 1.98886,3.578864 4.42971,6.153629 2.44083,2.574768 1.96104,2.909896 0.71623,5.174361 -1.24156,2.258543 -3.90367,3.945202 -5.20433,4.310332 -1.30066,0.365126 0.63651,-2.310956 0.0146,-3.96596 -0.62194,-1.655007 -2.30321,1.414378 -3.00664,3.325689 -0.70343,1.911312 -3.95739,3.574645 -6.28127,4.858618 -2.32385,1.283972 -1.32734,-0.416392 -2.53162,-1.148767 -1.2043,-0.732377 -1.63114,2.155856 -4.58991,3.345532 -2.95876,1.189673 -7.26034,-0.597378 -8.82426,-3.15743 -1.56393,-2.560056 -5.37223,-4.281316 -7.41712,-4.514453 -4.53483,-1.137821 -2.97033,-0.920981 -7.95607,-2.312053 -2.15136,-0.818146 -4.66642,-0.07075 -4.66642,-0.07075 0,0 -0.0548,-1.889622 -1.027324,-4.414957 -1.28592,-3.339054 -5.711579,-6.439865 -9.094019,-7.064962 l 0.939009,-0.337018 c 2.305662,0.269215 3.056484,0.175552 5.716399,1.048603 4.590075,1.506577 5.187225,2.361817 8.236185,0.941027 1.83312,-0.85422 3.50403,-3.727763 8.19589,-5.855456 4.69184,-2.127693 4.97033,-3.278658 9.51983,-3.861263 4.54948,-0.582607 6.14193,-0.787521 8.02173,-1.144633 1.40986,-0.267837 1.79298,-0.992792 2.52646,-1.094507 z m -5.79138,7.808826 c -3.7828,-0.04981 -5.77282,1.021917 -7.15305,1.906343 -1.47224,0.943389 -3.90157,2.292367 -3.90157,2.292367 0,0 1.00521,2.69053 3.69797,4.929415 2.7226,2.263694 3.82385,2.90523 6.80217,2.787943 4.02348,-0.158446 4.82847,-0.371841 6.34225,-1.012858 1.51376,-0.64102 1.19595,-2.279015 2.50889,-1.888257 1.31291,0.390761 3.31866,0.399976 3.31866,0.399976 0,0 -3.70139,-1.53218 -5.74332,-4.615739 -1.07393,-1.621759 -0.79607,-4.555048 -5.09168,-4.773869 -0.26848,-0.01368 -0.52813,-0.022 -0.78032,-0.02532 z m 0.0755,2.662369 c 1.07702,-7.7e-5 1.95019,0.85481 1.95027,1.909445 -8e-5,1.054635 -0.87325,1.909521 -1.95027,1.909444 -1.07682,-2.04e-4 -1.94967,-0.855008 -1.94975,-1.909444 8e-5,-1.054436 0.87293,-1.909241 1.94975,-1.909445 z M 173.022,75.311165 c 1.69078,0.188365 3.81383,0.456067 3.9026,1.8526 0.0888,1.396537 2.0004,2.935222 2.0004,2.935222 0,0 -1.20035,-1.82229 -0.79272,-2.71353 0.40762,-0.891244 2.50113,-0.823298 3.63027,0.29714 1.12915,1.120442 2.76823,0.368633 1.71307,2.781225 -1.05517,2.412592 -1.921,4.310794 -4.19509,3.200322 -2.27409,-1.110472 -4.00038,-1.019674 -4.56251,-2.684591 -0.56213,-1.664914 0.67621,-2.348701 -0.17208,-3.239595 -0.84832,-0.890891 -1.52394,-2.428793 -1.52394,-2.428793 z"
       sodipodi:nodetypes="scssssscscsscssscsssssssscssscsscsssssccsscssssccssccsssscssssssscsssscssssscsssssscscsccsssssssssssscsscsssssssccsssscsssccscccscsssssscsc" /></g><g
     inkscape:groupmode="layer"
     id="layer3"
     inkscape:label="Layer 3"
     style="display:inline"
     transform="translate(216.33766,17.401945)"><path
       id="path18"
       style="fill:#85be42;fill-opacity:1;stroke-width:0.270259;stroke-dasharray:0.810778, 0.810778"
       d="m 4.3222757,60.425315 c 3.7461018,9.279947 16.9675453,34.972198 56.2825543,59.349165 -38.420374,29.3402 -41.815892,64.82375 12.180958,97.62346 -1.246288,-4.02264 -4.257878,-13.9234 -5.471473,-19.68285 -0.906561,-0.64268 -1.80909,-1.28502 -2.662974,-1.92527 l -3.267906,-0.43923 c -3.774839,-0.50746 -4.05694,-2.65458 -4.019955,-5.58619 -22.82301,-21.00506 -16.946866,-40.98986 15.72504,-62.7934 0.06571,0.0352 0.141312,0.069 0.207132,0.1041 l -0.07967,-0.16731 12.878302,-7.59059 0.282549,0.007 c -0.153881,-0.0744 -0.322687,-0.1492 -0.476403,-0.2236 0.703631,-0.4017 1.528725,-0.81372 2.24871,-1.21677 1.844475,-2.66661 4.026115,-5.84773 5.588847,-11.04226 0.738213,-2.45382 0.623807,-4.76989 -0.172079,-6.79499 -7.897707,3.81267 -15.168813,7.79897 -21.719653,11.939 C 28.47097,88.830137 11.090446,68.523318 5.3722759,60.425315 Z m 66.4766383,0 c 5.534854,1.023218 11.338691,2.049005 17.672612,3.040061 1.19894,0.187597 2.182305,0.358955 3.335357,0.543324 1.044243,-1.993149 2.29704,-3.04431 2.29704,-3.04431 0,0 3.189886,-0.307435 5.504932,-0.539075 z m 92.951826,0 c -6.91399,5.246147 -15.30469,10.935976 -25.36623,16.8802 0.38413,4.363636 -0.61983,10.424373 -1.47064,14.848711 17.35757,-10.800816 29.73756,-21.902645 38.3497,-31.728911 z m -146.819965,9.91897 c 0,0 22.689105,4.974617 55.90122,8.234295 1.89385,0.185876 3.110596,0.354141 4.88088,0.538012 -0.01083,-0.63054 -0.05727,-1.425568 -0.04356,-1.851441 0.03409,-1.058769 1.332948,-2.313294 3.051214,-3.621093 C 76.86714,72.997828 72.980757,72.453313 69.119551,72.196789 44.677509,70.572925 16.930775,70.344285 16.930775,70.344285 Z m 119.160935,1.147724 c 0.30498,0.395989 0.51982,0.753386 0.76799,1.12648 2.21053,0.541544 3.41874,0.869423 3.41874,0.869423 0,0 -1.73467,-0.849324 -4.18673,-1.995903 z M 33.037681,86.953088 c 0,0 13.295211,3.641511 33.357818,6.730197 17.153933,2.640892 24.279862,4.354103 26.389153,4.881943 C 92.660959,98.361944 92.547808,98.155523 92.409158,97.960296 87.818578,95.944163 76.567623,91.408905 65.051796,89.98412 50.171084,88.143015 33.037681,86.953088 33.037681,86.953088 Z m 98.650619,56.606002 -5.15015,12.41942 c 34.12745,23.6238 36.48816,45.17804 4.64082,68.31109 l 1.17959,12.67489 0.24378,2.55037 6.06897,-4.21593 0.0664,0.009 c -0.0367,-0.0205 -0.0659,-0.0395 -0.10246,-0.06 40.72821,-31.41507 32.09085,-64.46088 -6.9469,-91.68885 z m -79.241816,2.74369 c 0,0 6.387059,2.07985 16.767604,4.99402 0.585636,-0.67688 1.137691,-1.33642 1.574734,-1.91836 -10.460093,-1.81207 -18.342338,-3.07566 -18.342338,-3.07566 z m -5.108725,15.60873 c 0,0 4.662416,1.56841 11.914871,3.78043 0.09747,-0.61936 0.252489,-1.20015 0.431791,-1.76806 -5.58247,-0.91135 -12.346662,-2.01237 -12.346662,-2.01237 z m 77.379751,0.64743 -0.42701,2.49355 c 9.59744,2.52806 14.37868,4.03695 14.37868,4.03695 0,0 -5.51033,-3.06292 -13.95167,-6.5305 z m -1.19871,15.15144 0.71753,4.75447 c 18.19846,4.63572 25.80068,7.25282 25.80068,7.25282 0,0 -11.08724,-6.41383 -26.51821,-12.00729 z m -73.182407,2.30766 c 0,0 2.895376,0.85746 6.985129,2.01609 0.02702,-0.35152 0.04976,-0.70344 0.08975,-1.05903 -2.119359,-0.27898 -7.074886,-0.95706 -7.074886,-0.95706 z m 74.287647,13.53263 -0.23263,3.96897 c 17.31349,3.88898 24.59985,6.1481 24.59985,6.1481 0,0 -10.25048,-5.35202 -24.36722,-10.11707 z m 1.64484,16.06494 c 0.36208,0.85316 0.71135,1.69831 1.10895,2.53233 8.93812,1.87263 13.22352,3.01988 13.22352,3.01988 0,0 -5.90256,-2.84288 -14.33247,-5.55221 z m 15.75318,27.61017 -8.9858,6.83324 0.26979,2.82549 c 56.42055,28.07407 60.83256,44.35122 60.83256,44.35122 0,0 3.02807,-22.31303 -52.11655,-54.00995 z M 77.792541,252.82814 C 24.063518,278.71046 8.931915,299.94785 4.7503487,310.81342 l 3.3550079,0.51041 c 7.5193854,-8.52282 26.5766624,-24.206 73.9264864,-45.5972 z m 59.328999,13.29628 2.17594,4.25471 c 0.99343,0.18719 1.74905,0.36332 2.7692,0.55076 28.18351,5.17834 39.44484,8.35751 39.44484,8.35751 0,0 -19.07705,-9.18295 -40.13528,-12.53096 -1.39882,-0.2224 -2.83316,-0.41482 -4.2547,-0.63202 z m -66.616329,6.18847 c 0,0 7.305501,2.36159 19.341883,5.67914 l -3.604628,-3.42246 c -8.173823,-1.195 -15.737255,-2.25668 -15.737255,-2.25668 z m 51.049559,7.94856 -1.03407,5.42048 c 1.67848,0.38146 3.39647,0.76382 5.14219,1.14773 l -2.55038,-6.29841 c -0.52075,-0.0925 -1.03581,-0.17807 -1.55774,-0.2698 z m -73.969515,5.71153 c 0,0 16.77815,5.5538 43.807363,11.93931 l 2.935964,-4.73536 c -23.585803,-4.03506 -46.743327,-7.20395 -46.743327,-7.20395 z m 98.752595,0.0138 1.73672,5.88095 c 22.20267,5.17262 32.07042,8.30919 32.07042,8.30919 0,0 -14.69171,-8.17518 -33.80714,-14.19014 z m -29.46374,11.72951 -1.75797,5.34613 -0.15348,0.17049 c 29.40618,6.53518 42.26131,10.60356 42.26131,10.60356 0,0 -18.12552,-10.12222 -40.34986,-16.12018 z" /><path
       id="path3"
       style="display:inline;fill:#85be42;fill-opacity:1;stroke-width:0.2;stroke-dasharray:0.600001, 0.600001"
       d="M -199.93866 60.164897 C -197.93952 64.973035 -193.46783 73.910248 -184.30034 84.784066 C -183.77327 84.515908 -183.18602 84.209909 -182.83893 84.045093 C -181.45251 83.386786 -177.98862 82.876286 -175.44248 83.53918 C -188.61635 73.030339 -195.56434 64.721491 -198.85036 60.164897 L -199.93866 60.164897 z M -133.459 60.164897 C -128.03178 61.155873 -122.34716 62.148465 -116.14843 63.108903 C -79.589142 68.773442 -64.560878 72.992021 -64.560878 72.992021 C -64.560878 72.992021 -79.281245 65.446706 -97.896311 60.164897 L -133.459 60.164897 z M -41.287363 60.164897 C -55.432231 70.784185 -75.584353 83.205779 -104.11144 95.947209 L -102.49655 98.273165 L -107.98613 101.39494 C -107.98613 101.39494 -106.49791 100.46122 -103.98379 103.82063 C -102.63892 105.61768 -101.9431 107.27713 -101.10645 108.79449 C -98.220317 107.3751 -95.415828 105.96354 -92.315256 104.52291 C -61.441157 90.177809 -41.94499 73.904548 -29.77127 60.164897 L -41.287363 60.164897 z M -187.38594 69.891435 C -187.38594 69.891435 -164.79383 74.797182 -131.72267 78.011353 C -98.651426 81.225511 -84.64389 84.214591 -84.64389 84.214591 C -84.64389 84.214591 -111.08024 73.319876 -135.41857 71.718713 C -159.75689 70.117511 -187.38594 69.891435 -187.38594 69.891435 z M -172.62818 85.760234 C -172.58998 85.879067 -172.54085 85.99038 -172.5176 86.119385 C -171.83182 89.924745 -173.56609 92.593719 -171.60861 94.338521 C -169.65112 96.083327 -166.81622 97.284767 -166.78151 95.671256 C -166.75481 94.428245 -167.0123 92.640379 -165.60794 90.920642 C -168.09884 89.157432 -170.45189 87.432731 -172.62818 85.760234 z M -171.34712 86.269246 C -171.34712 86.269246 -167.9414 87.155998 -162.86495 88.293929 C -162.66769 87.811781 -162.68256 87.371639 -162.71923 86.945691 C -167.22583 86.578652 -171.34712 86.269246 -171.34712 86.269246 z M -149.52417 123.18069 C -153.98523 126.98982 -157.87733 130.8877 -161.09349 134.86473 C -157.51722 137.93825 -154.65588 141.85118 -152.81906 143.86728 C -148.60863 138.76139 -142.75663 133.59458 -135.26406 128.32611 C -135.86351 128.27391 -136.36437 128.22543 -137.0872 128.16281 C -141.87036 127.74787 -147.04001 125.18198 -149.52417 123.18069 z M -151.94262 144.80314 C -151.93662 144.81014 -151.92929 144.81554 -151.92299 144.82174 C -151.81351 144.85824 -148.2658 145.9889 -142.85429 147.58643 C -142.11397 147.34214 -141.33117 147.04568 -140.44669 146.69243 C -146.0542 145.76378 -151.89379 144.81081 -151.94262 144.80314 z M -59.727064 152.74891 L -56.239422 165.18123 C -56.054164 165.35826 -56.000984 165.46029 -55.844614 165.61892 L -47.817197 171.39842 L -48.78613 174.88554 L -48.726702 175.38112 C -45.928254 179.275 -43.10714 183.24293 -42.496075 184.43121 C -42.055643 185.28772 -40.922481 187.10415 -39.61253 189.17046 C -39.975643 176.55856 -47.172055 164.26211 -59.727064 152.74891 z M -169.95289 176.27564 C -163.2143 194.15831 -142.29657 212.25824 -103.70526 229.20677 C -102.61027 224.69009 -101.48214 219.51027 -104.86436 213.64907 C -130.4789 201.49351 -147.23324 189.98247 -155.21788 178.66619 C -159.06705 178.64729 -162.94317 178.34695 -165.42346 177.11021 C -166.38198 176.63227 -168.04993 176.42385 -169.95289 176.27564 z M -150.09674 178.57472 C -150.77294 178.59912 -151.36985 178.61684 -152.08887 178.63674 C -149.63021 179.37112 -143.49102 181.08055 -133.96956 183.48657 C -136.25835 182.07116 -138.63626 180.76826 -140.56244 179.85165 C -145.38116 179.19626 -148.37111 178.79641 -150.09674 178.57524 L -150.09674 178.57472 z M -129.19001 198.79674 C -129.19001 198.79674 -121.98347 200.79268 -110.21701 203.31275 C -110.45688 202.52961 -110.65722 201.78211 -110.85004 201.05604 C -120.90916 199.73881 -129.19001 198.79674 -129.19001 198.79674 z M -112.0479 243.00697 C -113.38574 243.61924 -114.60896 244.22208 -115.99185 244.83786 C -141.03265 255.98781 -158.52843 266.32872 -171.01898 275.50472 L -171.14662 287.8032 C -158.04606 279.54864 -139.32594 269.57752 -112.34607 258.05153 C -113.46924 253.8824 -114.27184 250.60493 -114.09532 246.93231 C -114.02932 245.56104 -113.17675 244.28252 -112.0479 243.00697 z M -32.347857 255.3783 L -32.325119 262.59698 L -24.942624 272.1349 C -24.59617 272.41609 -24.270211 272.68824 -23.940618 272.96224 C -22.894634 273.48793 -17.924883 275.97037 -13.526267 277.81983 C -16.188606 272.26883 -21.591616 264.59662 -32.347857 255.3783 z M -88.805393 259.97234 L -90.107122 262.06523 C -88.671259 262.39221 -87.289082 262.7081 -85.70584 263.05587 C -85.97512 262.25862 -86.258697 261.28611 -86.518194 260.2762 C -87.288331 260.17415 -88.057965 260.07006 -88.805393 259.97234 z M -134.03881 269.04259 C -134.03881 269.04259 -124.74385 271.98434 -110.00048 275.89436 C -110.02318 275.07585 -110.06823 273.99898 -110.13071 272.49871 C -123.67842 270.45116 -134.03881 269.04259 -134.03881 269.04259 z M -40.251767 269.38985 C -41.503005 270.00427 -42.825688 270.61067 -44.254107 271.2378 C -40.313296 272.03961 -38.4244 272.49979 -35.6629 273.11107 L -36.382236 270.76393 C -37.657241 270.30615 -38.841512 269.8597 -40.251767 269.38985 z M -87.614768 276.12484 L -85.961122 281.84336 C -83.834577 282.32703 -81.569757 282.81585 -79.354807 283.30321 L -64.0591 286.37434 L -54.896351 283.68924 C -61.444949 281.49541 -68.571293 279.47597 -75.958115 278.12162 C -79.790318 277.41896 -83.704525 276.78679 -87.614768 276.12484 z M -156.86222 282.51153 C -156.86222 282.51153 -146.07693 285.94869 -128.89649 290.3927 C -128.30736 289.28474 -127.59373 288.09162 -126.70592 286.93452 C -143.28974 284.35793 -156.86222 282.51153 -156.86222 282.51153 z M -11.665398 282.59215 L -13.498361 283.39417 C -11.427612 286.17028 -10.929526 287.7014 -10.929526 287.7014 C -10.929526 287.7014 -10.722464 285.87764 -11.665398 282.59215 z M -188.77603 290.98285 C -196.90221 299.82947 -199.66299 306.58045 -200.60425 310.60077 L -198.70721 310.60077 C -196.87575 308.08319 -193.68815 304.47653 -188.0567 299.81228 L -188.77603 290.98285 z M -117.82429 291.80192 L -121.20858 292.38276 C -120.9401 292.44872 -120.62733 292.51909 -120.35644 292.58534 L -117.82429 291.80192 z M -30.274598 293.76097 L -29.096893 295.27561 C -26.501647 296.02052 -24.864076 296.5174 -24.864076 296.5174 C -24.864076 296.5174 -26.930409 295.39702 -30.274598 293.76097 z " /><path
       style="fill:#000000;fill-opacity:1;stroke-width:0.233478;stroke-dasharray:0.700439, 0.700439"
       d="m 93.359244,66.040498 c -0.72588,0.898287 -0.3642,3.130365 -1.650386,4.265139 -1.286189,1.134772 -5.760043,4.302351 -7.054392,4.748048 -1.294349,0.445703 -2.861137,1.815376 -3.59044,2.697142 -0.729303,0.881766 -0.491707,2.032249 -0.491707,2.032249 0,0 0.551018,-0.27697 0.37101,0.920278 -0.180007,1.197248 0.868601,2.862052 1.60767,2.734632 0.739067,-0.127422 3.221633,1.166512 3.079604,2.263111 -0.142027,1.096601 -0.614489,1.874712 2.564927,3.216988 3.179417,1.342277 6.692774,1.597629 7.50991,2.785341 0.817124,1.187712 3.704478,3.393883 4.157222,5.520975 0.452758,2.127089 1.597268,4.774229 0.468918,6.617959 -1.128352,1.84372 -1.998986,2.53009 -2.607514,4.43104 -0.608526,1.90095 -3.103533,3.11941 -4.474568,5.7548 -1.371031,2.63539 -0.608683,3.96795 -3.789074,6.89765 -3.180391,2.92969 -8.592987,10.13824 -10.327308,14.85185 -1.734321,4.71361 -3.682868,14.35529 -3.682868,14.35529 0,0 -9.114322,6.61765 -10.212825,9.26417 -1.0985,2.6465 -2.601999,8.13664 -2.402684,11.2543 0.199319,3.11766 -0.366417,7.16463 -1.404062,9.81501 -1.037645,2.65036 -1.091639,4.9549 -1.091639,4.9549 0,0 -0.968293,0.81561 -1.052293,2.305 -0.084,1.48937 1.075435,5.85651 1.075435,5.85651 l 0.422871,-3.53072 1.234916,0.53368 c 0,0 -0.743941,-3.50619 0.522315,-4.00553 1.266252,-0.49936 3.04585,-0.45841 3.517535,-1.39497 0.471685,-0.93655 2.53181,-4.77615 2.53181,-4.77615 l 0.788886,-1.28989 c 0,0 0.145654,3.19415 -0.469629,4.46056 -0.615281,1.26642 -1.729508,3.61152 -2.221932,5.03007 -0.492423,1.41853 -0.477821,2.23902 -0.367194,3.24944 0.110634,1.01041 1.275506,3.07041 1.275506,3.07041 0,0 -0.0023,-1.43433 0.570563,-2.66392 0.57268,-1.22959 0.407944,-3.50683 0.407944,-3.50683 l 0.635308,0.67908 1.103207,-2.06937 c 0,0 0.879455,0.7531 2.190305,0.001 1.310853,-0.75194 2.642686,-3.37409 2.642686,-3.37409 0,0 -1.309841,5.53342 -2.087866,8.35915 -0.77802,2.82574 -1.509495,10.96235 0.368189,16.1165 1.877683,5.15417 6.898495,13.49821 7.018624,15.02223 0.120131,1.524 0.119812,19.01115 0.887102,23.82562 0.767291,4.81447 2.482436,8.45992 3.207424,12.55758 0.724989,4.09766 1.879164,9.65912 3.267504,11.06468 1.388336,1.40556 8.415236,8.52699 9.282979,10.86155 0.867755,2.33456 2.334749,8.48388 1.195564,10.85218 -1.139186,2.36831 -2.411657,6.33015 -2.681457,7.29891 -0.269799,0.96876 -0.391446,1.55078 -0.391446,1.55078 0,0 -2.034693,0.61938 -3.723654,1.98779 -1.688958,1.36842 -2.10901,2.77307 -2.10901,2.77307 0,0 -0.915128,-0.10498 -1.851726,1.55358 -0.936596,1.65858 -1.459949,3.81787 -1.459949,3.81787 l 1.829524,-0.97497 0.841726,1.18571 3.240226,-1.92315 -0.08844,1.47275 3.103009,-1.41756 2.313706,0.34012 2.571879,-1.05976 0.823855,0.65549 9.27635,-3.55953 c 0,0 1.24989,-3.38012 1.85807,-5.14274 0.60816,-1.76259 1.13249,-5.50721 1.96094,-6.95356 0.82847,-1.44635 3.27587,-9.60383 3.41868,-11.05332 0.14281,-1.44949 1.00844,-5.64302 -0.0152,-6.93387 -1.02372,-1.29084 -0.654,-4.56168 -0.79968,-7.03557 -0.14571,-2.4739 -0.009,-5.73534 1.11523,-6.29195 1.12494,-0.55659 1.87247,1.99523 3.69573,5.62264 1.82325,3.62743 6.72729,12.1287 7.91301,14.66512 1.18573,2.53641 3.08933,7.3633 3.08933,7.3633 v 0 c 0,0 0.76108,1.29858 -0.29921,3.21386 -1.06028,1.91531 -3.03348,4.83001 -0.98936,5.25848 2.04412,0.42846 6.35302,-0.4759 8.68545,-0.4759 2.33241,0 3.87586,0.62154 3.46858,-2.16806 -0.40728,-2.78959 -0.62612,-11.13303 -2.32556,-13.46273 -1.69943,-2.32971 -10.92163,-21.12385 -11.2695,-26.36775 -0.34787,-5.24392 -0.58109,-15.23852 0.33221,-17.64598 0.9133,-2.40745 -2.76588,-17.42071 -3.76768,-20.90564 -1.00181,-3.48493 -5.63439,-10.66479 -5.56898,-13.56842 0.0654,-2.90363 0.99235,-6.05982 0.29263,-8.58851 -0.69971,-2.52868 -1.43935,-7.50912 -1.11734,-8.83046 0.32202,-1.32133 -0.58791,-2.59032 -0.33465,-6.24183 0.25325,-3.6515 1.06424,-8.43309 1.20706,-11.90419 0.14283,-3.4711 0.62832,-11.40958 1.96045,-13.99623 1.33212,-2.58666 4.68275,-10.79643 5.67776,-13.60203 0.99501,-2.80559 1.13784,-8.27391 1.13784,-10.97242 0,-2.6985 -0.34475,-6.16433 0.69371,-7.84653 1.03845,-1.6822 -0.0949,-3.93303 0.89022,-7.74966 0.9852,-3.81662 2.2557,-7.41874 1.73205,-10.69488 -0.52365,-3.27614 -2.84514,-2.49567 -1.59755,-5.770512 1.24758,-3.274834 3.09177,-7.308227 2.94896,-9.105328 -0.14283,-1.797103 0.65411,-5.443358 0.37439,-7.131374 -0.27971,-1.688015 -0.69592,-8.28562 -3.5613,-10.985898 -2.86537,-2.700278 -8.94717,-6.748018 -14.27795,-7.290634 -5.33079,-0.542617 -9.16691,-1.276968 -11.28053,-0.895985 -2.11365,0.380984 -4.7824,0.92836 -7.019367,1.490467 -2.236955,0.562109 -3.917503,0.483034 -4.85055,1.682158 z"
       id="path4" /><rect
       style="fill:#000000;fill-opacity:1;stroke-width:0.233478;stroke-dasharray:0.700439, 0.700439"
       id="rect6"
       width="196.34612"
       height="4.3563457"
       x="1.5065547"
       y="54.384087"
       ry="0" /><path
       id="rect1"
       style="fill:#000000;fill-opacity:1;stroke-width:0.147916;stroke-dasharray:0.443749, 0.443749"
       d="m 1.5063303,313.9585 v 4.35683 H 68.576931 l 9.053441,-4.35683 z m 78.6691977,0 0.136403,0.0936 v -0.0936 z" /><path
       style="display:inline;fill:#000000;fill-opacity:1;stroke-width:0.233478;stroke-dasharray:0.700439, 0.700439"
       d="m 70.838119,318.35405 c 0,0 8.56623,-4.4485 10.557657,-5.27084 1.991426,-0.82234 3.749796,-1.86124 3.749796,-1.86124 0,0 -2.035394,2.02679 -0.456438,2.17146 1.578956,0.14468 9.376744,-0.6096 12.817349,-1.24338 3.440597,-0.63377 11.971527,-4.58839 14.107137,-5.15813 2.13561,-0.56977 9.03596,-2.92333 8.36255,-3.24535 -0.67342,-0.322 -8.23987,1.25155 -8.23987,1.25155 0,0 3.78243,-2.40311 6.07578,-2.62076 2.29337,-0.21766 10.94482,-2.86574 10.94482,-2.86574 0,0 7.43093,0.24679 9.35817,0.24679 1.92724,0 8.1962,-0.69785 10.79395,-0.55504 2.59774,0.14283 8.34104,-1.01869 8.34104,-1.01869 0,0 -14.86559,-0.66438 -13.16398,-1.09568 1.7016,-0.43128 7.84982,-2.56158 8.74452,-2.29177 0.89469,0.26983 2.12871,0.86604 2.12871,0.86604 0,0 6.82944,-1.60117 8.453,-1.2355 1.62357,0.36567 3.06429,1.16936 4.31389,1.39903 1.24957,0.22969 9.94148,-2.38822 14.07015,-3.09668 4.12865,-0.70846 15.82704,-2.85302 15.82704,-2.85302 l 0.45441,28.33727 z"
       id="path5" /><rect
       style="fill:#000000;fill-opacity:1;stroke-width:0.233478;stroke-dasharray:0.700439, 0.700439"
       id="rect5-5"
       width="402.24988"
       height="4.3563457"
       x="-205.49599"
       y="380.69174"
       ry="0" /><text
       xml:space="preserve"
       style="font-size:76.4263px;text-align:center;text-anchor:middle;display:inline;fill:#000000;fill-opacity:1;stroke-width:2.85435;stroke-dasharray:8.56303, 8.56303"
       x="-3.8556418"
       y="49.23003"
       id="text5-4"><tspan
         sodipodi:role="line"
         style="font-style:normal;font-variant:normal;font-weight:normal;font-stretch:normal;font-family:Carlito;-inkscape-font-specification:Carlito;stroke-width:2.85435"
         x="-3.8556376"
         y="49.23003"
         id="tspan2">NBIS SYSDEV</tspan></text><text
       xml:space="preserve"
       style="font-size:77.5574px;text-align:center;text-anchor:middle;display:inline;fill:#000000;fill-opacity:1;stroke-width:2.85435;stroke-dasharray:8.56303, 8.56303"
       x="-1.0119411"
       y="374.6763"
       id="text3"><tspan
         sodipodi:role="line"
         style="font-style:normal;font-variant:normal;font-weight:normal;font-stretch:normal;font-family:Carlito;-inkscape-font-specification:Carlito;stroke-width:2.85435"
         x="-1.0119463"
         y="374.6763"
         id="tspan3">HACKATHON</tspan></text><path
       id="path1-5"
       style="display:inline;fill:#000000;fill-opacity:1;stroke:#000000;stroke-width:0.199999;stroke-opacity:1"
       d="m -155.64304,87.550126 v 5.01e-4 c -1.57786,-0.01492 -2.90001,0.225876 -3.63707,0.822996 -1.47414,1.194264 -4.24974,3.426739 -5.15615,4.489323 -0.90642,1.062595 0.26721,3.233513 0.26721,3.233513 l -1.02031,0.68021 0.94248,1.394152 5.43875,1.823488 c 0,0 -3.25207,0.605991 -4.42734,0.816061 -1.17527,0.21007 -1.45109,1.5975 -1.72485,2.39612 -0.27376,0.79862 0.51574,3.31469 2.0352,3.99206 1.51945,0.67735 4.84011,2.11054 8.46453,3.30786 3.62438,1.19732 3.66776,2.7904 4.95386,4.97867 1.28613,2.18825 2.82879,6.50812 4.57361,8.06739 1.74482,1.55928 5.5575,1.69122 7.73226,1.33415 2.17477,-0.35704 1.37628,1.44869 1.37628,1.44869 l 5.21467,-2.72234 0.43084,0.6564 c 0.23198,0.35378 1.29482,-0.41051 2.51213,-1.28209 l 0.17501,1.88696 2.36143,-1.95241 0.26177,3.9757 1.58253,-1.66782 c 0,0 0.1903,2.43331 0.28657,4.09914 0.0962,1.66585 -0.002,4.44317 -1.59245,6.19681 -1.21542,1.34004 -2.83086,3.07999 -3.5399,4.45561 -0.64544,0.71693 -1.25562,1.34134 -1.60089,1.54983 -0.99792,0.60261 -2.085,1.83994 -2.51858,2.3148 -0.4336,0.47491 -3.28755,1.42242 -3.28755,1.42242 l 2.52106,0.062 -3.98659,1.5419 1.91967,0.0704 c 0,0 -2.43939,0.81077 -3.09767,1.05652 -0.65825,0.24568 -2.96726,1.77689 -2.96726,1.77689 l -2.54188,-0.65889 c 0,0 1.2825,0.75392 0.6123,0.93851 l -0.6708,0.18444 -1.03867,-1.78979 -0.0516,2.21269 -1.26575,0.0565 -1.41991,-0.0491 c -0.046,-0.029 -0.10995,-0.0802 -0.15767,-0.11155 l 0.80763,-0.39762 -1.84977,-0.3421 c -0.19113,-0.15008 -0.30829,-0.20658 -0.52255,-0.38523 l 2.07733,-0.34705 -3.97767,-1.39811 c -0.61125,-0.56182 -1.06339,-0.93121 -1.82994,-1.67971 -5.50786,-5.37825 -8.47729,-7.18744 -10.08673,-10.82147 l 0.90728,-0.37433 -1.19187,-0.38225 c -0.11906,-0.32264 -0.24305,-0.6362 -0.34506,-0.99195 l 0.81805,-0.23897 -1.10164,-1.235 c -0.0511,-0.40889 -0.0716,-0.79397 -0.0699,-1.16905 0.51434,0.39632 0.94199,0.74069 0.94199,0.74069 l -0.84383,-2.176 c 0.0254,-0.16908 0.0462,-0.34276 0.0773,-0.50371 0.35163,0.74181 0.67476,1.44421 0.67476,1.44421 0,0 0.49783,-2.06411 0.32821,-2.62318 -0.0836,-0.27536 -0.22426,-0.73878 -0.40753,-1.34408 0.19264,-0.94286 0.14621,-1.6499 -0.6822,-2.1631 -0.43082,-0.26689 -0.91084,-0.44858 -1.4115,-0.61526 -0.0838,-0.77279 -0.24704,-2.03969 -0.46454,-2.49083 -0.31983,-0.66334 -3.81183,-3.80907 -4.27962,-4.20723 -0.46778,-0.39817 -0.70509,1.17095 -0.62271,2.77391 0.0185,0.36052 0.0275,0.79996 0.0318,1.25781 -0.63401,-0.59283 -1.27186,-1.30341 -1.90678,-2.28458 -0.98892,-1.52821 -2.13528,-2.9073 -3.27218,-4.17697 0.0724,0.59976 0.1065,1.33233 -0.005,2.08675 -0.25967,1.75023 0.48083,4.49023 0.72435,7.6901 0.24351,3.1999 0.60173,9.88923 0.64997,11.84925 0.0265,1.07827 -0.14052,1.86281 -0.29648,2.36043 1.89312,2.69969 3.8553,5.45624 4.60732,6.48981 1.06728,1.46679 4.27594,4.56776 6.96725,7.25779 -2.27873,0.33172 -3.5143,-2.61331 -5.5622,-4.71491 -0.48933,-0.50215 -0.95285,-0.78168 -1.40703,-0.93604 -0.85042,-1.48287 -2.9757,-4.15121 -2.9757,-4.15121 0,0 -4.65493,-3.91839 -7.19085,-4.50914 -0.95096,-0.22152 -1.73659,-0.29247 -2.34704,-0.29402 -1.01741,-0.003 -1.54834,0.18692 -1.54834,0.18692 0,0 0.88295,3.59407 1.46009,4.62865 0.57716,1.03457 2.1215,2.35964 2.65591,2.68515 0.5344,0.32553 4.1051,2.83589 4.1051,2.83589 0.0845,0.0908 0.16885,0.17479 0.25335,0.25681 -0.41408,0.24326 -0.84977,0.58719 -1.29252,0.95736 -1.57662,-1.20073 -3.8028,-2.82787 -5.00494,-3.33911 -0.96551,-0.41057 -2.61288,-0.51872 -4.12046,-0.51758 -1.50755,9.2e-4 -2.87603,0.11127 -3.28308,0.13831 -0.81408,0.054 0.28552,1.51422 0.77689,2.44521 0.25778,0.48839 2.17679,1.90223 3.94893,3.14277 -1.33284,-0.13405 -2.42786,-0.19844 -2.63857,-0.30341 -0.71528,-0.35639 -4.6564,-1.01735 -4.6564,-1.01735 l -0.0947,2.18989 3.61377,4.34702 4.49577,2.05453 c -0.20523,0.57791 -0.3821,1.18645 -0.48935,1.75507 -0.69261,-0.35295 -1.71199,-0.84921 -2.21714,-0.95686 -0.78633,-0.16759 -4.25233,-0.41943 -4.25233,-0.41943 l -0.21219,1.66534 4.38321,3.44669 1.67823,0.50669 c -0.1003,2.66313 3.14422,2.85542 4.26127,3.22606 0.79373,0.26336 4.59954,0.69247 8.10508,1.59098 l -0.70302,0.69608 2.09914,-0.35201 c 0.27225,0.0846 0.51549,0.18632 0.77591,0.27862 l -1.0228,0.61875 2.13484,0.47893 1.65047,0.2112 c 0.32492,0.20902 0.64157,0.39299 0.96033,0.58999 -1.33618,0.14901 -3.47197,0.24294 -3.47197,0.24294 l 4.30092,0.26623 c 0.14036,0.0823 0.28417,0.18045 0.42489,0.26028 -0.47987,0.0847 -1.12962,0.20851 -2.07535,0.40555 -2.99335,0.62374 -0.18646,0.0437 4.48287,0.78433 1.93235,0.83615 4.09799,1.45901 6.98263,1.78928 5.45617,0.6247 11.83867,0.78214 18.16453,2.81854 1.06045,0.34138 2.22395,0.65907 3.36538,0.99208 l -0.92017,1.2092 5.98659,0.28459 c 1.22051,0.35669 2.29658,0.71926 3.36637,1.07287 -0.90123,0.53293 -2.77936,1.14179 -2.77936,1.14179 l 4.33662,-0.61082 c 0.0542,0.0198 0.12328,0.0406 0.17651,0.0605 l -1.94596,2.23202 3.19136,-0.30244 -0.11354,3.21269 2.84878,-1.56272 2.4695,-0.68319 c 2.46967,-0.68309 -1.43083,1.63856 -1.43083,1.63856 l 3.60633,-1.56618 0.46604,1.4586 1.41645,-1.40456 c 0.004,8e-4 0.007,9.7e-4 0.0103,9.7e-4 l 0.0769,-0.0163 c 0.41856,2.85156 0.83923,5.1223 1.22956,5.92461 1.75202,3.60188 3.62517,4.46212 4.87009,5.84975 0.7042,0.78492 1.45364,2.20663 2.25681,3.89241 l 0.75904,3.27911 0.46454,-0.62468 c 0.17187,0.37905 0.32017,0.68972 0.50025,1.08527 l 0.45067,4.07832 0.72235,-0.9519 c 0,0 0.92276,5.24006 1.00297,6.48385 0.08,1.24382 -0.0367,4.16212 -0.0367,4.16212 l 0.77293,-1.35895 c 0,0 1.445507,7.08649 1.153197,9.73074 -0.292317,2.64416 -1.083777,5.69706 -1.083777,5.69706 l 1.297947,-0.85571 0.32128,1.25185 c -0.51136,1.47705 -0.992947,2.63871 -1.351507,3.02131 -0.84737,0.90408 -2.44917,2.84101 -3.72384,4.39661 l -1.41645,0.98959 -0.90977,1.46008 c -0.19315,0.0163 -0.42024,0.004 -0.588,0.0425 -2.28628,0.50713 -2.96695,4.25383 -3.75456,7.24687 -0.57515,2.18552 1.31151,6.4271 2.71888,10.37082 l 0.59642,4.6207 c 0,0 0.18653,-0.7097 0.39416,-1.40604 0.0763,0.30598 0.17187,0.62582 0.22705,0.91622 0.0183,0.0967 0.0467,0.163 0.066,0.25781 l -0.36093,2.68516 -0.4348,1.93554 1.31185,-2.01041 -0.72583,5.34555 1.13286,-1.38075 -0.54982,3.87404 c 0,0 1.99037,-3.32542 1.39762,-0.68318 l -0.59296,2.64154 c 0,0 1.08081,0.76599 -0.0724,1.59245 -0.45915,0.329 -1.03071,0.73295 -1.87655,1.33317 -2.14711,0.43189 -4.72625,1.06447 -6.78729,1.95338 -4.29991,1.85432 -4.63779,3.47464 -7.23696,4.33514 -2.59919,0.86046 -3.86413,3.95785 -3.86413,3.95785 0,0 3.36299,-0.49121 4.43231,-0.12247 1.06929,0.36871 5.03559,0.64686 6.46502,0.57213 1.42944,-0.0747 7.11573,0.0111 12.0441,0.73426 4.928157,0.72332 9.29969,-0.91496 11.906236,-0.48686 2.106799,0.34604 7.184721,-0.75596 10.503674,-1.93157 l 1.474968,0.38969 2.758047,-0.56867 -1.383736,-1.27713 c 1.018127,-1.39784 -1.562679,-3.27455 -2.351511,-4.23946 -0.913582,-1.11772 -5.51156,0.0629 -9.84874,-4.18491 0,0 -0.351896,-0.67964 -0.491818,-0.94001 l 0.15319,0.14924 -1.40802,-2.62419 c -0.185562,-0.38052 -0.367068,-0.75133 -0.558255,-1.16163 l 1.300445,-0.27912 -2.297462,-2.58947 2.283082,0.59939 -1.678231,-2.26572 -0.616748,-2.44125 c -0.615977,-2.44162 1.289027,1.21021 1.289027,1.21021 l -2.267216,-5.06544 0.208727,-2.49478 0.559243,1.56024 c 0,0 0.430034,-0.76517 1.451157,-2.6812 1.021145,-1.91605 0.947937,2.07882 0.947937,2.07882 l 1.820525,-5.68615 0.753085,-0.10216 0.13188,-1.08081 c 0.500898,-0.14993 1.015486,-0.0917 1.529496,0.18642 l 0.539418,2.21962 0.442739,-0.66188 c 0,0 1.191624,3.19715 1.47099,4.65294 0.279334,1.45579 0.972722,3.2925 0.972722,3.2925 l 0.556273,-1.83241 c 0,0 1.580458,3.18709 1.902813,3.90627 0.322321,0.71923 1.165101,3.53098 1.165101,3.53098 l 0.65196,-2.57312 c 0,0 2.246834,2.92716 2.610794,3.78878 0.363949,0.86173 1.184427,2.03569 1.184427,2.03569 0,0 1.197573,-2.96045 1.728793,-3.19383 0.531241,-0.2334 1.586518,3.1874 1.586518,3.1874 l 2.366873,-1.0709 c 0.11604,1.37429 0.152054,3.03889 0.301924,4.7387 l -0.08377,2.73426 -1.402071,4.55675 0.972231,-0.23204 -0.426375,1.37036 c 0.397992,-1.1764 1.03028,-2.55832 0.771432,1.59246 -0.247085,3.96248 0.388567,3.37812 0.830938,2.5746 0.243465,2.0914 0.499039,2.28752 0.739707,4.24639 0.325217,2.64685 -2.283572,1.68436 -4.81356,4.05948 -2.529843,2.37509 -4.28908,4.06666 -6.269679,6.62367 -0.702546,0.90694 -0.58586,1.58439 0.02974,2.07139 -0.380336,0.75432 -0.741199,1.53941 -0.741199,1.53941 l 2.988088,-0.75161 c 1.327114,0.1931 2.996488,0.18676 4.718874,-0.003 0.02528,-0.003 0.05358,0.004 0.07887,0.003 0.02885,0.0831 0.05291,0.16456 0.08578,0.24789 0.263125,0.66871 1.688633,2.12097 1.688633,2.12097 0,0 2.076545,-0.65974 3.969254,-1.01736 0.419948,0.17005 0.828299,0.3135 1.257302,0.4938 -0.323802,0.16464 -0.676779,0.44137 -0.843816,0.91126 -0.35018,0.98503 -0.569661,2.38917 -0.569661,2.38917 0,0 3.435171,-0.87302 6.085755,-1.58451 1.609588,0.4587 3.243962,0.72031 4.880497,0.50123 5.98422,-0.80108 10.453888,-6.63075 13.339559,-10.80016 2.885851,-4.16956 -0.139711,-4.54809 -1.111052,-6.15516 -0.971352,-1.60709 -5.257931,-1.55297 -8.219106,-2.38224 -2.961142,-0.82927 -2.17035,-3.25797 -2.936524,-5.62269 -0.766162,-2.36461 0.581036,-6.5696 0.844807,-8.1834 0.162136,-0.99135 0.585001,-1.2558 0.94249,-1.35449 l 1.791262,2.28805 c 0,0 -0.03799,-0.84075 0.06193,-1.48636 0.551672,0.36415 0.756594,0.50981 1.725818,1.09568 0.572002,1.10263 0.67229,1.67723 0.67229,1.67723 l 1.418436,-0.47694 c 0.300197,0.16544 0.575632,0.30891 0.883483,0.47001 l 1.260784,1.89588 1.377776,-0.63163 c 0.01649,0.006 0.03386,0.0171 0.05058,0.0238 0.31058,0.12735 0.793667,0.24419 1.154184,0.36936 l 1.541393,1.47298 -0.104154,-1.01239 c 0.665739,0.19577 1.299342,0.38458 2.048573,0.56965 l 0.739227,0.50818 0.239956,-0.28706 c 0.528824,0.12243 1.047479,0.24523 1.597903,0.36093 0.944294,1.01385 2.245898,2.23342 2.336138,1.35647 l 0.08967,-0.87457 c 2.915882,0.53508 5.877804,0.97545 8.240433,1.20624 5.385649,0.5261 11.50694,-2.58072 14.105548,-3.38917 2.2505201,-0.70009 -1.913095,-1.96554 -4.658877,-3.09568 l 2.967257,-0.67178 c 0,0 -2.553938,-0.0345 -4.99403,-0.30342 -2.42256,-1.2982 -5.789401,-3.32954 -7.825944,-5.06147 -1.092962,-0.92955 -3.098758,-2.97145 -5.082288,-5.20673 1.161068,0.23259 3.361417,1.12693 3.361417,1.12693 0,0 -3.481991,-1.95091 -4.677715,-2.6921 -1.487288,-1.76348 -2.834897,-3.49666 -3.616756,-4.84481 1.028454,0.0431 2.546353,0.44174 2.546353,0.44174 0,0 -2.325824,-1.11251 -3.187898,-2.05254 0.148078,-0.8938 0.265644,-1.87447 0.365888,-2.8929 0.902788,0.52648 2.314817,2.32821 2.314817,2.32821 l -1.98413,-5.94943 c 0.111817,-1.25461 0.227111,-2.40955 0.385237,-3.15814 0.525526,-2.48796 3.830946,-7.85771 5.432302,-12.57555 l 0.820021,2.74812 -0.127903,-5.25283 c 0.167282,-0.8483 0.284491,-1.65669 0.439753,-2.49477 l 0.813082,3.08822 c 0,0 0.0684,-5.45024 -0.140803,-7.23001 0.194239,-1.68233 0.288546,-3.29098 0.141304,-4.72383 0.05714,-0.17067 0.07486,-0.27573 0.125431,-0.43481 0.610667,0.64142 1.310115,1.27468 1.237474,0.65344 -0.05703,-0.48721 -0.269041,-2.24977 -0.513619,-4.0213 0.0411,-0.96965 -0.101923,-1.83852 -0.313343,-3.06344 -0.085,-0.49269 -0.27373,-1.01133 -0.504217,-1.53842 -0.04167,-0.14652 -0.08399,-0.3228 -0.123938,-0.42192 -0.09179,-0.22778 -0.323691,-0.57074 -0.60337,-0.9519 -1.233364,-2.07926 -2.861132,-3.98324 -4.085762,-5.52651 l 1.986115,-0.0634 c 0,0 -1.98304,-0.93224 -3.294492,-1.78582 -0.739795,-1.23707 -1.697155,-3.20377 -2.713421,-5.37925 l 3.476933,1.91471 c 0,0 -4.116162,-3.95113 -4.822984,-4.77738 -0.634327,-1.33377 -1.234489,-2.55793 -1.714912,-3.39016 -1.230935,-2.13231 -4.845464,-8.87089 -8.703987,-14.91865 1.091525,-0.52503 3.275148,2.20873 3.275148,2.20873 0,0 -0.773487,-1.56192 -1.277136,-2.43579 -0.430274,-0.74653 -3.993104,-4.54369 -5.611281,-5.9504 -1.037019,-2.08598 -1.977848,-3.9182 -2.807629,-5.45808 1.458181,0.59028 3.83489,1.91867 3.83489,1.91867 0,0 -4.522362,-3.64602 -5.697055,-4.83289 -0.767922,-0.77589 -1.863557,-1.739 -2.838362,-2.49727 -0.6324,-0.63682 -1.141898,-1.24187 -1.153204,-1.72731 -0.0078,-0.34514 -0.299953,-1.36463 -0.714909,-2.66582 l 1.690127,2.21118 c 0,0 -0.309912,-2.00375 -0.635108,-2.89934 -0.246026,-0.6776 -1.919344,-3.55692 -3.319264,-5.8795 -0.840441,-2.34363 -1.557022,-4.31934 -2.106098,-5.83141 l 2.016358,1.18591 -3.921164,-4.99452 -0.03119,0.0346 c -1.477618,-1.53337 -3.569758,-2.3557 -4.817535,-4.0694 -1.374067,-1.88716 -5.318602,-5.39512 -9.028229,-8.14177 -0.689556,-1.19003 -1.373286,-2.36641 -1.99156,-3.351 l 1.986113,0.55874 c 0,0 -2.436817,-2.70652 -3.319276,-2.8334 -0.08979,-0.013 -0.253234,-0.0685 -0.425873,-0.12989 -0.135378,-0.1381 -0.28116,-0.32077 -0.406045,-0.41399 -1.136406,-0.84814 -3.196085,-1.59711 -5.29052,-2.25581 -0.0078,-0.003 -0.147743,-0.0734 -0.147743,-0.0734 l 1.322257,-0.50571 -5.202266,-0.61874 c -0.10849,-0.0315 -0.300598,-0.0896 -0.401082,-0.11947 l 3.498254,-0.95191 c 0,0 -4.168669,-0.51074 -5.369347,-0.60288 -0.7404,-0.99021 -1.41394,-2.28916 -2.07385,-3.59542 l 1.67029,0.0526 -1.25334,-1.49827 -1.952887,-1.40504 c -0.23427,-0.37576 -0.47108,-0.71894 -0.71295,-1.00695 -0.14817,-0.17641 -0.35015,-0.4683 -0.51362,-0.67822 l 2.979647,0.73822 c 0,0 -2.656567,-2.04731 -3.708457,-2.57807 -0.45787,-0.23103 -1.14476,-0.90221 -1.78135,-1.57611 -0.46292,-0.64885 -0.90303,-1.22686 -1.36241,-1.84183 l 0.92315,-0.38325 -2.22409,-1.31282 c -0.62504,-0.74491 -1.19689,-1.33168 -1.66484,-1.63065 -1.86062,-1.18874 -5.45792,-2.68006 -4.83638,-2.43875 0.62162,0.24129 5.62766,-2.902786 6.6564,-3.920667 1.02891,-1.017882 -3.27186,-2.374269 -6.17648,-2.725821 -2.90481,-0.351528 -6.69893,0.128662 -8.50072,-0.172038 -1.80179,-0.30071 -5.04567,-2.137788 -7.37231,-2.791265 -2.32663,-0.653463 -4.57256,-0.06405 -9.41692,-0.01007 -4.8439,0.05392 -8.4135,-1.628904 -11.93256,-2.478357 -1.75953,-0.424737 -3.59266,-0.695036 -5.17053,-0.709964 z m -30.61664,16.425324 c 0,0 -3.14441,1.55524 -3.60089,1.8225 -0.45649,0.26729 -1.79135,3.18903 -2.13733,3.43876 -0.34597,0.24973 -1.68218,0.50421 -1.68218,0.50421 0,0 -0.30322,1.26348 -0.27319,2.49677 0.0301,1.23332 0.98347,3.7765 1.31433,4.47 0.33086,0.6935 -0.29797,1.66881 -0.29797,1.66881 l -1.00098,-0.10705 c 0,0 -1.02242,0.99206 -0.81062,2.04361 0.2118,1.05156 1.28319,2.89648 2.01834,4.13682 0.69334,1.16976 3.15647,1.7386 5.72977,1.81655 -0.0511,-0.95496 -0.24883,-4.73397 -0.20723,-6.51113 0.047,-2.00907 0.21599,-5.59089 0.22459,-6.62119 0.008,-0.96038 0.45839,-4.60499 0.52355,-5.13037 -0.23826,-0.0468 -0.47835,-0.0942 -0.54139,-0.19386 -0.3267,-0.51635 0.7412,-3.83439 0.7412,-3.83439 z m 69.41372,53.06525 c 0.0122,0.1304 0.37417,4.08816 0.51958,5.84629 -1.90531,-0.33344 -3.67527,-0.54304 -5.0669,-0.51313 -2.85555,0.0613 -5.04345,-0.37709 -7.17697,-0.97224 l 2.37481,-1.04957 0.53891,0.80466 c 0.53963,0.80436 2.27019,-1.95637 2.27019,-1.95637 l 0.34755,1.61527 2.62021,-1.57114 2.02132,-1.35349 c 2.02123,-1.35278 0.13683,0.90332 0.13683,0.90332 z" /><path
       style="display:inline;fill:#000000;fill-opacity:1;stroke:#000000;stroke-width:0.199999;stroke-opacity:1"
       d="m -161.19969,99.906753 -4.94483,-1.609132 c 0,0 -5.52718,-1.21749 -6.53352,-0.678384 -1.00633,0.539096 -1.83967,2.580393 -1.85601,4.630553 -0.0163,2.05015 0.59153,3.28467 0.59153,3.28467 0,0 0.0664,-6.229807 1.94457,-6.337426 1.87815,-0.107608 6.28014,1.560426 6.28014,1.560426 z"
       id="path8" /><path
       style="display:inline;fill:#000000;fill-opacity:1;stroke:#000000;stroke-width:0.199999;stroke-opacity:1"
       d="m -175.02824,311.25235 c 0,0 0.59898,-7.39284 0.74301,-10.26196 0.14402,-2.8691 0.41387,-7.24498 0.41387,-8.69922 0,-1.45427 0.57228,-0.98321 0.34481,-2.53068 -0.22748,-1.54741 0.68158,-3.52144 0.48248,-5.01129 -0.1991,-1.48983 -0.45664,-3.37025 -0.45664,-6.51935 0,-3.14911 0.55746,-8.71449 0.34185,-10.01542 -0.21561,-1.3009 -0.42233,-2.2684 -0.28721,-4.0408 0.13514,-1.77238 -0.0322,-2.11424 -0.16563,-5.29809 -0.13343,-3.18383 -0.56086,-10.78427 -0.39904,-12.90907 0.16182,-2.12483 -0.49816,-7.64957 -0.20629,-9.42405 0.29186,-1.77452 0.0369,-3.19742 0.16478,-5.67597 0.12793,-2.47851 0.17368,-6.14105 0.19062,-7.31106 0.017,-1.17002 -0.16139,-6.68667 -0.1241,-8.13754 0.0373,-1.45087 0.48333,-7.21917 0.26179,-8.54676 -0.22156,-1.32759 -0.48674,-6.61848 -0.49731,-8.61707 -0.0103,-1.9986 -0.43887,-9.0106 -0.44522,-10.74867 -0.007,-1.73805 -0.11777,-7.05565 -0.13259,-8.41246 -0.0148,-1.35684 -0.28042,-6.29654 -0.28042,-6.97517 0,-0.67862 -0.25501,-1.97657 -0.25501,-1.97657 0,0 -5.83093,-0.92601 -6.85733,-1.38773 -1.02639,-0.46173 -4.20429,-2.70687 -4.20429,-2.70687 0,0 0.40667,7.35301 0.21944,9.07034 -0.18724,1.71731 -0.32618,8.34596 -0.0585,10.43268 0.26772,2.08666 0.61253,7.98798 0.40836,10.86174 -0.20417,2.87377 0.091,9.55114 0.60533,12.70448 0.51427,3.15337 -0.65193,4.55595 -0.65193,6.75448 0,2.19852 0.003,3.5079 -0.0974,7.03404 -0.10082,3.52613 -0.59813,6.58626 -0.31431,11.53995 0.28382,4.95371 0.14572,11.06045 0.12835,13.69744 -0.0174,2.63697 0.30965,12.79046 0.3355,15.30459 0.0258,2.51412 -0.30797,7.03785 0.10671,9.24318 0.41472,2.20531 0.26984,9.5943 0.26984,9.5943 0,0 -0.7214,9.25168 -0.82857,12.23048 -0.10716,2.97883 -0.0148,5.15112 -0.47444,10.68428 -0.45961,5.5332 -1.16533,8.52262 -0.81079,9.33638 0.35456,0.81374 2.87205,1.82194 5.75214,1.87658 2.8801,0.0547 5.71529,-1.60973 6.63154,-2.70177 0.91627,-1.09206 0.14658,-2.45737 0.14658,-2.45737 z"
       id="path9" /><path
       id="path10"
       style="display:inline;fill:#000000;fill-opacity:1;stroke:#000000;stroke-width:0.199999;stroke-opacity:1"
       d="m -179.71203,85.598588 c -2.47045,-0.01727 -3.87968,1.835922 -3.87968,1.835922 0,0 -0.27667,5.318222 -0.38677,7.948343 -0.11007,2.630121 -0.31614,1.273377 -0.43974,3.569402 -0.12363,2.296035 0.0464,3.580805 -0.006,4.624285 -0.0528,1.04348 -0.37577,3.13667 -0.37577,3.13667 0,0 -0.5667,-1.37212 -0.70758,-1.64654 -0.14088,-0.27442 0.3298,-1.3582 0.3298,-1.3582 l -1.20579,-1.28275 c 0,0 -0.17907,-0.18281 -1.89238,0.1444 -1.71329,0.32724 -1.31371,1.38719 -1.31371,1.38719 l 0.851,0.57466 c 0,0 1.34475,-1.31436 2.17369,-0.70608 0.82895,0.60828 0.24716,1.42338 0.24436,2.34563 -10e-4,0.43853 0.3383,0.68167 0.78803,0.82901 0.0944,0.49789 0.27839,1.60151 0.22387,2.39359 -0.0724,1.05157 -0.38431,3.01553 -0.5207,4.28649 -0.13637,1.27098 -0.63054,4.09174 -0.54468,5.06153 0.0859,0.96978 0.42524,3.39037 0.41726,4.7832 -0.008,1.39284 -0.47403,3.12001 -0.40676,3.70683 0.001,0.0122 0.0193,0.0409 0.0255,0.0581 l -0.044,-0.0244 c 0,0 0.0365,6.06615 0.0365,6.54917 0,0.48304 -1.33619,3.07421 -0.86098,4.11957 0.4752,1.04538 0.6596,1.81711 0.6596,3.20914 0,1.392 -0.26284,2.79536 -0.26284,2.79536 l 3.09116,-0.0265 c 0,0 -0.23552,-1.10664 -0.53219,-2.46505 -0.29669,-1.35839 -0.88997,-4.15256 -0.88997,-4.15256 0,0 2.49783,-0.84024 4.43985,-0.41925 1.94202,0.421 5.12444,2.78288 5.12444,2.78288 l 0.0374,-1.17832 c 0,0 -0.17194,-0.17173 -0.26534,-0.26435 0.0311,-0.46522 0.0807,-1.27269 0.0929,-2.24218 0.0166,-1.32577 0.18446,-5.31194 -0.0235,-7.13333 -0.20795,-1.82139 -0.54946,-7.95327 -0.82651,-9.43546 -0.27705,-1.48218 -0.13086,-3.91879 0.0494,-5.2879 0.11839,-0.89871 0.21039,-1.86017 0.27333,-2.5535 0.0122,0.0137 0.0239,0.0261 0.036,0.0404 0,0 0.43843,-2.71953 0.5097,-4.39093 0.10315,-2.42053 0.9565,-6.19376 0.97592,-8.182209 0.0195,-1.988454 0.22246,-3.235664 -0.002,-4.702733 -0.22447,-1.46707 0.52427,-5.245873 0.40376,-6.099925 -0.12053,-0.854065 -0.53694,-1.410783 -3.91667,-2.403589 -0.52808,-0.155129 -1.02212,-0.222656 -1.47961,-0.225875 z" /><path
       id="path14"
       style="display:inline;fill:#000000;fill-opacity:1;stroke:#000000;stroke-width:0.199999;stroke-opacity:1"
       d="m -78.934494,273.52949 5.90348,9.20893 -8.672644,-6.03954 4.48382,5.524 -4.674629,-1.15817 c 0,0 4.70406,6.61279 3.07373,6.98773 -1.630353,0.375 -24.862453,3.62307 -28.134393,3.70783 -3.27195,0.0847 -20.17344,-0.0967 -20.17344,-0.0967 l -4.28504,-0.0824 5.91518,-8.81083 -8.42974,7.51874 -0.64047,-5.3507 -2.3227,5.58457 -4.04956,-7.11055 0.47303,7.69946 c 0,0 -0.32696,-0.97142 -6.78684,0.0957 -6.45989,1.06716 -14.21362,-0.0484 -14.21362,-0.0484 l 5.0132,2.08617 -14.81636,5.4262 -15.04968,6.15434 -8.14804,-26.87259 5.53991,27.62042 -9.44385,-15.09223 6.5466,15.19906 -10.14758,-4.81016 8.50309,6.38236 -6.86338,-1.51957 9.39071,10.99852 0.97904,1.53287 h 170.444418 l 0.08666,0.11161 8.535506,-0.0919 v -30.23222 l -7.824351,-1.89321 -0.995524,1.19161 c -0.603982,-0.0432 -24.108314,-1.73021 -25.829771,-2.40399 -1.743563,-0.68245 -6.963814,-3.27943 -6.963814,-3.27943 l 3.049801,3.94379 -5.97152,-1.13476 c 0,0 -3.498332,-0.23199 -7.004763,-0.68247 -0.44725,2.47654 -1.849421,4.94199 -2.217437,5.55696 5.888899,6.61158 13.150739,15.51231 12.025907,18.12765 -1.852328,4.30689 -4.224058,5.65928 -8.053946,6.04698 -3.829877,0.38774 -5.655827,0.9751 -7.790876,-0.0297 -2.13506,-1.00493 -0.778895,-1.6394 -1.721563,-2.01815 -0.942645,-0.37871 -2.844667,0.082 -4.731484,-1.46747 -1.886828,-1.54939 -4.860724,0.36352 -6.482822,0.48952 -1.622065,0.12595 -1.855503,-2.31527 -1.855503,-2.31527 0,0 5.494973,-6.89045 6.521631,-8.64606 1.02666,-1.75559 6.993067,-3.67539 6.993067,-3.67539 l 0.574563,-2.4428 -2.530522,-6.96438 v -4.71714 c 0,0 0.368037,0.38923 0.408195,0.43053 l 0.112676,-1.577 c -3.085314,-2.63008 -7.748335,-7.06216 -7.748335,-7.06216 z" /><rect
       style="fill:#000000;fill-opacity:1;stroke-width:0.23348;stroke-dasharray:0.700439, 0.700439"
       id="rect6-5"
       width="196.49458"
       height="4.3596401"
       x="-205.41304"
       y="54.352016"
       ry="0" /><path
       id="rect1-6"
       style="fill:#000000;fill-opacity:1;stroke-width:0.147916;stroke-dasharray:0.44375, 0.44375"
       d="m -205.41327,314.12271 v 4.36012 h 67.12132 l 9.06029,-4.36012 z m 78.72869,0 0.1365,0.0937 v -0.0937 z" /><rect
       style="fill:#000000;fill-opacity:1;stroke-width:0.233478;stroke-dasharray:0.700439, 0.700439"
       id="rect3"
       width="402.24988"
       height="4.3563457"
       x="-205.49599"
       y="-9.2517605"
       ry="0" /></g></svg>
