<?xml version="1.0" encoding="UTF-8" standalone="no"?>
<!-- Created with Inkscape (http://www.inkscape.org/) -->

<svg
   width="428.09518mm"
   height="412.68939mm"
   viewBox="0 0 428.09518 412.68939"
   version="1.1"
   id="svg1"
   xml:space="preserve"
   inkscape:version="1.3.2 (091e20ef0f, 2023-11-25)"
   sodipodi:docname="hack.svg"
   inkscape:export-filename="meerkats.png"
   inkscape:export-xdpi="96"
   inkscape:export-ydpi="96"
   xmlns:inkscape="http://www.inkscape.org/namespaces/inkscape"
   xmlns:sodipodi="http://sodipodi.sourceforge.net/DTD/sodipodi-0.dtd"
   xmlns="http://www.w3.org/2000/svg"
   xmlns:svg="http://www.w3.org/2000/svg"><sodipodi:namedview
     id="namedview1"
     pagecolor="#ffffff"
     bordercolor="#000000"
     borderopacity="0.25"
     inkscape:showpageshadow="2"
     inkscape:pageopacity="0.0"
     inkscape:pagecheckerboard="0"
     inkscape:deskcolor="#d1d1d1"
     inkscape:document-units="mm"
     inkscape:zoom="0.15596975"
     inkscape:cx="2510.1021"
     inkscape:cy="1086.7492"
     inkscape:window-width="2560"
     inkscape:window-height="1531"
     inkscape:window-x="0"
     inkscape:window-y="0"
     inkscape:window-maximized="1"
     inkscape:current-layer="layer3" /><defs
     id="defs1" /><g
     inkscape:label="Layer 1"
     inkscape:groupmode="layer"
     id="layer1"
     style="display:inline"
     transform="translate(216.33766,17.401945)" /><g
     inkscape:groupmode="layer"
     id="layer2"
     inkscape:label="Layer 2"
     style="display:none"
     transform="translate(216.33766,17.401945)"><path
       id="path1"
       style="fill:#000000;fill-opacity:1;stroke-width:0.2;stroke-dasharray:0.600001, 0.600001"
       d="m 113.2644,28.590503 c -3.87659,-7.93e-4 -2.42705,-0.02574 -6.78253,0.345715 -4.19755,0.605944 -4.41119,0.483121 -9.977166,0.288872 -5.56599,-0.194249 -9.658889,1.140812 -13.485482,1.726509 -3.826594,0.585703 -5.961034,1.632129 -8.885763,2.545581 -2.92473,0.913453 -10.664522,6.515103 -13.500984,9.02839 -2.836459,2.513281 -5.228249,5.848747 -6.754627,8.828401 -1.526378,2.979655 -2.509924,6.208924 -2.509924,6.208924 0,0 9.492982,-3.493133 13.884424,-4.325318 4.391438,-0.832188 9.217525,-0.708484 9.217525,-0.708484 0,0 -10.685876,2.419859 -13.500468,3.410128 -2.814591,0.990272 -8.348489,2.427939 -10.028328,3.400309 -1.679839,0.972367 -3.570325,3.311426 -3.570325,3.311426 0,0 2.436326,-0.89917 4.426603,-0.89917 1.990277,0 6.9992,2.13837 10.488249,4.227649 3.489043,2.089276 7.288325,5.17576 9.482108,6.821806 2.193784,1.646044 6.664193,3.320211 6.664193,3.320211 0,0 -3.3632,0.612589 -9.800952,-3.447335 -6.437752,-4.059924 -12.734817,-9.412144 -16.385046,-9.225277 -3.650233,0.186868 -5.77631,1.926204 -6.756694,4.489132 -0.980381,2.562928 -2.980152,7.599546 -1.547192,10.40815 1.432953,2.808604 3.6495,8.878814 7.12928,12.873116 3.479783,3.994302 7.059116,9.753372 9.023739,10.705292 1.964623,0.95191 2.503197,0.96748 4.044714,0.86816 1.541521,-0.0993 2.534639,-1.79458 3.57911,-2.07946 1.044474,-0.28488 2.367297,-0.57929 2.367297,-0.57929 0,0 -2.117837,1.0647 -3.208589,2.4014 -1.090753,1.33669 -2.712548,2.06475 -5.847705,1.83193 -3.135158,-0.23281 -7.867271,-6.824491 -10.317717,-9.37927 -2.450442,-2.554775 -3.334163,-4.167704 -3.334163,-4.167704 0,0 0.548356,3.311786 0.01292,6.788216 -0.535445,3.476438 -0.304837,11.727768 0.112138,16.078608 0.416973,4.3508 3.757323,9.75955 3.766695,16.43207 0.0094,6.67253 1.44377,2.95765 0.173633,8.29562 -1.270137,5.33794 0.178833,5.75467 -0.510047,9.57822 -0.688874,3.82357 -0.59215,8.97635 -1.567346,13.35371 -0.975195,4.3774 -0.461349,7.54027 -1.883606,12.51293 -1.422257,4.97268 -2.307863,7.11241 -3.140377,8.65425 -0.832516,1.54187 -2.708362,4.99143 -2.708362,4.99143 l 127.166915,0.35088 c 0,0 -1.21564,-2.73177 -4.2106,-6.9143 -2.99493,-4.18256 -1.02438,-5.11607 -5.45961,-8.90592 -4.43526,-3.78985 -4.85071,-4.25959 -7.75043,-8.17883 -2.89975,-3.9192 -4.9988,-7.34246 -7.4843,-10.28516 -2.4855,-2.94271 -6.84336,-3.04792 -7.89719,-7.51685 -1.05384,-4.46895 -2.39391,-6.01951 -0.85731,-11.14971 1.53657,-5.13017 0.17431,-11.07563 3.22254,-12.75168 3.0482,-1.67603 0.48607,-3.67891 4.38061,-5.66993 3.8945,-1.99105 5.40052,-6.04681 8.02432,-7.44709 2.62376,-1.40031 3.0512,-0.69275 10.42416,-3.08767 7.37299,-2.39491 8.0684,-2.10048 9.55756,-3.82354 1.48915,-1.72306 5.46397,-3.87361 5.46323,-5.731951 -7.9e-4,-1.858337 0.0641,-3.630786 0.0641,-3.630786 0,0 -0.21668,2.202976 -4.55941,1.683102 -4.34275,-0.519877 -4.73405,-1.100465 -8.16798,0.502811 -3.43395,1.603275 -4.05332,3.570049 -10.05261,2.521294 -5.99932,-1.048758 -6.92979,-3.397896 -11.77965,-2.971395 -4.84983,0.426497 -11.25461,0.973584 -11.25461,0.973584 0,0 9.29985,-3.728599 13.00903,-2.957443 3.70917,0.77116 8.29631,3.474389 12.40079,3.355351 4.10452,-0.119039 8.07509,-4.149221 10.17096,-4.004407 2.09587,0.144814 5.31942,1.689108 7.10809,1.275892 1.78866,-0.413218 2.94312,-0.863276 4.39767,-1.254187 1.45453,-0.390911 0.88414,0.431235 -3.56413,-1.086756 -4.44828,-1.517991 -4.70968,-3.080561 -5.16661,-4.393013 -0.45693,-1.312452 -0.57722,-5.113383 -0.57722,-5.113383 0,0 0.77741,5.194572 2.312,6.047176 1.53459,0.852604 4.79016,2.609009 6.92413,2.7373 2.13393,0.128294 4.11839,1.331745 7.12979,0.11989 3.01144,-1.211855 4.71883,-2.959335 4.78627,-4.662248 0.0674,-1.702911 -0.23977,-5.623429 -0.23977,-5.623429 0,0 1.00965,-0.39623 1.11414,-1.977657 0.1045,-1.58143 -1.23901,-3.630046 -1.38493,-4.505152 -0.14592,-0.875107 -4.46593,-4.317618 -7.62744,-6.132442 -3.16152,-1.814824 -11.21592,-7.577446 -13.08034,-9.259383 -1.86442,-1.681937 -4.55525,-3.975402 -5.77639,-5.650301 -1.22115,-1.674899 -0.85266,-2.757971 -0.85266,-2.757971 0,0 -0.20663,-0.123269 -1.13172,-2.0283 -0.92506,-1.905033 0.97837,-2.246615 -1.5291,-6.096269 -2.50747,-3.849655 -3.85982,-6.064019 -5.61723,-6.605798 -1.75741,-0.541782 -3.30144,0.950917 -4.96714,0.4408 -1.66571,-0.510116 -0.22096,0.702268 -6.89984,-1.179257 -6.67884,-1.881528 -12.80667,-3.485284 -17.69814,-4.383195 -4.89145,-0.897914 -6.56255,-1.186799 -10.43916,-1.187524 z m 20.73362,14.64045 c 0.2445,-0.0339 0.52791,0.0012 0.90124,0.145728 1.49332,0.578174 6.4679,4.625529 8.08943,4.855 1.62153,0.229473 -0.22118,-4.316532 -0.22118,-4.316532 l 3.36259,7.179407 c 0.46761,1.389728 0.15089,0.927802 0.15089,1.920813 0,0.993011 1.98886,3.578864 4.42971,6.153629 2.44083,2.574768 1.96104,2.909896 0.71623,5.174361 -1.24156,2.258543 -3.90367,3.945202 -5.20433,4.310332 -1.30066,0.365126 0.63651,-2.310956 0.0146,-3.96596 -0.62194,-1.655007 -2.30321,1.414378 -3.00664,3.325689 -0.70343,1.911312 -3.95739,3.574645 -6.28127,4.858618 -2.32385,1.283972 -1.32734,-0.416392 -2.53162,-1.148767 -1.2043,-0.732377 -1.63114,2.155856 -4.58991,3.345532 -2.95876,1.189673 -7.26034,-0.597378 -8.82426,-3.15743 -1.56393,-2.560056 -5.37223,-4.281316 -7.41712,-4.514453 -4.53483,-1.137821 -2.97033,-0.920981 -7.95607,-2.312053 -2.15136,-0.818146 -4.66642,-0.07075 -4.66642,-0.07075 0,0 -0.0548,-1.889622 -1.027324,-4.414957 -1.28592,-3.339054 -5.711579,-6.439865 -9.094019,-7.064962 l 0.939009,-0.337018 c 2.305662,0.269215 3.056484,0.175552 5.716399,1.048603 4.590075,1.506577 5.187225,2.361817 8.236185,0.941027 1.83312,-0.85422 3.50403,-3.727763 8.19589,-5.855456 4.69184,-2.127693 4.97033,-3.278658 9.51983,-3.861263 4.54948,-0.582607 6.14193,-0.787521 8.02173,-1.144633 1.40986,-0.267837 1.79298,-0.992792 2.52646,-1.094507 z m -5.79138,7.808826 c -3.7828,-0.04981 -5.77282,1.021917 -7.15305,1.906343 -1.47224,0.943389 -3.90157,2.292367 -3.90157,2.292367 0,0 1.00521,2.69053 3.69797,4.929415 2.7226,2.263694 3.82385,2.90523 6.80217,2.787943 4.02348,-0.158446 4.82847,-0.371841 6.34225,-1.012858 1.51376,-0.64102 1.19595,-2.279015 2.50889,-1.888257 1.31291,0.390761 3.31866,0.399976 3.31866,0.399976 0,0 -3.70139,-1.53218 -5.74332,-4.615739 -1.07393,-1.621759 -0.79607,-4.555048 -5.09168,-4.773869 -0.26848,-0.01368 -0.52813,-0.022 -0.78032,-0.02532 z m 0.0755,2.662369 c 1.07702,-7.7e-5 1.95019,0.85481 1.95027,1.909445 -8e-5,1.054635 -0.87325,1.909521 -1.95027,1.909444 -1.07682,-2.04e-4 -1.94967,-0.855008 -1.94975,-1.909444 8e-5,-1.054436 0.87293,-1.909241 1.94975,-1.909445 z M 173.022,75.311165 c 1.69078,0.188365 3.81383,0.456067 3.9026,1.8526 0.0888,1.396537 2.0004,2.935222 2.0004,2.935222 0,0 -1.20035,-1.82229 -0.79272,-2.71353 0.40762,-0.891244 2.50113,-0.823298 3.63027,0.29714 1.12915,1.120442 2.76823,0.368633 1.71307,2.781225 -1.05517,2.412592 -1.921,4.310794 -4.19509,3.200322 -2.27409,-1.110472 -4.00038,-1.019674 -4.56251,-2.684591 -0.56213,-1.664914 0.67621,-2.348701 -0.17208,-3.239595 -0.84832,-0.890891 -1.52394,-2.428793 -1.52394,-2.428793 z"
       sodipodi:nodetypes="scssssscscsscssscsssssssscssscsscsssssccsscssssccssccsssscssssssscsssscssssscsssssscscsccsssssssssssscsscsssssssccsssscsssccscccscsssssscsc" /></g><g
     inkscape:groupmode="layer"
     id="layer3"
     inkscape:label="Layer 3"
     style="display:inline"
     transform="translate(216.33766,17.401945)"><rect
       style="fill:#ffffff;stroke:#000000;stroke-width:0.2"
       id="rect2"
       width="565.89386"
       height="488.61707"
       x="-285.73929"
       y="-70.71595"
       ry="0.81021029" /><path
       style="fill:#000000;fill-opacity:1;stroke-width:0.233479;stroke-dasharray:0.700439, 0.700439"
       d="m 89.790837,11.593393 c -0.706276,0.874027 -0.354364,3.045824 -1.605814,4.149952 -1.251454,1.104125 -5.604484,4.186158 -6.863877,4.619819 -1.259392,0.433666 -2.783867,1.766348 -3.493474,2.624301 -0.709607,0.857952 -0.478427,1.977364 -0.478427,1.977364 0,0 0.536137,-0.26949 0.36099,0.895425 -0.175146,1.164914 0.845143,2.784757 1.564252,2.660778 0.719107,-0.12398 3.134627,1.135009 2.996434,2.201992 -0.138191,1.066986 -0.597893,1.824082 2.495657,3.130108 3.093551,1.306027 6.512024,1.554482 7.307092,2.710118 0.795056,1.155636 3.604432,3.302226 4.044949,5.371872 0.440529,2.069643 1.554133,4.645292 0.456254,6.439228 -1.097879,1.793935 -1.945,2.461765 -2.537093,4.311375 -0.592092,1.849611 -3.019717,3.03517 -4.353725,5.599385 -1.334004,2.564214 -0.592244,3.860783 -3.686744,6.711358 -3.094499,2.850574 -8.360918,9.864441 -10.048401,14.450751 -1.687483,4.586307 -3.583406,13.967604 -3.583406,13.967604 0,0 -8.868174,6.43893 -9.93701,9.013977 -1.068834,2.57503 -2.531728,7.9169 -2.337796,10.95036 0.193936,3.03346 -0.356521,6.97114 -1.366143,9.54994 -1.009621,2.57878 -1.062157,4.82108 -1.062157,4.82108 0,0 -0.942143,0.79359 -1.023874,2.24275 -0.08173,1.44915 1.046391,5.69835 1.046391,5.69835 l 0.41145,-3.43537 1.201565,0.51927 c 0,0 -0.723849,-3.4115 0.508209,-3.89736 1.232055,-0.48587 2.963592,-0.44603 3.422538,-1.35729 0.458947,-0.91126 2.463435,-4.64717 2.463435,-4.64717 l 0.76758,-1.25505 c 0,0 0.141721,3.10789 -0.456945,4.3401 -0.598665,1.23221 -1.6828,3.51398 -2.161925,4.89422 -0.479125,1.38022 -0.464917,2.17855 -0.357278,3.16168 0.107646,0.98313 1.241059,2.98749 1.241059,2.98749 0,0 -0.0022,-1.39559 0.555154,-2.59197 0.557214,-1.19639 0.396927,-3.41213 0.396927,-3.41213 l 0.61815,0.66074 1.073413,-2.01348 c 0,0 0.855704,0.73276 2.131152,0.001 1.275452,-0.73163 2.571316,-3.28296 2.571316,-3.28296 0,0 -1.274466,5.38398 -2.031479,8.13339 -0.757009,2.74943 -1.468729,10.6663 0.358245,15.68125 1.826973,5.01497 6.712189,13.13367 6.829074,14.61653 0.116887,1.48284 0.116576,18.49772 0.863144,23.18217 0.746569,4.68444 2.415394,8.23144 3.120803,12.21844 0.705409,3.98699 1.828414,9.39826 3.179259,10.76586 1.350842,1.3676 8.187968,8.2967 9.032276,10.56821 0.84432,2.27151 2.271696,8.25476 1.163276,10.5591 -1.10842,2.30435 -2.346526,6.1592 -2.609039,7.10179 -0.262513,0.9426 -0.380875,1.5089 -0.380875,1.5089 0,0 -1.979742,0.60265 -3.62309,1.93411 -1.643345,1.33146 -2.052053,2.69818 -2.052053,2.69818 0,0 -0.890413,-0.10215 -1.801717,1.51162 -0.911301,1.61379 -1.42052,3.71476 -1.42052,3.71476 l 1.780114,-0.94864 0.818994,1.15369 3.152718,-1.87121 -0.08605,1.43297 3.019207,-1.37927 2.25122,0.33093 2.502421,-1.03114 0.801605,0.63779 9.025822,-3.4634 c 0,0 1.21614,-3.28883 1.80789,-5.00385 0.59174,-1.71499 1.1019,-5.35848 1.90798,-6.76577 0.8061,-1.40729 3.1874,-9.34446 3.32635,-10.7548 0.13896,-1.41035 0.98121,-5.49063 -0.0148,-6.74661 -0.99607,-1.25598 -0.63633,-4.43849 -0.77808,-6.84557 -0.14177,-2.40708 -0.009,-5.58044 1.08511,-6.12202 1.09456,-0.54156 1.8219,1.94134 3.59592,5.47079 1.77401,3.52946 6.54561,11.80114 7.69931,14.26906 1.15371,2.46791 3.0059,7.16444 3.0059,7.16444 v 0 c 0,0 0.74052,1.26351 -0.29113,3.12707 -1.03165,1.86358 -2.95156,4.69957 -0.96264,5.11646 1.98891,0.41689 6.18144,-0.46304 8.45088,-0.46304 2.26942,0 3.77119,0.60475 3.37491,-2.10951 -0.39629,-2.71425 -0.60922,-10.83236 -2.26276,-13.09915 -1.65353,-2.26679 -10.62667,-20.55336 -10.96515,-25.65564 -0.33847,-5.1023 -0.56539,-14.82698 0.32324,-17.16942 0.88864,-2.34243 -2.69118,-16.95024 -3.66593,-20.34105 -0.97475,-3.39081 -5.48222,-10.37677 -5.41858,-13.20198 0.0636,-2.82521 0.96555,-5.89617 0.28473,-8.35656 -0.68081,-2.46039 -1.40048,-7.30633 -1.08716,-8.59198 0.31332,-1.28565 -0.57204,-2.52037 -0.32562,-6.07326 0.24641,-3.55289 1.0355,-8.20534 1.17447,-11.5827 0.13897,-3.37736 0.61135,-11.10144 1.9075,-13.618239 1.29614,-2.516803 4.55628,-10.504846 5.52442,-13.234676 0.96814,-2.729829 1.10711,-8.050469 1.10711,-10.676091 0,-2.625622 -0.33544,-5.997857 0.67498,-7.634628 1.0104,-1.63677 -0.0923,-3.826805 0.86618,-7.540361 0.95859,-3.713557 2.19478,-7.218388 1.68527,-10.406052 -0.50951,-3.187664 -2.7683,-2.428277 -1.55441,-5.614669 1.21389,-3.186392 3.00828,-7.110856 2.86932,-8.859424 -0.13897,-1.748569 0.63645,-5.29635 0.36428,-6.938779 -0.27215,-1.642427 -0.67712,-8.061853 -3.46512,-10.689205 C 123.42045,13.844464 117.5029,9.9060399 112.31609,9.3780776 107.12927,8.8501152 103.39675,8.135597 101.34021,8.5062911 99.283648,8.8769852 96.686972,9.4095786 94.510419,9.9565053 92.333877,10.503433 90.698715,10.426494 89.790866,11.593233 Z"
       id="path4" /><rect
       style="fill:#000000;fill-opacity:1;stroke-width:0.233479;stroke-dasharray:0.700439, 0.700439"
       id="rect5"
       width="191.04346"
       height="4.2386951"
       x="0.41878569"
       y="372.11716"
       ry="0" /><rect
       style="fill:#000000;fill-opacity:1;stroke-width:0.233479;stroke-dasharray:0.700439, 0.700439"
       id="rect6"
       width="191.04346"
       height="4.2386951"
       x="0.41878569"
       y="0.25178018"
       ry="0" /><path
       id="rect1"
       style="fill:#000000;fill-opacity:1;stroke-width:0.147916;stroke-dasharray:0.443749, 0.443749"
       d="m 0.41856735,252.81595 v 4.23917 H 65.677813 l 8.808937,-4.23917 z m 76.54460265,0 0.132719,0.0911 v -0.0911 z" /><path
       style="display:inline;fill:#000000;fill-opacity:1;stroke-width:0.233479;stroke-dasharray:0.700439, 0.700439"
       d="m 67.877933,257.09279 c 0,0 8.334885,-4.32836 10.27253,-5.12849 1.937644,-0.80013 3.648526,-1.81098 3.648526,-1.81098 0,0 -1.980424,1.97206 -0.444111,2.11282 1.536314,0.14077 9.123509,-0.59314 12.471195,-1.2098 3.347675,-0.61665 11.648217,-4.46447 13.726147,-5.01883 2.07793,-0.55438 8.79193,-2.84438 8.1367,-3.1577 -0.65523,-0.3133 -8.01733,1.21775 -8.01733,1.21775 0,0 3.68027,-2.33821 5.91169,-2.54998 2.23143,-0.21178 10.64923,-2.78835 10.64923,-2.78835 0,0 7.23025,0.24013 9.10544,0.24013 1.87519,0 7.97485,-0.67901 10.50244,-0.54005 2.52759,0.13897 8.11578,-0.99118 8.11578,-0.99118 0,0 -14.46412,-0.64644 -12.80847,-1.06609 1.65565,-0.41963 7.63783,-2.4924 8.50836,-2.22988 0.87053,0.26254 2.07122,0.84265 2.07122,0.84265 0,0 6.645,-1.55792 8.22472,-1.20213 1.57972,0.35579 2.98153,1.13778 4.19738,1.36125 1.21583,0.22348 9.673,-2.32373 13.69016,-3.01305 4.01715,-0.68933 15.39961,-2.77597 15.39961,-2.77597 l 0.44214,27.57197 z"
       id="path5" /><path
       id="path18"
       style="fill:#000000;fill-opacity:0.306165;stroke-width:0.270259;stroke-dasharray:0.810779, 0.810779"
       d="M 3.1584635,6.1298584 C 6.8033954,15.159184 19.667771,40.157572 57.921012,63.876204 20.538245,92.424021 17.234429,126.94927 69.773002,158.86317 c -1.21263,-3.914 -4.142887,-13.54737 -5.323706,-19.15128 -0.882078,-0.62532 -1.760233,-1.25032 -2.591056,-1.87328 l -3.179651,-0.42736 C 55.005696,136.91749 54.731214,134.82836 54.7672,131.97592 32.560564,111.53814 38.278013,92.093062 70.067558,70.878361 c 0.06394,0.03418 0.137496,0.06713 0.201538,0.101286 l -0.07752,-0.162781 12.530502,-7.385596 0.274918,0.0067 c -0.149725,-0.0724 -0.313972,-0.145173 -0.463537,-0.217557 0.684628,-0.39085 1.487439,-0.791745 2.18798,-1.183908 1.794662,-2.594597 3.917383,-5.689807 5.437911,-10.744047 0.718276,-2.387551 0.60696,-4.641064 -0.167432,-6.611482 C 82.307502,48.39098 75.232764,52.269616 68.858841,56.297838 26.654981,33.767559 9.7438478,14.00916 4.1801066,6.1298584 Z m 64.6813235,0 c 5.385376,0.9955841 11.032471,1.9936676 17.195333,2.957959 1.166561,0.1825296 2.123368,0.3492596 3.24528,0.5286499 1.016042,-1.9393203 2.235005,-2.9620931 2.235005,-2.9620931 0,0 3.103738,-0.2991321 5.356262,-0.5245158 z m 90.441503,0 c -6.72727,5.1044646 -14.89136,10.6406306 -24.68118,16.4243206 0.37376,4.245789 -0.60309,10.142845 -1.43092,14.447697 16.8888,-10.509122 28.93445,-21.311127 37.314,-30.8720176 z M 15.426449,15.780949 c 0,0 22.076347,4.840269 54.391512,8.011914 1.842704,0.180856 3.026589,0.344577 4.749064,0.523482 -0.01054,-0.613511 -0.05572,-1.387068 -0.04238,-1.80144 0.03317,-1.030175 1.29695,-2.250819 2.968811,-3.523299 C 73.74413,18.362829 69.962706,17.833019 66.205778,17.583423 42.423835,16.003414 15.426449,15.780949 15.426449,15.780949 Z m 115.942791,1.116728 c 0.29674,0.385294 0.50578,0.733039 0.74724,1.096057 2.15084,0.526919 3.32642,0.845943 3.32642,0.845943 0,0 -1.68783,-0.826387 -4.07366,-1.942 z M 31.09836,31.941203 c 0,0 12.936151,3.543166 32.456934,6.548437 16.690662,2.56957 23.624143,4.236513 25.676469,4.750098 C 89.111411,43.041944 89.001315,42.841097 88.86641,42.651143 84.399806,40.689459 73.452702,36.276683 62.24788,34.890377 47.769047,33.098994 31.09836,31.941203 31.09836,31.941203 Z m 95.98639,55.077258 -5.01106,12.084017 c 33.20578,22.985802 35.50273,43.957932 4.51548,66.466232 l 1.14774,12.33258 0.23719,2.4815 5.90507,-4.10208 0.0646,0.009 c -0.0357,-0.0199 -0.0641,-0.0384 -0.0997,-0.0584 39.62828,-30.56666 31.22419,-62.72001 -6.75928,-89.212639 z m -77.101754,2.669605 c 0,0 6.214565,2.023672 16.314766,4.859135 0.56982,-0.6586 1.106966,-1.300315 1.532206,-1.866553 C 57.652367,90.917518 49.982996,89.688066 49.982996,89.688066 Z M 45.01224,104.87525 c 0,0 4.5365,1.52605 11.59309,3.67833 0.09484,-0.60263 0.24567,-1.16774 0.42013,-1.72031 -5.431706,-0.88674 -12.01322,-1.95802 -12.01322,-1.95802 z m 75.28998,0.62994 -0.41548,2.42621 c 9.33824,2.45978 13.99036,3.92792 13.99036,3.92792 0,0 -5.36152,-2.9802 -13.57488,-6.35413 z m -1.16634,14.74225 0.69815,4.62607 c 17.70698,4.51052 25.10389,7.05694 25.10389,7.05694 0,0 -10.78781,-6.24061 -25.80204,-11.68301 z m -71.205989,2.24534 c 0,0 2.817182,0.8343 6.796484,1.96164 0.02629,-0.34203 0.04842,-0.68444 0.08733,-1.03043 -2.062122,-0.27144 -6.883817,-0.93121 -6.883817,-0.93121 z m 72.281379,13.16716 -0.22635,3.86178 c 16.84591,3.78395 23.93549,5.98206 23.93549,5.98206 0,0 -9.97365,-5.20748 -23.70914,-9.84384 z m 1.60042,15.63108 c 0.3523,0.83011 0.69214,1.65244 1.079,2.46394 8.69673,1.82205 12.8664,2.93832 12.8664,2.93832 0,0 -5.74316,-2.7661 -13.9454,-5.40226 z m 15.32774,26.86451 -8.74313,6.64869 0.26251,2.74919 c 54.89681,27.31588 59.18967,43.15344 59.18967,43.15344 0,0 2.94629,-21.71043 -50.70905,-52.55132 z M 74.644539,193.33652 C 22.36656,218.51984 7.6436116,239.18368 3.5749756,249.75581 l 3.2644002,0.49662 C 14.155688,241.95979 32.69829,226.70016 78.769352,205.88666 Z m 57.726711,12.93719 2.11718,4.1398 c 0.9666,0.18214 1.70181,0.35351 2.69441,0.53589 27.42237,5.03849 38.37957,8.1318 38.37957,8.1318 0,0 -18.56185,-8.93495 -39.05136,-12.19254 -1.36104,-0.21639 -2.75665,-0.40362 -4.1398,-0.61495 z m -64.817234,6.02134 c 0,0 7.108204,2.29781 18.819523,5.52576 l -3.507279,-3.33003 c -7.953075,-1.16272 -15.312244,-2.19573 -15.312244,-2.19573 z m 49.670874,7.7339 -1.00614,5.27409 c 1.63315,0.37115 3.30474,0.74319 5.00331,1.11673 l -2.4815,-6.12831 c -0.50669,-0.09 -1.00784,-0.17326 -1.51567,-0.26251 z m -71.971838,5.55728 c 0,0 16.325028,5.40381 42.624271,11.61686 l 2.856674,-4.60747 c -22.948829,-3.92609 -45.480945,-7.00939 -45.480945,-7.00939 z m 96.085608,0.0134 1.68982,5.72213 c 21.60305,5.03292 31.2043,8.08478 31.2043,8.08478 0,0 -14.29493,-7.95439 -32.89412,-13.80691 z m -28.66802,11.41274 -1.71049,5.20175 -0.14934,0.16588 c 28.61202,6.35869 41.11997,10.3172 41.11997,10.3172 0,0 -17.63601,-9.84886 -39.26014,-15.68483 z" /><path
       id="path1-6"
       style="display:inline;fill:#000000;fill-opacity:1;stroke:#000000;stroke-width:0.199999;stroke-opacity:1"
       d="m -152.60386,32.497691 c -1.5341,-0.0145 -2.81981,0.21963 -3.53643,0.80019 -1.43325,1.16113 -4.13162,3.33219 -5.01289,4.36531 -0.88127,1.03311 0.25993,3.14341 0.25993,3.14341 l -0.99209,0.66123 0.91581,1.35551 5.28836,1.77284 c 0,0 -3.16187,0.58914 -4.30454,0.79339 -1.14266,0.20424 -1.41096,1.55315 -1.67711,2.32962 -0.26617,0.77647 0.50151,3.22284 1.97882,3.88141 1.4773,0.65856 4.70576,2.05217 8.22963,3.21628 3.52386,1.16411 3.56618,2.7129 4.81661,4.84047 1.25045,2.12754 2.74997,6.32743 4.4464,7.84346 1.69643,1.51603 5.40345,1.64434 7.51788,1.2972 2.11444,-0.34714 1.338,1.40847 1.338,1.40847 l 5.07022,-2.64689 0.41879,0.63841 c 0.22555,0.34396 1.25877,-0.3988 2.44231,-1.24619 l 0.17004,1.83406 2.29608,-1.8977 0.25458,3.86538 1.53865,-1.62175 c 0,0 0.18478,2.36573 0.27839,3.98538 0.0936,1.61964 -0.002,4.31994 -1.54837,6.02494 -1.1817,1.30286 -2.7523,2.99431 -3.44169,4.33178 -0.62753,0.69704 -1.22045,1.30439 -1.55614,1.5071 -0.97024,0.5859 -2.02707,1.78872 -2.44863,2.25042 -0.42155,0.46172 -3.19682,1.38273 -3.19682,1.38273 l 2.45155,0.0607 -3.87603,1.49883 1.86659,0.0686 c 0,0 -2.3717,0.78815 -3.01171,1.02708 -0.64001,0.23888 -2.8854,1.72765 -2.8854,1.72765 l -2.47098,-0.64085 c 0,0 1.24677,0.73342 0.59515,0.9129 l -0.65199,0.17927 -1.01006,-1.74029 -0.0505,2.15132 -1.23015,0.0549 -1.38075,-0.0475 c -0.0447,-0.0282 -0.10668,-0.0784 -0.15304,-0.10881 l 0.78511,-0.38626 -1.79857,-0.33279 c -0.18583,-0.14592 -0.29938,-0.20091 -0.5077,-0.37459 l 2.01914,-0.33767 -3.86679,-1.3589 c -0.59428,-0.54625 -1.03385,-0.90517 -1.77914,-1.63291 -5.35509,-5.22908 -8.24236,-6.98822 -9.80715,-10.52144 l 0.88228,-0.36447 -1.15873,-0.37119 c -0.11577,-0.31375 -0.23654,-0.61851 -0.33571,-0.9644 l 0.79532,-0.23272 -1.07079,-1.20052 c -0.0496,-0.39754 -0.0702,-0.77218 -0.0685,-1.13687 0.50006,0.38534 0.91629,0.7205 0.91629,0.7205 l -0.82059,-2.11585 c 0.0247,-0.16439 0.0451,-0.33324 0.0753,-0.48973 0.34188,0.72124 0.65589,1.40408 0.65589,1.40408 0,0 0.48412,-2.00661 0.31919,-2.55018 -0.0812,-0.26771 -0.21776,-0.71842 -0.39596,-1.30693 0.1873,-0.9167 0.14178,-1.60425 -0.66365,-2.10322 -0.41887,-0.25947 -0.88524,-0.43599 -1.37201,-0.59807 -0.0815,-0.75135 -0.24036,-1.98331 -0.45183,-2.42194 -0.31095,-0.64492 -3.70591,-3.7032 -4.16073,-4.09032 -0.45482,-0.38712 -0.68594,1.13843 -0.60584,2.69693 0.018,0.35051 0.027,0.77772 0.0311,1.22287 -0.61643,-0.57639 -1.23665,-1.26684 -1.85396,-2.22079 -0.9615,-1.48584 -2.07592,-2.8272 -3.18128,-4.06166 0.0704,0.58313 0.10349,1.29539 -0.005,2.02888 -0.25247,1.70168 0.4677,4.36602 0.70447,7.47714 0.23676,3.11114 0.58467,9.6147 0.63159,11.52034 0.0258,1.04836 -0.13647,1.81083 -0.2881,2.29463 1.84061,2.62483 3.74827,5.30527 4.47943,6.31016 1.03768,1.42611 4.15739,4.44099 6.77406,7.05639 -2.21553,0.32253 -3.41678,-2.54065 -5.40788,-4.58394 -0.47575,-0.48822 -0.92654,-0.75991 -1.36812,-0.90999 -0.82684,-1.44173 -2.89317,-4.03639 -2.89317,-4.03639 0,0 -4.52565,-3.8094 -6.99123,-4.38377 -0.92459,-0.21537 -1.68846,-0.28417 -2.28199,-0.28567 -0.98919,-0.003 -1.50561,0.18122 -1.50561,0.18122 0,0 0.85848,3.49449 1.41962,4.50036 0.56116,1.00589 2.06264,2.29444 2.58223,2.61093 0.51958,0.3165 3.99117,2.75716 3.99117,2.75716 0.0821,0.0883 0.16416,0.1695 0.24632,0.24925 -0.40258,0.2365 -0.82639,0.57146 -1.25686,0.93137 -1.53288,-1.16743 -3.69688,-2.74986 -4.86568,-3.24691 -0.93873,-0.39919 -2.54048,-0.50444 -4.00623,-0.50334 -1.46574,9.5e-4 -2.79572,0.10882 -3.19148,0.13509 -0.79149,0.0524 0.27725,1.47158 0.755,2.37675 0.25062,0.47483 2.11612,1.84983 3.8391,3.05596 -1.29586,-0.13033 -2.35988,-0.19332 -2.56475,-0.29539 -0.69544,-0.34649 -4.52753,-0.98869 -4.52753,-0.98869 l -0.0918,2.12897 3.5131,4.22636 4.3711,1.997309 c -0.19954,0.56188 -0.37138,1.15344 -0.47564,1.70627 -0.67341,-0.34315 -1.66503,-0.82523 -2.15616,-0.9299 -0.76451,-0.16292 -4.134,-0.40763 -4.134,-0.40763 l -0.20648,1.61884 4.26178,3.35135 1.63193,0.49215 c -0.0975,2.58928 3.05668,2.77674 4.14275,3.1371 0.77172,0.25605 4.47201,0.67289 7.88031,1.54644 l -0.68357,0.67728 2.04101,-0.34253 c 0.26469,0.0822 0.50131,0.18137 0.75451,0.27111 l -0.995,0.60146 2.07599,0.46544 1.60473,0.20551 c 0.3159,0.20323 0.62385,0.38176 0.93378,0.5733 -1.29911,0.14489 -3.37561,0.23612 -3.37561,0.23612 l 4.18162,0.25895 c 0.13646,0.08 0.27614,0.17554 0.41296,0.25314 -0.46656,0.0824 -1.09867,0.20291 -2.01818,0.39449 -2.91031,0.60642 -0.18087,0.0426 4.35895,0.76278 1.87874,0.81294 3.98401,1.41822 6.78863,1.73933 5.30484,0.60737 11.51035,0.76073 17.66074,2.74064 1.03103,0.33191 2.16236,0.64065 3.27213,0.9644 l -0.89443,1.17574 5.82035,0.27645 c 1.18666,0.34681 2.23298,0.6998 3.2731,1.04359 -0.87624,0.51815 -2.70224,1.10967 -2.70224,1.10967 l 4.21612,-0.5937 c 0.0526,0.0194 0.11974,0.0389 0.1715,0.0583 l -1.89186,2.17075 3.10305,-0.29394 -0.11076,3.12301 2.76977,-1.51923 2.40102,-0.66415 c 2.40117,-0.66413 -1.39145,1.59356 -1.39145,1.59356 l 3.50631,-1.52313 0.45328,1.41819 1.37736,-1.36571 c 0.005,7.9e-4 0.006,9.4e-4 0.0104,10e-4 l 0.0744,-0.016 c 0.40694,2.77246 0.81617,4.98057 1.19566,5.76065 1.70343,3.50193 3.5241,4.33814 4.73449,5.6873 0.68469,0.76316 1.41316,2.14522 2.19405,3.78423 l 0.73897,3.18811 0.45133,-0.60731 c 0.16708,0.36852 0.31125,0.67065 0.48634,1.05526 l 0.43822,3.96546 0.70253,-0.92553 c 0,0 0.8971,5.09452 0.97508,6.30382 0.0779,1.20931 -0.0359,4.04661 -0.0359,4.04661 l 0.751596,-1.32102 c 0,0 1.40551,6.88991 1.12131,9.46084 -0.28421,2.57081 -1.05379,5.53862 -1.05379,5.53862 l 1.26173,-0.83225 0.31238,1.21752 c -0.49716,1.43607 -0.96555,2.56544 -1.31417,2.93742 -0.82386,0.87901 -2.381196,2.76199 -3.620486,4.27446 l -1.37736,0.96245 -0.88373,1.41964 c -0.1878,0.0159 -0.40924,0.004 -0.57233,0.0413 -2.22285,0.49305 -2.88483,4.13616 -3.6506,7.04621 -0.55919,2.12487 1.27562,6.2484 2.64394,10.08272 l 0.58009,4.4926 c 0,0 0.18097,-0.69017 0.38284,-1.36717 0.0742,0.29749 0.16742,0.6087 0.22106,0.89104 0.0178,0.0941 0.0454,0.15853 0.0641,0.2507 l -0.35076,2.61044 -0.42317,1.88167 1.27582,-1.95455 -0.70593,5.19707 1.10141,-1.34239 -0.53491,3.76675 c 0,0 1.93566,-3.23308 1.35937,-0.66415 l -0.57669,2.56867 c 0,0 1.05084,0.74437 -0.0704,1.5479 -0.44639,0.31987 -1.00243,0.71266 -1.82483,1.29622 -2.08757,0.41991 -4.59527,1.03493 -6.59914,1.89917 -4.18064,1.80289 -4.50885,3.37807 -7.03593,4.2147 -2.52709,0.83662 -3.75699,3.84837 -3.75699,3.84837 0,0 3.26974,-0.478 4.30939,-0.1195 1.03964,0.35849 4.89602,0.62897 6.28579,0.55631 1.38979,-0.0727 6.91804,0.0104 11.7097,0.71368 4.791486,0.70326 9.041816,-0.88943 11.576086,-0.4732 2.04835,0.33643 6.98546,-0.73481 10.21235,-1.87779 l 1.43419,0.37897 2.68135,-0.55338 -1.34482,-1.24084 c 0.98991,-1.35906 -1.51989,-3.18426 -2.28683,-4.1224 -0.88825,-1.08672 -5.35855,0.0616 -9.57541,-4.06846 0,0 -0.34202,-0.66122 -0.47807,-0.91436 l 0.14916,0.14533 -1.36958,-2.55116 c -0.18041,-0.36997 -0.3568,-0.73067 -0.54269,-1.12959 l 1.26465,-0.27158 -2.2339,-2.51765 2.22028,0.58301 -1.63241,-2.20282 -0.59904,-2.37383 c -0.59889,-2.37391 1.25299,1.17671 1.25299,1.17671 l -2.20379,-4.9245 0.20213,-2.42583 0.54364,1.5168 c 0,0 0.41858,-0.74366 1.41137,-2.60655 0.99282,-1.8629 0.92164,2.02112 0.92164,2.02112 l 1.76991,-5.52843 0.73216,-0.0992 0.12827,-1.05138 c 0.487,-0.14577 0.98741,-0.0888 1.48716,0.18172 l 0.5247,2.15763 0.43047,-0.64325 c 0,0 1.1582,3.10827 1.42981,4.52368 0.2716,1.41543 0.94593,3.20172 0.94593,3.20172 l 0.54074,-1.78208 c 0,0 1.53668,3.09859 1.85008,3.79784 0.31338,0.69926 1.13249,3.43345 1.13249,3.43345 l 0.63402,-2.50161 c 0,0 2.18465,2.84548 2.53851,3.68319 0.35385,0.83782 1.15143,1.97933 1.15143,1.97933 0,0 1.16453,-2.87811 1.68102,-3.10503 0.51649,-0.22692 1.54253,3.09871 1.54253,3.09871 l 2.30094,-1.04116 c 0.11283,1.33618 0.14772,2.9546 0.29344,4.60726 l -0.0812,2.65855 -1.36326,4.42992 0.94545,-0.22496 -0.41491,1.33219 c 0.38694,-1.14375 1.0018,-2.4877 0.75013,1.54791 -0.24024,3.85261 0.37786,3.28478 0.80796,2.50355 0.2367,2.03338 0.48553,2.22368 0.71952,4.12822 0.31619,2.57342 -2.22074,1.63777 -4.68057,3.947 -2.45967,2.30921 -4.17012,3.95379 -6.09582,6.43986 -0.68305,0.88179 -0.56943,1.54033 0.0291,2.01382 -0.36979,0.7334 -0.7205,1.49689 -0.7205,1.49689 l 2.90532,-0.73071 c 1.29029,0.18774 2.91318,0.18177 4.58777,-0.003 0.0246,-0.003 0.0517,0.004 0.0763,0.003 0.0281,0.0807 0.0521,0.15995 0.084,0.24097 0.25582,0.65015 1.64164,2.06193 1.64164,2.06193 0,0 2.01881,-0.641 3.85902,-0.9887 0.40829,0.16534 0.80527,0.30474 1.22237,0.48003 -0.31483,0.16008 -0.65769,0.42883 -0.82009,0.88568 -0.34046,0.95772 -0.55386,2.32331 -0.55386,2.32331 0,0 3.33999,-0.84935 5.91703,-1.5411 1.56494,0.44598 3.15357,0.70031 4.74471,0.48731 5.81823,-0.77888 10.16433,-6.4463 12.96995,-10.50007 2.8058,-4.05388 -0.13658,-4.42213 -1.08099,-5.98462 -0.94439,-1.56251 -5.11155,-1.50977 -7.99059,-2.31603 -2.87902,-0.80626 -2.10987,-3.1681 -2.85479,-5.46721 -0.74491,-2.29904 0.5646,-6.38664 0.82107,-7.95568 0.15764,-0.96384 0.56824,-1.22167 0.91581,-1.31762 l 1.74221,2.22469 c 0,0 -0.0373,-0.8172 0.0598,-1.44491 0.53637,0.35405 0.73572,0.49584 1.67809,1.06546 0.55612,1.07204 0.65394,1.6305 0.65394,1.6305 l 1.37881,-0.46399 c 0.29187,0.16086 0.55966,0.30104 0.85897,0.45767 l 1.22577,1.84329 1.33946,-0.61458 c 0.016,0.006 0.0329,0.0168 0.0491,0.0233 0.30196,0.12381 0.77177,0.23735 1.12228,0.35905 l 1.49883,1.43177 -0.1011,-0.98431 c 0.64727,0.19033 1.26297,0.37393 1.99144,0.55386 l 0.71905,0.49411 0.2332,-0.27888 c 0.51417,0.11906 1.01855,0.2383 1.55371,0.35078 0.91809,0.98573 2.18305,2.17122 2.27082,1.31858 l 0.0874,-0.84974 c 2.83498,0.52023 5.71488,0.94795 8.01197,1.17235 5.23628,0.51149 11.187731,-2.50899 13.71426,-3.295 2.5265404,-0.78597 -3.38844,-2.31679 -5.729,-3.51606 -2.34076,-1.19914 -6.20216,-3.51089 -8.37976,-5.36275 -2.17742,-1.85189 -8.06262,-8.19413 -9.91015,-11.54655 -1.84771,-3.35248 -0.8673,-5.99977 -1.36569,-10.16922 -0.49841,-4.16927 -0.34928,-4.54246 -0.84828,-6.12163 -0.47903,-1.51585 0.9165,-4.29816 1.03143,-4.52369 3.74502,-3.38381 5.93351,-7.65988 7.54704,-11.78902 2.61227,-6.68523 2.47686,-7.32999 1.93024,-10.49714 -0.54665,-3.16725 -4.6569,-7.29404 -6.08661,-9.36562 -1.42969,-2.07162 -4.35093,-9.14177 -5.96998,-11.94641 -1.61905,-2.80465 -7.45982,-13.91972 -12.42534,-20.29226 -4.96537,-6.37262 -8.70845,-8.75142 -11.0373,-11.30413 -2.32883,-2.55277 -2.99254,-6.378839 -4.66698,-10.857159 -1.67442,-4.47849 -5.16245,-9.54452 -8.21358,-13.5293 -3.05096,-3.98477 -6.4129,-11.49213 -8.38267,-12.96232 -1.96979,-1.47016 -6.99869,-2.74677 -9.45735,-3.47621 -2.45865,-0.72944 -4.07538,-6.4473 -6.014196,-8.75589 -1.93882,-2.30857 -5.33915,-7.84982 -7.14817,-9.0056 -1.809,-1.15577 -5.30623,-2.60553 -4.70194,-2.37092 0.60439,0.2346 5.47117,-2.82277 6.47137,-3.81242 1.00037,-0.98964 -3.18089,-2.30799 -6.00496,-2.64979 -2.82422,-0.34178 -6.5133,0.12474 -8.2651,-0.16762 -1.75181,-0.29236 -4.90547,-2.07858 -7.16759,-2.71392 -2.26209,-0.63534 -4.44564,-0.0621 -9.15564,-0.01 -4.70999,0.0524 -8.1804,-1.58341 -11.60184,-2.4093 -1.71073,-0.41295 -3.49335,-0.67587 -5.02746,-0.69039 z m -29.76737,15.96921 c 0,0 -3.05714,1.51202 -3.50096,1.77187 -0.44383,0.25987 -1.74156,3.10078 -2.07793,3.34358 -0.33639,0.2428 -1.63534,0.49022 -1.63534,0.49022 0,0 -0.29495,1.22819 -0.26575,2.42727 0.0292,1.19911 0.95607,3.6721 1.27776,4.34636 0.32168,0.67428 -0.28956,1.62224 -0.28956,1.62224 l -0.97314,-0.10391 c 0,0 -0.99396,0.96424 -0.78803,1.98662 0.20591,1.02239 1.24706,2.81637 1.96182,4.0223 0.6741,1.13731 3.06918,1.69025 5.57112,1.76605 -0.0497,-0.92848 -0.24207,-4.60269 -0.20163,-6.33055 0.0457,-1.95335 0.21026,-5.43523 0.21863,-6.43695 0.008,-0.93375 0.44532,-4.47784 0.50867,-4.98865 -0.23165,-0.0455 -0.46534,-0.0916 -0.52665,-0.18851 -0.31763,-0.50203 0.72099,-3.72788 0.72099,-3.72788 z m 67.48792,51.593239 c 0.0119,0.12678 0.3639,3.97452 0.50528,5.68389 -1.85246,-0.3242 -3.57289,-0.52754 -4.92593,-0.49847 -2.77635,0.0595 -4.90375,-0.36683 -6.97811,-0.94546 l 2.30871,-1.02026 0.52422,0.78221 c 0.52465,0.78205 2.20716,-1.9021 2.20716,-1.9021 l 0.33815,1.57026 2.54677,-1.5275 1.96522,-1.31566 c 1.96516,-1.315279 0.13362,0.87792 0.13362,0.87792 z" /><path
       style="display:inline;fill:#000000;fill-opacity:1;stroke:#000000;stroke-width:0.199999;stroke-opacity:1"
       d="m -158.0065,44.511211 -4.80766,-1.56449 c 0,0 -5.37384,-1.18371 -6.35226,-0.65957 -0.97842,0.52415 -1.78864,2.50882 -1.80453,4.50209 -0.0159,1.99328 0.57513,3.19355 0.57513,3.19355 0,0 0.0646,-6.05698 1.89061,-6.16161 1.82605,-0.10462 6.10593,1.51714 6.10593,1.51714 z"
       id="path8" /><path
       style="display:inline;fill:#000000;fill-opacity:1;stroke:#000000;stroke-width:0.199999;stroke-opacity:1"
       d="m -171.45142,249.99369 c 0,0 0.58236,-7.18775 0.72239,-9.97726 0.14003,-2.78951 0.40238,-7.04401 0.40238,-8.45791 0,-1.41391 0.55641,-0.95593 0.33525,-2.46045 -0.22117,-1.50451 0.66267,-3.42376 0.4691,-4.87228 -0.19357,-1.4485 -0.44398,-3.27674 -0.44398,-6.33849 0,-3.06175 0.542,-8.47274 0.33237,-9.73757 -0.20964,-1.26481 -0.41062,-2.20549 -0.27924,-3.9287 0.13139,-1.72322 -0.0313,-2.05559 -0.16103,-5.15111 -0.12974,-3.09552 -0.5453,-10.48509 -0.38797,-12.55096 0.15733,-2.06588 -0.48434,-7.43734 -0.20057,-9.16261 0.28376,-1.72528 0.0358,-3.10871 0.16021,-5.51849 0.12438,-2.40977 0.16886,-5.9707 0.18533,-7.10825 0.0165,-1.13756 -0.15691,-6.50119 -0.12066,-7.9118 0.0362,-1.41062 0.46992,-7.01889 0.25452,-8.30965 -0.2154,-1.29076 -0.47322,-6.43486 -0.48352,-8.37801 -0.0102,-1.94316 -0.42667,-8.76063 -0.43285,-10.45049 -0.006,-1.68984 -0.1145,-6.85991 -0.12891,-8.17909 -0.0144,-1.31918 -0.27265,-6.12185 -0.27265,-6.78165 0,-0.65979 -0.24793,-1.92174 -0.24793,-1.92174 0,0 -5.66917,-0.90031 -6.66709,-1.34923 -0.99793,-0.44893 -4.08765,-2.63179 -4.08765,-2.63179 0,0 0.39538,7.14904 0.21334,8.81872 -0.18204,1.66967 -0.31713,8.11443 -0.0568,10.14324 0.26029,2.02881 0.59554,7.7664 0.39702,10.56044 -0.19851,2.79405 0.0885,9.28617 0.58854,12.35204 0.49999,3.06587 -0.63384,4.42954 -0.63384,6.56708 0,2.13753 0.003,3.4106 -0.0947,6.83891 -0.098,3.4283 -0.58154,6.40355 -0.3056,11.21982 0.27594,4.81627 0.14168,10.75361 0.1248,13.31744 -0.0169,2.56381 0.30106,12.43563 0.32619,14.88002 0.0251,2.44437 -0.29942,6.8426 0.10378,8.98674 0.40321,2.14414 0.26235,9.32816 0.26235,9.32816 0,0 -0.70139,8.995 -0.80559,11.89118 -0.1042,2.89618 -0.0144,5.0082 -0.46127,10.38788 -0.44686,5.37969 -1.13301,8.28618 -0.78829,9.07735 0.34472,0.79118 2.79237,1.77141 5.59256,1.82453 2.8002,0.0531 5.55674,-1.56506 6.44758,-2.62682 0.89084,-1.06177 0.1425,-2.3892 0.1425,-2.3892 z"
       id="path9" /><path
       id="path10"
       style="display:inline;fill:#000000;fill-opacity:1;stroke:#000000;stroke-width:0.199999;stroke-opacity:1"
       d="m -176.00528,30.599991 c -2.40191,-0.0169 -3.77205,1.78499 -3.77205,1.78499 0,0 -0.269,5.17067 -0.37605,7.72783 -0.10703,2.55716 -0.30736,1.23806 -0.42753,3.47039 -0.12021,2.23233 0.045,3.48147 -0.006,4.496 -0.0513,1.01453 -0.36535,3.04964 -0.36535,3.04964 0,0 -0.55098,-1.33404 -0.68795,-1.60085 -0.13697,-0.26682 0.32065,-1.32053 0.32065,-1.32053 l -1.17233,-1.24716 c 0,0 -0.1741,-0.17774 -1.83987,0.1404 -1.66577,0.31815 -1.27727,1.3487 -1.27727,1.3487 l 0.82738,0.55872 c 0,0 1.30745,-1.2779 2.1134,-0.68649 0.80595,0.5914 0.2403,1.38389 0.23758,2.28055 -0.001,0.42637 0.32891,0.66276 0.76617,0.80601 0.0917,0.48409 0.27066,1.55709 0.21765,2.3272 -0.0704,1.0224 -0.37365,2.93187 -0.50624,4.16757 -0.13259,1.23572 -0.61306,3.97823 -0.52957,4.92112 0.0835,0.94287 0.41343,3.29631 0.40568,4.6505 -0.008,1.35419 -0.46088,3.03345 -0.39548,3.60399 0.001,0.0119 0.0188,0.0398 0.0248,0.0564 l -0.0428,-0.0238 c 0,0 0.0355,5.89786 0.0355,6.36748 0,0.46963 -1.29912,2.98892 -0.8371,4.00529 0.46203,1.01637 0.64131,1.7667 0.64131,3.1201 0,1.35339 -0.25555,2.71781 -0.25555,2.71781 l 3.0054,-0.0258 c 0,0 -0.22897,-1.07595 -0.51742,-2.39667 -0.28845,-1.3207 -0.86528,-4.03736 -0.86528,-4.03736 0,0 2.42853,-0.81693 4.31668,-0.40762 1.88816,0.40932 4.98228,2.70567 4.98228,2.70567 l 0.0364,-1.14562 c 0,0 -0.16717,-0.16698 -0.25798,-0.25702 0.0303,-0.45231 0.0785,-1.23738 0.0904,-2.17998 0.0163,-1.28899 0.17934,-5.16457 -0.0228,-6.93542 -0.20217,-1.77087 -0.53421,-7.73264 -0.80358,-9.17371 -0.26936,-1.44106 -0.12722,-3.81008 0.0481,-5.1412 0.1151,-0.87379 0.20456,-1.80858 0.26576,-2.48267 0.0119,0.0134 0.0231,0.0254 0.035,0.0393 0,0 0.42627,-2.64409 0.49555,-4.26913 0.10035,-2.35337 0.92997,-6.02192 0.94885,-7.95521 0.0189,-1.93329 0.21629,-3.1459 -0.002,-4.57228 -0.21824,-1.42637 0.50973,-5.10034 0.39256,-5.9307 -0.11718,-0.83036 -0.52205,-1.37164 -3.80801,-2.33691 -0.51343,-0.15082 -0.99377,-0.21648 -1.43857,-0.2196 z" /><path
       id="path14"
       style="display:inline;fill:#000000;fill-opacity:1;stroke:#000000;stroke-width:0.199999;stroke-opacity:1"
       d="m -78.023494,213.31734 5.7397,8.95346 -8.43204,-5.872 4.35942,5.37074 -4.54494,-1.12603 c 0,0 4.57355,6.42934 2.98845,6.7939 -1.58512,0.36457 -24.172716,3.52254 -27.353886,3.60494 -3.18118,0.0824 -19.61379,-0.0941 -19.61379,-0.0941 l -4.16616,-0.0801 5.75107,-8.5664 -8.19588,7.31015 -0.6227,-5.20227 -2.25826,5.42965 -3.93723,-6.91328 0.45992,7.48585 c 0,0 -0.31788,-0.94448 -6.59856,0.093 -6.28068,1.03757 -13.81931,-0.047 -13.81931,-0.047 l 4.87412,2.0283 -14.40532,5.27565 -14.63219,5.98362 -7.92199,-26.12709 5.38623,26.85417 -9.18187,-14.67352 6.36499,14.77739 -9.86607,-4.67672 8.2672,6.20531 -6.67298,-1.47743 9.13019,10.69341 0.95188,1.49034 h 165.715996 l 0.0842,0.10852 8.29872,-0.0894 v -29.39355 l -7.60729,-1.84071 -0.9679,1.15858 c -0.58722,-0.0421 -23.4395,-1.68223 -25.1132,-2.33732 -1.6952,-0.66352 -6.77064,-3.18844 -6.77064,-3.18844 l 2.96519,3.83439 -5.80585,-1.10329 c 0,0 -3.40129,-0.22556 -6.81043,-0.66353 -0.43486,2.40781 -1.79811,4.80489 -2.15594,5.40278 5.72555,6.42816 12.78593,15.08198 11.69231,17.62476 -1.80094,4.18741 -4.10689,5.50228 -7.83053,5.87923 -3.72363,0.37697 -5.49892,0.94805 -7.57474,-0.0289 -2.07582,-0.97704 -0.75729,-1.59394 -1.6738,-1.96216 -0.9165,-0.36821 -2.76575,0.0796 -4.60023,-1.42678 -1.83448,-1.50639 -4.72588,0.35343 -6.30298,0.47594 -1.57707,0.12247 -1.80402,-2.25103 -1.80402,-2.25103 0,0 5.34253,-6.6993 6.3407,-8.4062 0.99819,-1.70691 6.79907,-3.57343 6.79907,-3.57343 l 0.55862,-2.37505 -2.46032,-6.77116 v -4.58628 c 0,0 0.35785,0.37843 0.39688,0.41858 l 0.10955,-1.53324 c -2.99972,-2.55712 -7.53339,-6.86625 -7.53339,-6.86625 z" /><rect
       style="fill:#000000;fill-opacity:1;stroke-width:0.233479;stroke-dasharray:0.700439, 0.700439"
       id="rect5-5"
       width="191.04346"
       height="4.2386951"
       x="-200.9933"
       y="372.08563"
       ry="0" /><rect
       style="fill:#000000;fill-opacity:1;stroke-width:0.233479;stroke-dasharray:0.700439, 0.700439"
       id="rect6-0"
       width="191.04346"
       height="4.2386951"
       x="-200.9933"
       y="0.22024167"
       ry="0" /><path
       id="rect1-4"
       style="fill:#000000;fill-opacity:1;stroke-width:0.147916;stroke-dasharray:0.443749, 0.443749"
       d="m -200.99352,252.78441 v 4.23917 h 65.25925 l 8.80893,-4.23917 z m 76.5446,0 0.13272,0.0911 v -0.0911 z" /><path
       id="path3-8"
       style="display:inline;fill:#000000;fill-opacity:0.310843;stroke-width:0.2;stroke-dasharray:0.600001, 0.600001"
       d="m -157.28429,0.26419026 c 10.3569,2.37409994 25.17976,5.44192994 43.05732,8.21189994 35.622436,5.5193908 50.265156,9.6299108 50.265156,9.6299108 0,0 -26.20155,-13.4806308 -52.626256,-16.7100908 -3.44709,-0.42128997 -6.94555,-0.75599994 -10.45259,-1.13171994 z m 122.844186,0 C -48.276874,11.649571 -69.777624,25.858341 -102.499,40.473111 l 1.57458,2.26601 -5.34955,3.04167 c 0,0 1.45032,-0.91014 3.90003,2.36317 1.31043,1.751 1.98826,3.36826 2.803446,4.84673 2.81217,-1.38302 5.54424,-2.7583 8.56537,-4.16202 34.19296,-15.88716 54.0832,-34.20887 65.42804,-48.56448074 z M -197.2555,1.8646102 c 0,0 3.24144,11.8585508 16.62328,27.7311308 0.51356,-0.26129 1.086,-0.55979 1.4242,-0.72037 1.35089,-0.64144 4.72643,-1.13839 7.20731,-0.49248 C -191.67214,12.690921 -197.2555,1.8646102 -197.2555,1.8646102 Z m 13.61675,13.2203808 c 0,0 22.01329,4.77986 54.23699,7.91167 32.223766,3.13179 45.872146,6.04407 45.872146,6.04407 0,0 -25.758846,-10.61535 -49.473476,-12.17548 -23.71463,-1.56017 -50.63566,-1.78026 -50.63566,-1.78026 z m 14.37948,15.46159 c 0.0373,0.11579 0.0853,0.22416 0.108,0.34985 0.6682,3.70785 -1.02158,6.30872 0.88574,8.00882 1.90731,1.70008 4.66924,2.87079 4.70307,1.29862 0.0261,-1.21116 -0.22477,-2.95299 1.1436,-4.62865 -2.42708,-1.71803 -4.71986,-3.399 -6.84041,-5.02864 z m 1.24799,0.4961 c 0,0 3.31878,0.86423 8.26512,1.973 0.19224,-0.46979 0.17784,-0.8991 0.14211,-1.31413 -4.39111,-0.35763 -8.40723,-0.65887 -8.40723,-0.65887 z m 21.26381,35.96576 c -4.34676,3.71152 -8.13896,7.50919 -11.27269,11.38432 3.48462,2.99475 6.2728,6.80714 8.06255,8.77155 4.10254,-4.97504 9.80433,-10.00875 17.1049,-15.14222 -0.58408,-0.0509 -1.07232,-0.0981 -1.77663,-0.15917 -4.66058,-0.4043 -9.69763,-2.90448 -12.11813,-4.85448 z m -2.35592,21.06796 c 0.006,0.006 0.013,0.0121 0.0191,0.0181 0.10666,0.0355 3.56332,1.13728 8.83615,2.6939 0.72135,-0.23805 1.48378,-0.52706 2.34559,-0.87127 -5.46383,-0.90483 -11.15327,-1.83326 -11.20086,-1.84071 z m 81.435856,0.68885 c 2.12041,4.62678 3.95859,8.87518 4.74286,10.70322 2.01939,4.706979 7.52977,8.380959 8.40517,9.942549 0.87542,1.56159 10.85397,14.93829 12.05715,17.27801 0.42916,0.83458 1.53328,2.60445 2.80965,4.61781 -0.42897,-14.89946 -10.51646,-29.36646 -28.01483,-42.541589 z m -98.985176,29.976979 c 6.5659,17.4244 26.94766,35.05991 64.55007,51.57412 1.06693,-4.40094 2.165886,-9.44727 -1.12964,-15.15825 -24.95818,-11.84408 -41.28263,-23.06 -49.06265,-34.08629 -3.75054,-0.0184 -7.52737,-0.31115 -9.9441,-1.51619 -0.93397,-0.4657 -2.55947,-0.66899 -4.41368,-0.81339 z m 19.34765,2.24018 c -0.65887,0.0237 -1.24037,0.0415 -1.94096,0.0605 2.39566,0.71558 8.37725,2.3804 17.65473,4.72477 -2.23015,-1.37916 -4.54707,-2.64777 -6.42389,-3.54087 -4.69523,-0.63862 -7.60846,-1.02887 -9.28988,-1.24436 z m 20.37086,19.7037 c 0,0 7.02179,1.94476 18.48672,4.40025 -0.23371,-0.76307 -0.42915,-1.49138 -0.61702,-2.19883 -9.80138,-1.28348 -17.8697,-2.20142 -17.8697,-2.20142 z m 16.70233,43.07696 c -1.30357,0.59657 -2.4952,1.1844 -3.84266,1.78439 -24.39911,10.86422 -41.4459,20.93999 -53.61636,29.88086 l -0.12454,11.98273 c 12.76484,-8.04304 31.00464,-17.7583 57.29314,-28.98893 -1.09441,-4.0623 -1.87628,-7.25597 -1.70429,-10.83448 0.0642,-1.33611 0.89476,-2.58172 1.99471,-3.82457 z m 75.935426,10.56886 c -0.0637,1.96638 -0.0707,4.2854 0.0258,6.29884 l 8.91212,11.51403 c 0.33759,0.27401 0.65502,0.53865 0.97616,0.80564 1.01919,0.51225 5.86182,2.93097 10.147701,4.73304 -2.737641,-5.70804 -8.375691,-13.69588 -20.061821,-23.35155 z m -53.28822,5.9614 -1.26866,2.03967 c 1.39905,0.31861 2.74597,0.62648 4.28863,0.96531 -0.26238,-0.77679 -0.53832,-1.72486 -0.79117,-2.70888 -0.75041,-0.0994 -1.50052,-0.20088 -2.2288,-0.2961 z m -44.074316,8.83822 c 0,0 9.05679,2.86623 23.42234,6.67608 -0.0221,-0.79754 -0.0663,-1.84651 -0.12712,-3.30833 -13.20057,-1.99511 -23.29522,-3.36775 -23.29522,-3.36775 z m 91.383576,0.33848 c -1.21916,0.59866 -2.5082,1.18934 -3.90002,1.8004 3.83983,0.78126 5.68031,1.2296 8.37106,1.82522 l -0.70073,-2.2872 c -1.24234,-0.44606 -2.3962,-0.8806 -3.77031,-1.33842 z m -46.14912,6.56239 1.61127,5.57227 c 3.41312,0.7763 6.8983,1.55791 10.60348,2.34301 34.95903,7.40746 48.92777,11.95482 48.92777,11.95482 0,0 -23.66432,-13.13533 -49.78508,-17.92448 -3.73399,-0.68463 -7.54738,-1.30062 -11.35744,-1.94562 z m -67.472376,6.22287 c 0,0 10.50825,3.349 27.24847,7.67912 0.57402,-1.07958 1.26968,-2.24239 2.13475,-3.36982 -16.15886,-2.51055 -29.38322,-4.3093 -29.38322,-4.3093 z m 141.475086,0.0785 -1.786449,0.78135 c 2.017669,2.70496 2.503719,4.19664 2.503719,4.19664 0,0 0.2015,-1.77668 -0.71727,-4.97799 z m -93.573106,7.27966 -13.1625,2.26033 c 6.78701,1.6674 14.36466,3.42961 22.708696,5.19761 34.95904,7.4075 48.92776,11.95483 48.92776,11.95483 0,0 -23.66273,-13.13481 -49.78352,-17.92397 -2.857166,-0.52386 -5.774716,-0.98679 -8.690436,-1.4888 z m -78.99827,0.89612 c -13.16742,14.33484 -11.98377,23.16913 -11.98377,23.16913 0,0 1.27554,-5.11619 12.68502,-14.56604 z" /><g
       id="g4"
       transform="matrix(2.086971,0,0,2.086971,208.96752,-286.12513)"
       style="stroke-width:0.479163"><text
         xml:space="preserve"
         style="font-size:35.6317px;text-align:center;text-anchor:middle;display:inline;fill:#000000;fill-opacity:1;stroke-width:1.3677;stroke-dasharray:4.10309, 4.10309"
         x="-102.42889"
         y="285.86713"
         id="text5-4"><tspan
           sodipodi:role="line"
           style="font-style:normal;font-variant:normal;font-weight:normal;font-stretch:normal;font-family:Carlito;-inkscape-font-specification:Carlito;stroke-width:1.3677"
           x="-102.42889"
           y="285.86713"
           id="tspan2">NBIS SYSDEV</tspan></text><text
         xml:space="preserve"
         style="font-size:36.159px;text-align:center;text-anchor:middle;display:inline;fill:#000000;fill-opacity:1;stroke-width:1.3677;stroke-dasharray:4.10309, 4.10309"
         x="-101.10309"
         y="312.58594"
         id="text3"><tspan
           sodipodi:role="line"
           style="font-style:normal;font-variant:normal;font-weight:normal;font-stretch:normal;font-family:Carlito;-inkscape-font-specification:Carlito;stroke-width:1.3677"
           x="-101.10309"
           y="312.58594"
           id="tspan3">HACKATHON</tspan></text></g></g></svg>
