<?xml version="1.0" encoding="UTF-8" standalone="no"?>
<!-- Created with Inkscape (http://www.inkscape.org/) -->

<svg
   width="192mm"
   height="297mm"
   viewBox="0 0 192 297"
   version="1.1"
   id="svg1"
   xml:space="preserve"
   inkscape:version="1.3.2 (091e20ef0f, 2023-11-25)"
   sodipodi:docname="meerkats2.svg"
   inkscape:export-filename="meerkats.png"
   inkscape:export-xdpi="96"
   inkscape:export-ydpi="96"
   xmlns:inkscape="http://www.inkscape.org/namespaces/inkscape"
   xmlns:sodipodi="http://sodipodi.sourceforge.net/DTD/sodipodi-0.dtd"
   xmlns="http://www.w3.org/2000/svg"
   xmlns:svg="http://www.w3.org/2000/svg"><sodipodi:namedview
     id="namedview1"
     pagecolor="#ffffff"
     bordercolor="#000000"
     borderopacity="0.25"
     inkscape:showpageshadow="2"
     inkscape:pageopacity="0.0"
     inkscape:pagecheckerboard="0"
     inkscape:deskcolor="#d1d1d1"
     inkscape:document-units="mm"
     inkscape:zoom="0.30201414"
     inkscape:cx="933.73111"
     inkscape:cy="561.232"
     inkscape:window-width="2560"
     inkscape:window-height="1455"
     inkscape:window-x="0"
     inkscape:window-y="32"
     inkscape:window-maximized="1"
     inkscape:current-layer="layer3" /><defs
     id="defs1" /><g
     inkscape:label="Layer 1"
     inkscape:groupmode="layer"
     id="layer1"
     style="display:inline" /><g
     inkscape:groupmode="layer"
     id="layer2"
     inkscape:label="Layer 2"
     style="display:none"><path
       id="path1"
       style="fill:#000000;fill-opacity:1;stroke-width:0.2;stroke-dasharray:0.600001, 0.600001"
       d="m 113.2644,28.590503 c -3.87659,-7.93e-4 -2.42705,-0.02574 -6.78253,0.345715 -4.19755,0.605944 -4.41119,0.483121 -9.977166,0.288872 -5.56599,-0.194249 -9.658889,1.140812 -13.485482,1.726509 -3.826594,0.585703 -5.961034,1.632129 -8.885763,2.545581 -2.92473,0.913453 -10.664522,6.515103 -13.500984,9.02839 -2.836459,2.513281 -5.228249,5.848747 -6.754627,8.828401 -1.526378,2.979655 -2.509924,6.208924 -2.509924,6.208924 0,0 9.492982,-3.493133 13.884424,-4.325318 4.391438,-0.832188 9.217525,-0.708484 9.217525,-0.708484 0,0 -10.685876,2.419859 -13.500468,3.410128 -2.814591,0.990272 -8.348489,2.427939 -10.028328,3.400309 -1.679839,0.972367 -3.570325,3.311426 -3.570325,3.311426 0,0 2.436326,-0.89917 4.426603,-0.89917 1.990277,0 6.9992,2.13837 10.488249,4.227649 3.489043,2.089276 7.288325,5.17576 9.482108,6.821806 2.193784,1.646044 6.664193,3.320211 6.664193,3.320211 0,0 -3.3632,0.612589 -9.800952,-3.447335 -6.437752,-4.059924 -12.734817,-9.412144 -16.385046,-9.225277 -3.650233,0.186868 -5.77631,1.926204 -6.756694,4.489132 -0.980381,2.562928 -2.980152,7.599546 -1.547192,10.40815 1.432953,2.808604 3.6495,8.878814 7.12928,12.873116 3.479783,3.994302 7.059116,9.753372 9.023739,10.705292 1.964623,0.95191 2.503197,0.96748 4.044714,0.86816 1.541521,-0.0993 2.534639,-1.79458 3.57911,-2.07946 1.044474,-0.28488 2.367297,-0.57929 2.367297,-0.57929 0,0 -2.117837,1.0647 -3.208589,2.4014 -1.090753,1.33669 -2.712548,2.06475 -5.847705,1.83193 -3.135158,-0.23281 -7.867271,-6.824491 -10.317717,-9.37927 -2.450442,-2.554775 -3.334163,-4.167704 -3.334163,-4.167704 0,0 0.548356,3.311786 0.01292,6.788216 -0.535445,3.476438 -0.304837,11.727768 0.112138,16.078608 0.416973,4.3508 3.757323,9.75955 3.766695,16.43207 0.0094,6.67253 1.44377,2.95765 0.173633,8.29562 -1.270137,5.33794 0.178833,5.75467 -0.510047,9.57822 -0.688874,3.82357 -0.59215,8.97635 -1.567346,13.35371 -0.975195,4.3774 -0.461349,7.54027 -1.883606,12.51293 -1.422257,4.97268 -2.307863,7.11241 -3.140377,8.65425 -0.832516,1.54187 -2.708362,4.99143 -2.708362,4.99143 l 127.166915,0.35088 c 0,0 -1.21564,-2.73177 -4.2106,-6.9143 -2.99493,-4.18256 -1.02438,-5.11607 -5.45961,-8.90592 -4.43526,-3.78985 -4.85071,-4.25959 -7.75043,-8.17883 -2.89975,-3.9192 -4.9988,-7.34246 -7.4843,-10.28516 -2.4855,-2.94271 -6.84336,-3.04792 -7.89719,-7.51685 -1.05384,-4.46895 -2.39391,-6.01951 -0.85731,-11.14971 1.53657,-5.13017 0.17431,-11.07563 3.22254,-12.75168 3.0482,-1.67603 0.48607,-3.67891 4.38061,-5.66993 3.8945,-1.99105 5.40052,-6.04681 8.02432,-7.44709 2.62376,-1.40031 3.0512,-0.69275 10.42416,-3.08767 7.37299,-2.39491 8.0684,-2.10048 9.55756,-3.82354 1.48915,-1.72306 5.46397,-3.87361 5.46323,-5.731951 -7.9e-4,-1.858337 0.0641,-3.630786 0.0641,-3.630786 0,0 -0.21668,2.202976 -4.55941,1.683102 -4.34275,-0.519877 -4.73405,-1.100465 -8.16798,0.502811 -3.43395,1.603275 -4.05332,3.570049 -10.05261,2.521294 -5.99932,-1.048758 -6.92979,-3.397896 -11.77965,-2.971395 -4.84983,0.426497 -11.25461,0.973584 -11.25461,0.973584 0,0 9.29985,-3.728599 13.00903,-2.957443 3.70917,0.77116 8.29631,3.474389 12.40079,3.355351 4.10452,-0.119039 8.07509,-4.149221 10.17096,-4.004407 2.09587,0.144814 5.31942,1.689108 7.10809,1.275892 1.78866,-0.413218 2.94312,-0.863276 4.39767,-1.254187 1.45453,-0.390911 0.88414,0.431235 -3.56413,-1.086756 -4.44828,-1.517991 -4.70968,-3.080561 -5.16661,-4.393013 -0.45693,-1.312452 -0.57722,-5.113383 -0.57722,-5.113383 0,0 0.77741,5.194572 2.312,6.047176 1.53459,0.852604 4.79016,2.609009 6.92413,2.7373 2.13393,0.128294 4.11839,1.331745 7.12979,0.11989 3.01144,-1.211855 4.71883,-2.959335 4.78627,-4.662248 0.0674,-1.702911 -0.23977,-5.623429 -0.23977,-5.623429 0,0 1.00965,-0.39623 1.11414,-1.977657 0.1045,-1.58143 -1.23901,-3.630046 -1.38493,-4.505152 -0.14592,-0.875107 -4.46593,-4.317618 -7.62744,-6.132442 -3.16152,-1.814824 -11.21592,-7.577446 -13.08034,-9.259383 -1.86442,-1.681937 -4.55525,-3.975402 -5.77639,-5.650301 -1.22115,-1.674899 -0.85266,-2.757971 -0.85266,-2.757971 0,0 -0.20663,-0.123269 -1.13172,-2.0283 -0.92506,-1.905033 0.97837,-2.246615 -1.5291,-6.096269 -2.50747,-3.849655 -3.85982,-6.064019 -5.61723,-6.605798 -1.75741,-0.541782 -3.30144,0.950917 -4.96714,0.4408 -1.66571,-0.510116 -0.22096,0.702268 -6.89984,-1.179257 -6.67884,-1.881528 -12.80667,-3.485284 -17.69814,-4.383195 -4.89145,-0.897914 -6.56255,-1.186799 -10.43916,-1.187524 z m 20.73362,14.64045 c 0.2445,-0.0339 0.52791,0.0012 0.90124,0.145728 1.49332,0.578174 6.4679,4.625529 8.08943,4.855 1.62153,0.229473 -0.22118,-4.316532 -0.22118,-4.316532 l 3.36259,7.179407 c 0.46761,1.389728 0.15089,0.927802 0.15089,1.920813 0,0.993011 1.98886,3.578864 4.42971,6.153629 2.44083,2.574768 1.96104,2.909896 0.71623,5.174361 -1.24156,2.258543 -3.90367,3.945202 -5.20433,4.310332 -1.30066,0.365126 0.63651,-2.310956 0.0146,-3.96596 -0.62194,-1.655007 -2.30321,1.414378 -3.00664,3.325689 -0.70343,1.911312 -3.95739,3.574645 -6.28127,4.858618 -2.32385,1.283972 -1.32734,-0.416392 -2.53162,-1.148767 -1.2043,-0.732377 -1.63114,2.155856 -4.58991,3.345532 -2.95876,1.189673 -7.26034,-0.597378 -8.82426,-3.15743 -1.56393,-2.560056 -5.37223,-4.281316 -7.41712,-4.514453 -4.53483,-1.137821 -2.97033,-0.920981 -7.95607,-2.312053 -2.15136,-0.818146 -4.66642,-0.07075 -4.66642,-0.07075 0,0 -0.0548,-1.889622 -1.027324,-4.414957 -1.28592,-3.339054 -5.711579,-6.439865 -9.094019,-7.064962 l 0.939009,-0.337018 c 2.305662,0.269215 3.056484,0.175552 5.716399,1.048603 4.590075,1.506577 5.187225,2.361817 8.236185,0.941027 1.83312,-0.85422 3.50403,-3.727763 8.19589,-5.855456 4.69184,-2.127693 4.97033,-3.278658 9.51983,-3.861263 4.54948,-0.582607 6.14193,-0.787521 8.02173,-1.144633 1.40986,-0.267837 1.79298,-0.992792 2.52646,-1.094507 z m -5.79138,7.808826 c -3.7828,-0.04981 -5.77282,1.021917 -7.15305,1.906343 -1.47224,0.943389 -3.90157,2.292367 -3.90157,2.292367 0,0 1.00521,2.69053 3.69797,4.929415 2.7226,2.263694 3.82385,2.90523 6.80217,2.787943 4.02348,-0.158446 4.82847,-0.371841 6.34225,-1.012858 1.51376,-0.64102 1.19595,-2.279015 2.50889,-1.888257 1.31291,0.390761 3.31866,0.399976 3.31866,0.399976 0,0 -3.70139,-1.53218 -5.74332,-4.615739 -1.07393,-1.621759 -0.79607,-4.555048 -5.09168,-4.773869 -0.26848,-0.01368 -0.52813,-0.022 -0.78032,-0.02532 z m 0.0755,2.662369 c 1.07702,-7.7e-5 1.95019,0.85481 1.95027,1.909445 -8e-5,1.054635 -0.87325,1.909521 -1.95027,1.909444 -1.07682,-2.04e-4 -1.94967,-0.855008 -1.94975,-1.909444 8e-5,-1.054436 0.87293,-1.909241 1.94975,-1.909445 z M 173.022,75.311165 c 1.69078,0.188365 3.81383,0.456067 3.9026,1.8526 0.0888,1.396537 2.0004,2.935222 2.0004,2.935222 0,0 -1.20035,-1.82229 -0.79272,-2.71353 0.40762,-0.891244 2.50113,-0.823298 3.63027,0.29714 1.12915,1.120442 2.76823,0.368633 1.71307,2.781225 -1.05517,2.412592 -1.921,4.310794 -4.19509,3.200322 -2.27409,-1.110472 -4.00038,-1.019674 -4.56251,-2.684591 -0.56213,-1.664914 0.67621,-2.348701 -0.17208,-3.239595 -0.84832,-0.890891 -1.52394,-2.428793 -1.52394,-2.428793 z"
       sodipodi:nodetypes="scssssscscsscssscsssssssscssscsscsssssccsscssssccssccsssscssssssscsssscssssscsssssscscsccsssssssssssscsscsssssssccsssscsssccscccscsssssscsc" /></g><g
     inkscape:groupmode="layer"
     id="layer3"
     inkscape:label="Layer 3"
     style="display:inline"><g
       id="g3"><path
         id="path2"
         style="fill:#000000;stroke-width:0.168152;stroke-dasharray:0.504456, 0.504456"
         d="m 245.46734,-3.169201 c 0,37.050872 22.09539,55.780679 42.98466,74.451438 z M 288.452,71.282237 V 196.54018 c 18.50052,-16.5357 36.03469,-33.45643 36.41596,-62.58676 l 0.0299,-0.53925 -0.0191,0.033 C 324.49745,104.31686 306.95252,87.81793 288.452,71.282237 Z m 0,125.257943 c -20.88927,18.67076 -42.98466,37.40056 -42.98466,74.45143 z" /></g><g
       id="g2"
       transform="matrix(1.1673971,0,0,1.1673971,-27.868724,-37.257585)"><path
         style="fill:#000000;fill-opacity:1;stroke-width:0.2;stroke-dasharray:0.600001, 0.600001"
         d="m 100.78795,41.846068 c -0.605,0.748697 -0.30355,2.609072 -1.37555,3.554876 -1.072004,0.9458 -4.800838,3.58589 -5.879642,3.957367 -1.078804,0.371481 -2.384679,1.513065 -2.992533,2.247993 -0.607854,0.734928 -0.409824,1.693823 -0.409824,1.693823 0,0 0.459259,-0.230847 0.309227,0.767027 -0.150032,0.997873 0.723955,2.385441 1.339948,2.27924 0.615992,-0.106202 2.685142,0.972256 2.566765,1.886241 -0.118375,0.913987 -0.512159,1.56252 2.137796,2.681271 2.649956,1.118751 5.578243,1.331579 6.259303,2.321505 0.68105,0.989925 3.08758,2.828708 3.46493,4.60158 0.37736,1.77287 1.33128,3.979188 0.39083,5.515885 -0.94045,1.536697 -1.6661,2.108764 -2.17329,3.693152 -0.50719,1.584389 -2.58671,2.599947 -3.72943,4.79647 -1.142716,2.196523 -0.50732,3.307172 -3.158089,5.748993 -2.650768,2.441821 -7.162017,8.449945 -8.607526,12.378608 -1.445509,3.928661 -3.069569,11.964741 -3.069569,11.964741 0,0 -7.596536,5.51563 -8.512108,7.72143 -0.91557,2.20579 -2.168695,6.78167 -2.002571,9.38015 0.166127,2.59848 -0.305398,5.97153 -1.170247,8.18054 -0.864848,2.209 -0.909851,4.12977 -0.909851,4.12977 0,0 -0.807046,0.6798 -0.877057,1.92116 -0.07001,1.24135 0.896345,4.88124 0.896345,4.88124 l 0.352451,-2.94276 1.029269,0.44481 c 0,0 -0.620054,-2.92231 0.435335,-3.3385 1.055386,-0.4162 2.538632,-0.38208 2.931768,-1.16267 0.393137,-0.78059 2.110195,-3.98079 2.110195,-3.98079 l 0.657514,-1.07509 c 0,0 0.121399,2.66224 -0.391422,3.71776 -0.512821,1.05552 -1.441498,3.0101 -1.851919,4.19242 -0.410422,1.18231 -0.398251,1.86616 -0.306047,2.70832 0.09221,0.84215 1.063099,2.5591 1.063099,2.5591 0,0 -0.0019,-1.19547 0.475549,-2.2203 0.477313,-1.02483 0.34001,-2.92285 0.34001,-2.92285 l 0.529511,0.56599 0.919493,-1.72476 c 0,0 0.733002,0.62769 1.825559,0.001 1.09256,-0.62672 2.202606,-2.81221 2.202606,-2.81221 0,0 -1.091716,4.61195 -1.740178,6.96712 -0.648459,2.35518 -1.258123,9.13682 0.306875,13.43266 1.564997,4.29585 5.749705,11.25039 5.849829,12.52061 0.100126,1.27021 0.09986,15.84527 0.739375,19.858 0.639516,4.01272 2.069042,7.05111 2.6733,10.4664 0.604258,3.41528 1.566232,8.05061 2.723374,9.2221 1.15714,1.1715 7.013867,7.10701 7.737107,9.0528 0.72325,1.94579 1.94595,7.07108 0.99647,9.045 -0.94948,1.97392 -2.01005,5.27601 -2.23492,6.08344 -0.22487,0.80743 -0.32626,1.29253 -0.32626,1.29253 0,0 -1.69586,0.51623 -3.103563,1.65677 -1.4077,1.14054 -1.757802,2.31128 -1.757802,2.31128 0,0 -0.762733,-0.0875 -1.543362,1.29486 -0.780627,1.38239 -1.216827,3.18209 -1.216827,3.18209 l 1.524857,-0.81261 0.701556,0.98826 2.700639,-1.60289 -0.07371,1.22749 2.586272,-1.18149 1.92841,0.28347 2.14359,-0.88328 0.68666,0.54634 7.73158,-2.96677 c 0,0 1.04175,-2.81724 1.54865,-4.28633 0.50689,-1.46908 0.94389,-4.59011 1.63439,-5.79561 0.69051,-1.20549 2.73034,-8.00452 2.84937,-9.21263 0.11903,-1.20811 0.84051,-4.70331 -0.0127,-5.77919 -0.85324,-1.07588 -0.54509,-3.80204 -0.66651,-5.86396 -0.12144,-2.06192 -0.008,-4.78024 0.92951,-5.24416 0.93761,-0.46391 1.56065,1.66296 3.08029,4.68631 1.51963,3.02336 5.60701,10.10894 6.59528,12.22297 0.98827,2.11403 2.57487,6.13711 2.57487,6.13711 v 0 c 0,0 0.63434,1.08233 -0.24938,2.67867 -0.88372,1.59635 -2.52833,4.02568 -0.82461,4.38279 1.70372,0.35711 5.29507,-0.39664 7.23908,-0.39664 1.944,0 3.23043,0.51803 2.89097,-1.80702 -0.33946,-2.32505 -0.52186,-9.27907 -1.93829,-11.22082 -1.41643,-1.94175 -9.10288,-17.60614 -9.39282,-21.97679 -0.28994,-4.37066 -0.48432,-12.70089 0.27689,-14.70744 0.76121,-2.00654 -2.30528,-14.51968 -3.14026,-17.42427 -0.83498,-2.90459 -4.69611,-8.88881 -4.64159,-11.30891 0.0545,-2.42009 0.82709,-5.05069 0.2439,-7.15828 -0.58319,-2.10759 -1.19966,-6.25865 -0.93127,-7.35995 0.26839,-1.10129 -0.49001,-2.15896 -0.27893,-5.20239 0.21108,-3.04343 0.88702,-7.02875 1.00606,-9.92182 0.11904,-2.89307 0.52369,-9.50956 1.63398,-11.66547 1.11028,-2.15591 3.90294,-8.99852 4.73225,-11.33691 0.82932,-2.33839 0.94836,-6.896085 0.94836,-9.14521 0,-2.249125 -0.28734,-5.137803 0.57819,-6.539872 0.86552,-1.402068 -0.0791,-3.278066 0.74198,-6.459123 0.82113,-3.181057 1.88006,-6.183318 1.44361,-8.913892 -0.43645,-2.730574 -2.37134,-2.080078 -1.33152,-4.809562 1.03983,-2.729484 2.57692,-6.091206 2.45788,-7.589041 -0.11904,-1.497835 0.54519,-4.536888 0.31205,-5.943803 -0.23313,-1.406914 -0.58003,-6.905836 -2.96825,-9.156443 -2.38821,-2.250607 -7.45722,-5.624287 -11.90028,-6.076543 -4.44306,-0.452256 -7.64036,-1.064317 -9.40201,-0.746778 -1.76166,0.317539 -3.98599,0.773762 -5.85044,1.242263 -1.86444,0.468502 -3.26513,0.402595 -4.0428,1.402032 z"
         id="path4" /><text
         xml:space="preserve"
         style="font-size:38.8152px;text-align:center;text-anchor:middle;fill:#000000;fill-opacity:1;stroke-width:2.44505;stroke-dasharray:7.33517, 7.33517"
         x="105.39537"
         y="279.72113"
         id="text5"><tspan
           sodipodi:role="line"
           id="tspan5"
           style="font-style:normal;font-variant:normal;font-weight:normal;font-stretch:normal;font-family:Carlito;-inkscape-font-specification:Carlito;stroke-width:2.44505"
           x="105.39537"
           y="279.72113">MEERKATS</tspan></text><rect
         style="fill:#000000;fill-opacity:1;stroke-width:0.2;stroke-dasharray:0.600001, 0.600001"
         id="rect5"
         width="163.64908"
         height="3.6308939"
         x="24.231266"
         y="283.05905"
         ry="0" /><rect
         style="fill:#000000;fill-opacity:1;stroke-width:0.2;stroke-dasharray:0.600001, 0.600001"
         id="rect6"
         width="163.64908"
         height="3.6308939"
         x="24.231266"
         y="32.130768"
         ry="0" /><path
         id="rect1"
         style="fill:#000000;fill-opacity:1;stroke-width:0.126706;stroke-dasharray:0.380118, 0.380118"
         d="m 24.231079,248.47889 v 3.6313 h 55.901497 l 7.545793,-3.6313 z m 65.568608,0 0.113688,0.078 v -0.078 z" /><path
         style="display:inline;fill:#000000;fill-opacity:1;stroke-width:0.2;stroke-dasharray:0.600001, 0.600001"
         d="m 82.017213,252.14246 c 0,0 7.139717,-3.7077 8.799517,-4.3931 1.659798,-0.6854 3.125351,-1.5513 3.125351,-1.5513 0,0 -1.696444,1.68928 -0.380428,1.80986 1.316016,0.12058 7.815257,-0.50809 10.682907,-1.03632 2.86764,-0.52823 9.97794,-3.8243 11.75791,-4.29917 1.77997,-0.47488 7.53122,-2.43651 6.96995,-2.7049 -0.56128,-0.26838 -6.8677,1.04313 -6.8677,1.04313 0,0 3.15254,-2.00293 5.06399,-2.18433 1.91146,-0.18141 9.1222,-2.38852 9.1222,-2.38852 0,0 6.19348,0.2057 7.79978,0.2057 1.6063,0 6.83131,-0.58165 8.99646,-0.46261 2.16515,0.11904 6.95203,-0.84905 6.95203,-0.84905 0,0 -12.39006,-0.55375 -10.97182,-0.91322 1.41824,-0.35946 6.54262,-2.13501 7.28832,-1.91013 0.7457,0.22489 1.77422,0.72182 1.77422,0.72182 0,0 5.69215,-1.33453 7.04535,-1.02976 1.3532,0.30478 2.554,0.97463 3.5955,1.16606 1.04149,0.19143 8.28596,-1.99052 11.72708,-2.581 3.44112,-0.59048 13.19141,-2.37791 13.19141,-2.37791 l 0.37874,23.61833 z"
         id="path5" /></g><path
       id="path3"
       style="fill:#000000;stroke-width:0.2;stroke-dasharray:0.600001, 0.600001"
       d="M 443.13109 -35.070211 C 443.13109 -35.070211 434.90655 -0.97870275 396.09003 35.370968 C 390.84544 40.282278 386.11719 45.512381 381.95291 50.990169 C 353.94198 19.865776 347.54106 -6.5618734 347.54106 -6.5618734 C 347.54106 -6.5618734 351.91725 27.558888 376.3424 59.081148 C 353.99395 94.603977 355.35182 138.799 398.1788 177.14113 C 399.42904 178.26042 400.53228 179.32031 401.71398 180.41224 C 398.33296 184.22876 394.53953 188.10038 390.32915 192.04099 C 345.4841 234.01274 347.6842 265.70626 347.6842 265.70626 C 347.6842 265.70626 350.30167 243.42283 392.49336 205.64946 C 399.04992 199.7795 404.62776 193.7714 409.30473 187.67898 C 409.32815 187.7023 409.34749 187.72389 409.37088 187.7472 L 409.35382 187.69397 L 415.30488 179.08984 L 415.33796 179.09863 C 415.31969 179.07744 415.30508 179.0573 415.2868 179.0361 C 440.6806 138.26719 427.64923 94.844472 394.58212 63.878788 C 393.88281 63.223923 393.25669 62.576513 392.58586 61.924386 L 385.84467 69.975574 C 386.72585 70.891222 387.55291 71.823733 388.47603 72.725277 C 425.40318 108.7892 433.19187 138.53817 408.6872 171.79572 C 406.09532 169.08845 403.34055 166.33816 400.34301 163.53265 C 363.49456 129.04519 358.60967 99.842984 382.57303 66.557178 C 382.6058 66.593669 382.64356 66.628705 382.67638 66.665181 L 382.63659 66.491549 L 389.06411 58.606242 L 389.20518 58.613477 C 389.12838 58.53618 389.04419 58.458217 388.96747 58.380933 C 392.86022 53.755323 397.25203 49.045467 402.19612 44.216939 C 437.39146 9.8443595 443.13109 -35.070211 443.13109 -35.070211 z M 359.78889 -12.649357 C 359.78889 -12.649357 371.92637 -5.3812176 390.2506 0.58652751 C 408.5748 6.5542625 416.1069 10.998295 416.1069 10.998295 C 416.1069 10.998295 402.62908 -3.5770121 389.0362 -7.0688192 C 375.44331 -10.560658 359.78889 -12.649357 359.78889 -12.649357 z M 354.54528 7.7323446 C 354.54528 7.7323446 365.86898 12.900135 382.44487 16.286344 C 399.02078 19.672548 406.04137 22.821346 406.04137 22.821346 C 406.04137 22.821346 392.79108 11.343646 380.59227 9.6567749 C 368.39345 7.9698781 354.54528 7.7323446 354.54528 7.7323446 z M 362.58407 24.986072 C 362.58407 24.986072 369.21959 28.768796 379.23267 31.977376 C 389.24573 35.185951 393.36307 37.500553 393.36307 37.500553 C 393.36307 37.500553 385.9887 30.047272 378.56191 28.134717 C 371.13507 26.222145 362.58407 24.986072 362.58407 24.986072 z M 372.27082 86.639156 C 372.27082 86.639156 381.20249 92.907069 395.47664 99.681771 C 409.75076 106.45645 415.30385 110.31058 415.30385 110.31058 C 415.30385 110.31058 406.41221 99.85697 395.67611 95.333716 C 384.94002 90.810455 372.27082 86.639156 372.27082 86.639156 z M 369.7211 102.85419 C 369.7211 102.85419 380.45204 110.64868 397.3804 118.79947 C 414.30873 126.95026 420.9774 131.73925 420.9774 131.73925 C 420.9774 131.73925 410.00766 118.38441 397.31425 113.01377 C 384.62084 107.64315 369.7211 102.85419 369.7211 102.85419 z M 371.21765 121.66337 C 371.21765 121.66337 381.62697 128.46223 397.80828 135.25996 C 413.98956 142.05769 420.45547 146.23087 420.45547 146.23087 C 420.45547 146.23087 409.5023 134.17673 397.41192 129.78174 C 385.32153 125.38677 371.21765 121.66337 371.21765 121.66337 z M 383.71405 143.53542 C 383.71405 143.53542 390.58055 147.60051 401.29127 151.64139 C 412.002 155.68227 416.26813 158.17743 416.26813 158.17743 C 416.26813 158.17743 409.0893 150.93841 401.07991 148.33255 C 393.07053 145.7267 383.71405 143.53542 383.71405 143.53542 z M 416.97713 181.09179 L 411.43277 189.86696 C 440.77783 219.81883 442.98795 237.19792 442.98795 237.19792 C 442.98795 237.19792 444.49934 214.01908 416.97713 181.09179 z M 393.88448 205.34457 C 393.88448 205.34457 402.93322 210.72421 416.99935 216.10361 C 431.06551 221.48297 436.68601 224.78576 436.68601 224.78576 C 436.68601 224.78576 427.16465 215.24643 416.65467 211.76847 C 406.14469 208.29049 393.88448 205.34457 393.88448 205.34457 z M 381.2837 217.54073 C 381.2837 217.54073 392.85245 225.5512 410.83539 233.56042 C 428.81832 241.56962 436.00388 246.48625 436.00388 246.48625 C 436.00388 246.48625 423.83111 232.28373 410.39459 227.10552 C 396.95804 221.92725 381.2837 217.54073 381.2837 217.54073 z M 369.84461 231.73056 C 369.84461 231.73056 381.41281 239.74103 399.39578 247.75025 C 417.37871 255.75945 424.56427 260.67608 424.56427 260.67608 C 424.56427 260.67608 412.39204 246.47408 398.95549 241.29587 C 385.51897 236.1176 369.84461 231.73056 369.84461 231.73056 z " /><path
       id="path18"
       style="fill:#000000;stroke-width:0.270259;stroke-dasharray:0.810779, 0.810779;fill-opacity:0.30616519"
       d="M 3.1584635 6.1298584 C 6.8033954 15.159184 19.667771 40.157572 57.921012 63.876204 C 20.538245 92.424021 17.234429 126.94927 69.773002 158.86317 C 68.560372 154.94917 65.630115 145.3158 64.449296 139.71189 C 63.567218 139.08657 62.689063 138.46157 61.85824 137.83861 L 58.678589 137.41125 C 55.005696 136.91749 54.731214 134.82836 54.7672 131.97592 C 32.560564 111.53814 38.278013 92.093062 70.067558 70.878361 C 70.131498 70.912541 70.205054 70.945486 70.269096 70.979647 L 70.191581 70.816866 L 82.722083 63.43127 L 82.997001 63.437988 C 82.847276 63.365588 82.683029 63.292815 82.533464 63.220431 C 83.218092 62.829581 84.020903 62.428686 84.721444 62.036523 C 86.516106 59.441926 88.638827 56.346716 90.159355 51.292476 C 90.877631 48.904925 90.766315 46.651412 89.991923 44.680994 C 82.307507 48.390998 75.232769 52.269634 68.858846 56.297856 C 26.654981 33.767559 9.7438478 14.00916 4.1801066 6.1298584 L 3.1584635 6.1298584 z M 67.839787 6.1298584 C 73.225163 7.1254425 78.872258 8.123526 85.03512 9.0878174 C 86.201681 9.270347 87.158488 9.437077 88.2804 9.6164673 C 89.296442 7.677147 90.515405 6.6543742 90.515405 6.6543742 C 90.515405 6.6543742 93.619143 6.3552421 95.871667 6.1298584 L 67.839787 6.1298584 z M 158.28129 6.1298584 C 151.55402 11.234323 143.38993 16.770489 133.60011 22.554179 C 133.97387 26.799968 132.99702 32.697024 132.16919 37.001876 C 149.05799 26.492754 161.10364 15.690749 169.48319 6.1298584 L 158.28129 6.1298584 z M 15.426449 15.780949 C 15.426449 15.780949 37.502796 20.621218 69.817961 23.792863 C 71.660665 23.973719 72.84455 24.13744 74.567025 24.316345 C 74.556488 23.702834 74.511306 22.929277 74.52465 22.514905 C 74.557825 21.48473 75.8216 20.264086 77.493461 18.991606 C 73.74413 18.362829 69.962706 17.833019 66.205778 17.583423 C 42.423835 16.003414 15.426449 15.780949 15.426449 15.780949 z M 131.36924 16.897677 C 131.66598 17.282971 131.87502 17.630716 132.11648 17.993734 C 134.26732 18.520653 135.4429 18.839677 135.4429 18.839677 C 135.4429 18.839677 133.75507 18.01329 131.36924 16.897677 z M 31.09836 31.941203 C 31.09836 31.941203 44.034511 35.484369 63.555294 38.48964 C 80.245956 41.05921 87.179437 42.726153 89.231763 43.239738 C 89.111411 43.041944 89.001315 42.841097 88.86641 42.651143 C 84.399806 40.689459 73.452702 36.276683 62.24788 34.890377 C 47.769047 33.098994 31.09836 31.941203 31.09836 31.941203 z M 127.08475 87.018461 L 122.07369 99.102478 C 155.27947 122.08828 157.57642 143.06041 126.58917 165.56871 L 127.73691 177.90129 L 127.9741 180.38279 L 133.87917 176.28071 L 133.94376 176.2895 C 133.90806 176.2696 133.87963 176.2511 133.84403 176.2311 C 173.47231 145.66444 165.06822 113.51109 127.08475 87.018461 z M 49.982996 89.688066 C 49.982996 89.688066 56.197561 91.711738 66.297762 94.547201 C 66.867582 93.888601 67.404728 93.246886 67.829968 92.680648 C 57.652367 90.917518 49.982996 89.688066 49.982996 89.688066 z M 45.01224 104.87525 C 45.01224 104.87525 49.54874 106.4013 56.60533 108.55358 C 56.700171 107.95095 56.851 107.38584 57.02546 106.83327 C 51.593754 105.94653 45.01224 104.87525 45.01224 104.87525 z M 120.30222 105.50519 L 119.88674 107.9314 C 129.22498 110.39118 133.8771 111.85932 133.8771 111.85932 C 133.8771 111.85932 128.51558 108.87912 120.30222 105.50519 z M 119.13588 120.24744 L 119.83403 124.87351 C 137.54101 129.38403 144.93792 131.93045 144.93792 131.93045 C 144.93792 131.93045 134.15011 125.68984 119.13588 120.24744 z M 47.929891 122.49278 C 47.929891 122.49278 50.747073 123.32708 54.726375 124.45442 C 54.752664 124.11239 54.774799 123.76998 54.813708 123.42399 C 52.751586 123.15255 47.929891 122.49278 47.929891 122.49278 z M 120.21127 135.65994 L 119.98492 139.52172 C 136.83083 143.30567 143.92041 145.50378 143.92041 145.50378 C 143.92041 145.50378 133.94676 140.2963 120.21127 135.65994 z M 121.81169 151.29102 C 122.16399 152.12113 122.50383 152.94346 122.89069 153.75496 C 131.58742 155.57701 135.75709 156.69328 135.75709 156.69328 C 135.75709 156.69328 130.01393 153.92718 121.81169 151.29102 z M 137.13943 178.15553 L 128.3963 184.80422 L 128.65881 187.55341 C 183.55562 214.86929 187.84848 230.70685 187.84848 230.70685 C 187.84848 230.70685 190.79477 208.99642 137.13943 178.15553 z M 74.644539 193.33652 C 22.36656 218.51984 7.6436116 239.18368 3.5749756 249.75581 L 6.8393758 250.25243 C 14.155688 241.95979 32.69829 226.70016 78.769352 205.88666 L 74.644539 193.33652 z M 132.37125 206.27371 L 134.48843 210.41351 C 135.45503 210.59565 136.19024 210.76702 137.18284 210.9494 C 164.60521 215.98789 175.56241 219.0812 175.56241 219.0812 C 175.56241 219.0812 157.00056 210.14625 136.51105 206.88866 C 135.15001 206.67227 133.7544 206.48504 132.37125 206.27371 z M 67.554016 212.29505 C 67.554016 212.29505 74.66222 214.59286 86.373539 217.82081 L 82.86626 214.49078 C 74.913185 213.32806 67.554016 212.29505 67.554016 212.29505 z M 117.22489 220.02895 L 116.21875 225.30304 C 117.8519 225.67419 119.52349 226.04623 121.22206 226.41977 L 118.74056 220.29146 C 118.23387 220.20148 117.73272 220.1182 117.22489 220.02895 z M 45.253052 225.58623 C 45.253052 225.58623 61.57808 230.99004 87.877323 237.20309 L 90.733997 232.59562 C 67.785168 228.66953 45.253052 225.58623 45.253052 225.58623 z M 141.33866 225.59967 L 143.02848 231.3218 C 164.63153 236.35472 174.23278 239.40658 174.23278 239.40658 C 174.23278 239.40658 159.93785 231.45219 141.33866 225.59967 z M 112.67064 237.01241 L 110.96015 242.21416 L 110.81081 242.38004 C 139.42283 248.73873 151.93078 252.69724 151.93078 252.69724 C 151.93078 252.69724 134.29477 242.84838 112.67064 237.01241 z " /></g></svg>
