<?xml version="1.0" encoding="UTF-8" standalone="no"?>
<!-- Created with Inkscape (http://www.inkscape.org/) -->

<svg
   width="192mm"
   height="297mm"
   viewBox="0 0 192 297"
   version="1.1"
   id="svg1"
   xml:space="preserve"
   inkscape:version="1.3.2 (091e20ef0f, 2023-11-25)"
   sodipodi:docname="meerkats.svg"
   inkscape:export-filename="meerkats.png"
   inkscape:export-xdpi="96"
   inkscape:export-ydpi="96"
   xmlns:inkscape="http://www.inkscape.org/namespaces/inkscape"
   xmlns:sodipodi="http://sodipodi.sourceforge.net/DTD/sodipodi-0.dtd"
   xmlns="http://www.w3.org/2000/svg"
   xmlns:svg="http://www.w3.org/2000/svg"><sodipodi:namedview
     id="namedview1"
     pagecolor="#ffffff"
     bordercolor="#000000"
     borderopacity="0.25"
     inkscape:showpageshadow="2"
     inkscape:pageopacity="0.0"
     inkscape:pagecheckerboard="0"
     inkscape:deskcolor="#d1d1d1"
     inkscape:document-units="mm"
     inkscape:zoom="0.85422499"
     inkscape:cx="653.22369"
     inkscape:cy="502.79494"
     inkscape:window-width="2560"
     inkscape:window-height="1455"
     inkscape:window-x="0"
     inkscape:window-y="32"
     inkscape:window-maximized="1"
     inkscape:current-layer="layer3" /><defs
     id="defs1" /><g
     inkscape:label="Layer 1"
     inkscape:groupmode="layer"
     id="layer1"
     style="display:inline" /><g
     inkscape:groupmode="layer"
     id="layer2"
     inkscape:label="Layer 2"
     style="display:none"><path
       id="path1"
       style="fill:#000000;fill-opacity:1;stroke-width:0.2;stroke-dasharray:0.600001, 0.600001"
       d="m 113.2644,28.590503 c -3.87659,-7.93e-4 -2.42705,-0.02574 -6.78253,0.345715 -4.19755,0.605944 -4.41119,0.483121 -9.977166,0.288872 -5.56599,-0.194249 -9.658889,1.140812 -13.485482,1.726509 -3.826594,0.585703 -5.961034,1.632129 -8.885763,2.545581 -2.92473,0.913453 -10.664522,6.515103 -13.500984,9.02839 -2.836459,2.513281 -5.228249,5.848747 -6.754627,8.828401 -1.526378,2.979655 -2.509924,6.208924 -2.509924,6.208924 0,0 9.492982,-3.493133 13.884424,-4.325318 4.391438,-0.832188 9.217525,-0.708484 9.217525,-0.708484 0,0 -10.685876,2.419859 -13.500468,3.410128 -2.814591,0.990272 -8.348489,2.427939 -10.028328,3.400309 -1.679839,0.972367 -3.570325,3.311426 -3.570325,3.311426 0,0 2.436326,-0.89917 4.426603,-0.89917 1.990277,0 6.9992,2.13837 10.488249,4.227649 3.489043,2.089276 7.288325,5.17576 9.482108,6.821806 2.193784,1.646044 6.664193,3.320211 6.664193,3.320211 0,0 -3.3632,0.612589 -9.800952,-3.447335 -6.437752,-4.059924 -12.734817,-9.412144 -16.385046,-9.225277 -3.650233,0.186868 -5.77631,1.926204 -6.756694,4.489132 -0.980381,2.562928 -2.980152,7.599546 -1.547192,10.40815 1.432953,2.808604 3.6495,8.878814 7.12928,12.873116 3.479783,3.994302 7.059116,9.753372 9.023739,10.705292 1.964623,0.95191 2.503197,0.96748 4.044714,0.86816 1.541521,-0.0993 2.534639,-1.79458 3.57911,-2.07946 1.044474,-0.28488 2.367297,-0.57929 2.367297,-0.57929 0,0 -2.117837,1.0647 -3.208589,2.4014 -1.090753,1.33669 -2.712548,2.06475 -5.847705,1.83193 -3.135158,-0.23281 -7.867271,-6.824491 -10.317717,-9.37927 -2.450442,-2.554775 -3.334163,-4.167704 -3.334163,-4.167704 0,0 0.548356,3.311786 0.01292,6.788216 -0.535445,3.476438 -0.304837,11.727768 0.112138,16.078608 0.416973,4.3508 3.757323,9.75955 3.766695,16.43207 0.0094,6.67253 1.44377,2.95765 0.173633,8.29562 -1.270137,5.33794 0.178833,5.75467 -0.510047,9.57822 -0.688874,3.82357 -0.59215,8.97635 -1.567346,13.35371 -0.975195,4.3774 -0.461349,7.54027 -1.883606,12.51293 -1.422257,4.97268 -2.307863,7.11241 -3.140377,8.65425 -0.832516,1.54187 -2.708362,4.99143 -2.708362,4.99143 l 127.166915,0.35088 c 0,0 -1.21564,-2.73177 -4.2106,-6.9143 -2.99493,-4.18256 -1.02438,-5.11607 -5.45961,-8.90592 -4.43526,-3.78985 -4.85071,-4.25959 -7.75043,-8.17883 -2.89975,-3.9192 -4.9988,-7.34246 -7.4843,-10.28516 -2.4855,-2.94271 -6.84336,-3.04792 -7.89719,-7.51685 -1.05384,-4.46895 -2.39391,-6.01951 -0.85731,-11.14971 1.53657,-5.13017 0.17431,-11.07563 3.22254,-12.75168 3.0482,-1.67603 0.48607,-3.67891 4.38061,-5.66993 3.8945,-1.99105 5.40052,-6.04681 8.02432,-7.44709 2.62376,-1.40031 3.0512,-0.69275 10.42416,-3.08767 7.37299,-2.39491 8.0684,-2.10048 9.55756,-3.82354 1.48915,-1.72306 5.46397,-3.87361 5.46323,-5.731951 -7.9e-4,-1.858337 0.0641,-3.630786 0.0641,-3.630786 0,0 -0.21668,2.202976 -4.55941,1.683102 -4.34275,-0.519877 -4.73405,-1.100465 -8.16798,0.502811 -3.43395,1.603275 -4.05332,3.570049 -10.05261,2.521294 -5.99932,-1.048758 -6.92979,-3.397896 -11.77965,-2.971395 -4.84983,0.426497 -11.25461,0.973584 -11.25461,0.973584 0,0 9.29985,-3.728599 13.00903,-2.957443 3.70917,0.77116 8.29631,3.474389 12.40079,3.355351 4.10452,-0.119039 8.07509,-4.149221 10.17096,-4.004407 2.09587,0.144814 5.31942,1.689108 7.10809,1.275892 1.78866,-0.413218 2.94312,-0.863276 4.39767,-1.254187 1.45453,-0.390911 0.88414,0.431235 -3.56413,-1.086756 -4.44828,-1.517991 -4.70968,-3.080561 -5.16661,-4.393013 -0.45693,-1.312452 -0.57722,-5.113383 -0.57722,-5.113383 0,0 0.77741,5.194572 2.312,6.047176 1.53459,0.852604 4.79016,2.609009 6.92413,2.7373 2.13393,0.128294 4.11839,1.331745 7.12979,0.11989 3.01144,-1.211855 4.71883,-2.959335 4.78627,-4.662248 0.0674,-1.702911 -0.23977,-5.623429 -0.23977,-5.623429 0,0 1.00965,-0.39623 1.11414,-1.977657 0.1045,-1.58143 -1.23901,-3.630046 -1.38493,-4.505152 -0.14592,-0.875107 -4.46593,-4.317618 -7.62744,-6.132442 -3.16152,-1.814824 -11.21592,-7.577446 -13.08034,-9.259383 -1.86442,-1.681937 -4.55525,-3.975402 -5.77639,-5.650301 -1.22115,-1.674899 -0.85266,-2.757971 -0.85266,-2.757971 0,0 -0.20663,-0.123269 -1.13172,-2.0283 -0.92506,-1.905033 0.97837,-2.246615 -1.5291,-6.096269 -2.50747,-3.849655 -3.85982,-6.064019 -5.61723,-6.605798 -1.75741,-0.541782 -3.30144,0.950917 -4.96714,0.4408 -1.66571,-0.510116 -0.22096,0.702268 -6.89984,-1.179257 -6.67884,-1.881528 -12.80667,-3.485284 -17.69814,-4.383195 -4.89145,-0.897914 -6.56255,-1.186799 -10.43916,-1.187524 z m 20.73362,14.64045 c 0.2445,-0.0339 0.52791,0.0012 0.90124,0.145728 1.49332,0.578174 6.4679,4.625529 8.08943,4.855 1.62153,0.229473 -0.22118,-4.316532 -0.22118,-4.316532 l 3.36259,7.179407 c 0.46761,1.389728 0.15089,0.927802 0.15089,1.920813 0,0.993011 1.98886,3.578864 4.42971,6.153629 2.44083,2.574768 1.96104,2.909896 0.71623,5.174361 -1.24156,2.258543 -3.90367,3.945202 -5.20433,4.310332 -1.30066,0.365126 0.63651,-2.310956 0.0146,-3.96596 -0.62194,-1.655007 -2.30321,1.414378 -3.00664,3.325689 -0.70343,1.911312 -3.95739,3.574645 -6.28127,4.858618 -2.32385,1.283972 -1.32734,-0.416392 -2.53162,-1.148767 -1.2043,-0.732377 -1.63114,2.155856 -4.58991,3.345532 -2.95876,1.189673 -7.26034,-0.597378 -8.82426,-3.15743 -1.56393,-2.560056 -5.37223,-4.281316 -7.41712,-4.514453 -4.53483,-1.137821 -2.97033,-0.920981 -7.95607,-2.312053 -2.15136,-0.818146 -4.66642,-0.07075 -4.66642,-0.07075 0,0 -0.0548,-1.889622 -1.027324,-4.414957 -1.28592,-3.339054 -5.711579,-6.439865 -9.094019,-7.064962 l 0.939009,-0.337018 c 2.305662,0.269215 3.056484,0.175552 5.716399,1.048603 4.590075,1.506577 5.187225,2.361817 8.236185,0.941027 1.83312,-0.85422 3.50403,-3.727763 8.19589,-5.855456 4.69184,-2.127693 4.97033,-3.278658 9.51983,-3.861263 4.54948,-0.582607 6.14193,-0.787521 8.02173,-1.144633 1.40986,-0.267837 1.79298,-0.992792 2.52646,-1.094507 z m -5.79138,7.808826 c -3.7828,-0.04981 -5.77282,1.021917 -7.15305,1.906343 -1.47224,0.943389 -3.90157,2.292367 -3.90157,2.292367 0,0 1.00521,2.69053 3.69797,4.929415 2.7226,2.263694 3.82385,2.90523 6.80217,2.787943 4.02348,-0.158446 4.82847,-0.371841 6.34225,-1.012858 1.51376,-0.64102 1.19595,-2.279015 2.50889,-1.888257 1.31291,0.390761 3.31866,0.399976 3.31866,0.399976 0,0 -3.70139,-1.53218 -5.74332,-4.615739 -1.07393,-1.621759 -0.79607,-4.555048 -5.09168,-4.773869 -0.26848,-0.01368 -0.52813,-0.022 -0.78032,-0.02532 z m 0.0755,2.662369 c 1.07702,-7.7e-5 1.95019,0.85481 1.95027,1.909445 -8e-5,1.054635 -0.87325,1.909521 -1.95027,1.909444 -1.07682,-2.04e-4 -1.94967,-0.855008 -1.94975,-1.909444 8e-5,-1.054436 0.87293,-1.909241 1.94975,-1.909445 z M 173.022,75.311165 c 1.69078,0.188365 3.81383,0.456067 3.9026,1.8526 0.0888,1.396537 2.0004,2.935222 2.0004,2.935222 0,0 -1.20035,-1.82229 -0.79272,-2.71353 0.40762,-0.891244 2.50113,-0.823298 3.63027,0.29714 1.12915,1.120442 2.76823,0.368633 1.71307,2.781225 -1.05517,2.412592 -1.921,4.310794 -4.19509,3.200322 -2.27409,-1.110472 -4.00038,-1.019674 -4.56251,-2.684591 -0.56213,-1.664914 0.67621,-2.348701 -0.17208,-3.239595 -0.84832,-0.890891 -1.52394,-2.428793 -1.52394,-2.428793 z"
       sodipodi:nodetypes="scssssscscsscssscsssssssscssscsscsssssccsscssssccssccsssscssssssscsssscssssscsssssscscsccsssssssssssscsscsssssssccsssscsssccscccscsssssscsc" /></g><g
     inkscape:groupmode="layer"
     id="layer3"
     inkscape:label="Layer 3"
     style="display:inline"><g
       id="g3"><path
         id="path2"
         style="fill:#000000;stroke-width:0.168152;stroke-dasharray:0.504456, 0.504456"
         d="m 245.46734,-3.169201 c 0,37.050872 22.09539,55.780679 42.98466,74.451438 z M 288.452,71.282237 V 196.54018 c 18.50052,-16.5357 36.03469,-33.45643 36.41596,-62.58676 l 0.0299,-0.53925 -0.0191,0.033 C 324.49745,104.31686 306.95252,87.81793 288.452,71.282237 Z m 0,125.257943 c -20.88927,18.67076 -42.98466,37.40056 -42.98466,74.45143 z" /></g><g
       id="g2"
       transform="matrix(1.1673971,0,0,1.1673971,-27.868724,-37.257585)"><path
         style="fill:#000000;fill-opacity:1;stroke-width:0.2;stroke-dasharray:0.600001, 0.600001"
         d="m 100.78795,41.846068 c -0.605,0.748697 -0.30355,2.609072 -1.37555,3.554876 -1.072004,0.9458 -4.800838,3.58589 -5.879642,3.957367 -1.078804,0.371481 -2.384679,1.513065 -2.992533,2.247993 -0.607854,0.734928 -0.409824,1.693823 -0.409824,1.693823 0,0 0.459259,-0.230847 0.309227,0.767027 -0.150032,0.997873 0.723955,2.385441 1.339948,2.27924 0.615992,-0.106202 2.685142,0.972256 2.566765,1.886241 -0.118375,0.913987 -0.512159,1.56252 2.137796,2.681271 2.649956,1.118751 5.578243,1.331579 6.259303,2.321505 0.68105,0.989925 3.08758,2.828708 3.46493,4.60158 0.37736,1.77287 1.33128,3.979188 0.39083,5.515885 -0.94045,1.536697 -1.6661,2.108764 -2.17329,3.693152 -0.50719,1.584389 -2.58671,2.599947 -3.72943,4.79647 -1.142716,2.196523 -0.50732,3.307172 -3.158089,5.748993 -2.650768,2.441821 -7.162017,8.449945 -8.607526,12.378608 -1.445509,3.928661 -3.069569,11.964741 -3.069569,11.964741 0,0 -7.596536,5.51563 -8.512108,7.72143 -0.91557,2.20579 -2.168695,6.78167 -2.002571,9.38015 0.166127,2.59848 -0.305398,5.97153 -1.170247,8.18054 -0.864848,2.209 -0.909851,4.12977 -0.909851,4.12977 0,0 -0.807046,0.6798 -0.877057,1.92116 -0.07001,1.24135 0.896345,4.88124 0.896345,4.88124 l 0.352451,-2.94276 1.029269,0.44481 c 0,0 -0.620054,-2.92231 0.435335,-3.3385 1.055386,-0.4162 2.538632,-0.38208 2.931768,-1.16267 0.393137,-0.78059 2.110195,-3.98079 2.110195,-3.98079 l 0.657514,-1.07509 c 0,0 0.121399,2.66224 -0.391422,3.71776 -0.512821,1.05552 -1.441498,3.0101 -1.851919,4.19242 -0.410422,1.18231 -0.398251,1.86616 -0.306047,2.70832 0.09221,0.84215 1.063099,2.5591 1.063099,2.5591 0,0 -0.0019,-1.19547 0.475549,-2.2203 0.477313,-1.02483 0.34001,-2.92285 0.34001,-2.92285 l 0.529511,0.56599 0.919493,-1.72476 c 0,0 0.733002,0.62769 1.825559,0.001 1.09256,-0.62672 2.202606,-2.81221 2.202606,-2.81221 0,0 -1.091716,4.61195 -1.740178,6.96712 -0.648459,2.35518 -1.258123,9.13682 0.306875,13.43266 1.564997,4.29585 5.749705,11.25039 5.849829,12.52061 0.100126,1.27021 0.09986,15.84527 0.739375,19.858 0.639516,4.01272 2.069042,7.05111 2.6733,10.4664 0.604258,3.41528 1.566232,8.05061 2.723374,9.2221 1.15714,1.1715 7.013867,7.10701 7.737107,9.0528 0.72325,1.94579 1.94595,7.07108 0.99647,9.045 -0.94948,1.97392 -2.01005,5.27601 -2.23492,6.08344 -0.22487,0.80743 -0.32626,1.29253 -0.32626,1.29253 0,0 -1.69586,0.51623 -3.103563,1.65677 -1.4077,1.14054 -1.757802,2.31128 -1.757802,2.31128 0,0 -0.762733,-0.0875 -1.543362,1.29486 -0.780627,1.38239 -1.216827,3.18209 -1.216827,3.18209 l 1.524857,-0.81261 0.701556,0.98826 2.700639,-1.60289 -0.07371,1.22749 2.586272,-1.18149 1.92841,0.28347 2.14359,-0.88328 0.68666,0.54634 7.73158,-2.96677 c 0,0 1.04175,-2.81724 1.54865,-4.28633 0.50689,-1.46908 0.94389,-4.59011 1.63439,-5.79561 0.69051,-1.20549 2.73034,-8.00452 2.84937,-9.21263 0.11903,-1.20811 0.84051,-4.70331 -0.0127,-5.77919 -0.85324,-1.07588 -0.54509,-3.80204 -0.66651,-5.86396 -0.12144,-2.06192 -0.008,-4.78024 0.92951,-5.24416 0.93761,-0.46391 1.56065,1.66296 3.08029,4.68631 1.51963,3.02336 5.60701,10.10894 6.59528,12.22297 0.98827,2.11403 2.57487,6.13711 2.57487,6.13711 v 0 c 0,0 0.63434,1.08233 -0.24938,2.67867 -0.88372,1.59635 -2.52833,4.02568 -0.82461,4.38279 1.70372,0.35711 5.29507,-0.39664 7.23908,-0.39664 1.944,0 3.23043,0.51803 2.89097,-1.80702 -0.33946,-2.32505 -0.52186,-9.27907 -1.93829,-11.22082 -1.41643,-1.94175 -9.10288,-17.60614 -9.39282,-21.97679 -0.28994,-4.37066 -0.48432,-12.70089 0.27689,-14.70744 0.76121,-2.00654 -2.30528,-14.51968 -3.14026,-17.42427 -0.83498,-2.90459 -4.69611,-8.88881 -4.64159,-11.30891 0.0545,-2.42009 0.82709,-5.05069 0.2439,-7.15828 -0.58319,-2.10759 -1.19966,-6.25865 -0.93127,-7.35995 0.26839,-1.10129 -0.49001,-2.15896 -0.27893,-5.20239 0.21108,-3.04343 0.88702,-7.02875 1.00606,-9.92182 0.11904,-2.89307 0.52369,-9.50956 1.63398,-11.66547 1.11028,-2.15591 3.90294,-8.99852 4.73225,-11.33691 0.82932,-2.33839 0.94836,-6.896085 0.94836,-9.14521 0,-2.249125 -0.28734,-5.137803 0.57819,-6.539872 0.86552,-1.402068 -0.0791,-3.278066 0.74198,-6.459123 0.82113,-3.181057 1.88006,-6.183318 1.44361,-8.913892 -0.43645,-2.730574 -2.37134,-2.080078 -1.33152,-4.809562 1.03983,-2.729484 2.57692,-6.091206 2.45788,-7.589041 -0.11904,-1.497835 0.54519,-4.536888 0.31205,-5.943803 -0.23313,-1.406914 -0.58003,-6.905836 -2.96825,-9.156443 -2.38821,-2.250607 -7.45722,-5.624287 -11.90028,-6.076543 -4.44306,-0.452256 -7.64036,-1.064317 -9.40201,-0.746778 -1.76166,0.317539 -3.98599,0.773762 -5.85044,1.242263 -1.86444,0.468502 -3.26513,0.402595 -4.0428,1.402032 z"
         id="path4" /><text
         xml:space="preserve"
         style="font-size:38.8152px;text-align:center;text-anchor:middle;fill:#000000;fill-opacity:1;stroke-width:2.44505;stroke-dasharray:7.33517, 7.33517"
         x="105.39537"
         y="279.72113"
         id="text5"><tspan
           sodipodi:role="line"
           id="tspan5"
           style="font-style:normal;font-variant:normal;font-weight:normal;font-stretch:normal;font-family:Carlito;-inkscape-font-specification:Carlito;stroke-width:2.44505"
           x="105.39537"
           y="279.72113">MEERKATS</tspan></text><rect
         style="fill:#000000;fill-opacity:1;stroke-width:0.2;stroke-dasharray:0.600001, 0.600001"
         id="rect5"
         width="163.64908"
         height="3.6308939"
         x="24.231266"
         y="283.05905"
         ry="0" /><rect
         style="fill:#000000;fill-opacity:1;stroke-width:0.2;stroke-dasharray:0.600001, 0.600001"
         id="rect6"
         width="163.64908"
         height="3.6308939"
         x="24.231266"
         y="32.130768"
         ry="0" /><path
         id="rect1"
         style="fill:#000000;fill-opacity:1;stroke-width:0.126706;stroke-dasharray:0.380118, 0.380118"
         d="m 24.231079,248.47889 v 3.6313 h 55.901497 l 7.545793,-3.6313 z m 65.568608,0 0.113688,0.078 v -0.078 z" /><path
         style="display:inline;fill:#000000;fill-opacity:1;stroke-width:0.2;stroke-dasharray:0.600001, 0.600001"
         d="m 82.017213,252.14246 c 0,0 7.139717,-3.7077 8.799517,-4.3931 1.659798,-0.6854 3.125351,-1.5513 3.125351,-1.5513 0,0 -1.696444,1.68928 -0.380428,1.80986 1.316016,0.12058 7.815257,-0.50809 10.682907,-1.03632 2.86764,-0.52823 9.97794,-3.8243 11.75791,-4.29917 1.77997,-0.47488 7.53122,-2.43651 6.96995,-2.7049 -0.56128,-0.26838 -6.8677,1.04313 -6.8677,1.04313 0,0 3.15254,-2.00293 5.06399,-2.18433 1.91146,-0.18141 9.1222,-2.38852 9.1222,-2.38852 0,0 6.19348,0.2057 7.79978,0.2057 1.6063,0 6.83131,-0.58165 8.99646,-0.46261 2.16515,0.11904 6.95203,-0.84905 6.95203,-0.84905 0,0 -12.39006,-0.55375 -10.97182,-0.91322 1.41824,-0.35946 6.54262,-2.13501 7.28832,-1.91013 0.7457,0.22489 1.77422,0.72182 1.77422,0.72182 0,0 5.69215,-1.33453 7.04535,-1.02976 1.3532,0.30478 2.554,0.97463 3.5955,1.16606 1.04149,0.19143 8.28596,-1.99052 11.72708,-2.581 3.44112,-0.59048 13.19141,-2.37791 13.19141,-2.37791 l 0.37874,23.61833 z"
         id="path5" /></g><path
       style="fill:#000000;stroke-width:0.2;stroke-dasharray:0.600001, 0.600001"
       d="m 347.68406,265.70632 c 0,0 2.61741,-22.28341 44.80922,-60.05687 53.02568,-47.4728 42.50215,-103.92561 2.08904,-141.770435 -38.81661,-36.349779 -47.04103,-70.440957 -47.04103,-70.440957 0,0 5.73912,44.914395 40.93455,79.287079 44.24013,43.205953 46.69862,77.343833 1.85343,119.315693 -44.84517,41.97187 -42.64521,73.66549 -42.64521,73.66549 z"
       id="path3"
       sodipodi:nodetypes="csscssc" /><path
       style="fill:#000000;stroke-width:0.2;stroke-dasharray:0.600001, 0.600001"
       d="m 442.98814,237.19806 c 0,0 -2.61741,-22.28341 -44.80922,-60.05687 -53.02568,-47.4728 -42.50215,-103.925613 -2.08904,-141.770438 38.81661,-36.34977863 47.04103,-70.440957 47.04103,-70.440957 0,0 -5.73912,44.9143954 -40.93455,79.287079 -44.24013,43.205953 -46.69862,77.343836 -1.85343,119.315696 44.84517,41.97187 42.64521,73.66549 42.64521,73.66549 z"
       id="path6"
       sodipodi:nodetypes="csscssc" /><path
       style="fill:#000000;stroke-width:0.2;stroke-dasharray:0.600001, 0.600001"
       d="m 371.2178,121.66349 c 0,0 10.40924,6.79863 26.59058,13.59639 16.18134,6.79776 22.64697,10.97074 22.64697,10.97074 0,0 -10.95286,-12.05406 -23.04327,-16.44905 -12.09042,-4.395 -26.19428,-8.11808 -26.19428,-8.11808 z"
       id="path7" /><path
       style="fill:#000000;stroke-width:0.212905;stroke-dasharray:0.638715, 0.638715"
       d="m 369.72125,102.8543 c 0,0 10.73083,7.7943 27.65922,15.94512 16.92839,8.15082 23.59704,12.93968 23.59704,12.93968 0,0 -10.97007,-13.35481 -23.66351,-18.72545 C 384.62056,107.643 369.72125,102.8543 369.72125,102.8543 Z"
       id="path8" /><path
       style="fill:#000000;stroke-width:0.171792;stroke-dasharray:0.515376, 0.515376"
       d="m 372.271,86.639017 c 0,0 8.93171,6.267941 23.20589,13.042664 14.27418,6.774709 19.8272,10.628679 19.8272,10.628679 0,0 -8.89171,-10.453549 -19.62784,-14.976818 C 384.94013,90.810269 372.271,86.639017 372.271,86.639017 Z"
       id="path9" /><path
       style="fill:#000000;stroke-width:0.126864;stroke-dasharray:0.38059, 0.38059"
       d="m 383.71381,143.53528 c 0,0 6.86693,4.06523 17.57768,8.10611 10.71076,4.04088 14.97657,6.53579 14.97657,6.53579 0,0 -7.17879,-7.23864 -15.18821,-9.8445 -8.00941,-2.60585 -17.36604,-4.7974 -17.36604,-4.7974 z"
       id="path10" /><path
       style="fill:#000000;stroke-width:0.16588;stroke-dasharray:0.497642, 0.497642"
       d="m 393.88441,205.34438 c 0,0 9.04859,5.38008 23.11478,10.75948 14.06619,5.37939 19.68666,8.68167 19.68666,8.68167 0,0 -9.52115,-9.53896 -20.03116,-13.01692 -10.51001,-3.47798 -22.77028,-6.42423 -22.77028,-6.42423 z"
       id="path11" /><path
       style="fill:#000000;stroke-width:0.16588;stroke-dasharray:0.497642, 0.497642"
       d="m 393.88441,205.34438 c 0,0 9.04859,5.38008 23.11478,10.75948 14.06619,5.37939 19.68666,8.68167 19.68666,8.68167 0,0 -9.52115,-9.53896 -20.03116,-13.01692 -10.51001,-3.47798 -22.77028,-6.42423 -22.77028,-6.42423 z"
       id="path12" /><path
       style="fill:#000000;stroke-width:0.228858;stroke-dasharray:0.686576, 0.686576"
       d="m 381.28396,217.54084 c 0,0 11.56822,8.01026 29.55122,16.01951 17.98299,8.00923 25.16851,12.92591 25.16851,12.92591 0,0 -12.17236,-14.20231 -25.60894,-19.38055 -13.43658,-5.17827 -29.11079,-9.56487 -29.11079,-9.56487 z"
       id="path13" /><path
       style="fill:#000000;stroke-width:0.228858;stroke-dasharray:0.686576, 0.686576"
       d="m 369.84456,231.7308 c 0,0 11.56822,8.01026 29.55122,16.01951 17.98299,8.00923 25.16851,12.92591 25.16851,12.92591 0,0 -12.17236,-14.20231 -25.60894,-19.38055 -13.43658,-5.17827 -29.11079,-9.56487 -29.11079,-9.56487 z"
       id="path14" /><path
       style="fill:#000000;stroke-width:0.13002;stroke-dasharray:0.390062, 0.390062"
       d="m 362.584,24.985815 c 0,0 6.63551,3.782999 16.64862,6.991591 10.01309,3.208584 14.1307,5.522977 14.1307,5.522977 0,0 -7.37443,-7.45316 -14.80125,-9.365721 C 371.13523,26.222084 362.584,24.985815 362.584,24.985815 Z"
       id="path15" /><path
       style="fill:#000000;stroke-width:0.219593;stroke-dasharray:0.658781, 0.658781"
       d="m 354.54525,7.7322002 c 0,0 11.32391,5.1679698 27.89986,8.5541908 16.57594,3.386213 23.59611,6.534706 23.59611,6.534706 0,0 -13.25033,-11.477499 -25.44917,-13.1643759 -12.19888,-1.6869019 -26.0468,-1.9245209 -26.0468,-1.9245209 z"
       id="path16" /><path
       style="fill:#000000;stroke-width:0.24881;stroke-dasharray:0.746435, 0.746435"
       d="m 359.78886,-12.649368 c 0,0 12.13745,7.2680555 30.46174,13.23581856 18.32426,5.96775294 25.85616,10.41165244 25.85616,10.41165244 0,0 -13.47781,-14.5749578 -27.07072,-18.0667754 -13.59295,-3.4918506 -29.24718,-5.5806956 -29.24718,-5.5806956 z"
       id="path17" /></g></svg>
