<?xml version="1.0" encoding="UTF-8" standalone="no"?>
<!-- Created with Inkscape (http://www.inkscape.org/) -->

<svg
   width="210mm"
   height="297mm"
   viewBox="0 0 210 297"
   version="1.1"
   id="svg1"
   sodipodi:docname="tmd.svg"
   inkscape:version="1.4.2 (ebf0e940d0, 2025-05-08)"
   inkscape:export-filename="tmd.png"
   inkscape:export-xdpi="96"
   inkscape:export-ydpi="96"
   xmlns:inkscape="http://www.inkscape.org/namespaces/inkscape"
   xmlns:sodipodi="http://sodipodi.sourceforge.net/DTD/sodipodi-0.dtd"
   xmlns="http://www.w3.org/2000/svg"
   xmlns:svg="http://www.w3.org/2000/svg">
  <sodipodi:namedview
     id="namedview1"
     pagecolor="#ffffff"
     bordercolor="#000000"
     borderopacity="0.25"
     inkscape:showpageshadow="2"
     inkscape:pageopacity="0.0"
     inkscape:pagecheckerboard="0"
     inkscape:deskcolor="#d1d1d1"
     inkscape:document-units="mm"
     inkscape:zoom="1.0103925"
     inkscape:cx="545.82748"
     inkscape:cy="991.69381"
     inkscape:window-width="2560"
     inkscape:window-height="1531"
     inkscape:window-x="0"
     inkscape:window-y="0"
     inkscape:window-maximized="1"
     inkscape:current-layer="layer1" />
  <defs
     id="defs1" />
  <g
     inkscape:label="Layer 1"
     inkscape:groupmode="layer"
     id="layer1">
    <rect
       style="fill:#ffffff;fill-opacity:1;stroke:none;stroke-width:0.999997;stroke-dasharray:none;stroke-opacity:1"
       id="rect46"
       width="53.364723"
       height="32.675632"
       x="69.456238"
       y="220.02687"
       inkscape:export-filename="tmd.png"
       inkscape:export-xdpi="96"
       inkscape:export-ydpi="96" />
    <rect
       style="fill:none;stroke:#000000;stroke-width:1;stroke-dasharray:none"
       id="rect1"
       width="82.756371"
       height="53.036324"
       x="60.917885"
       y="87.189751"
       ry="0.81021029" />
    <text
       xml:space="preserve"
       style="font-size:35.0648px;line-height:1;font-family:Lato;-inkscape-font-specification:Lato;text-align:start;writing-mode:lr-tb;direction:ltr;text-anchor:start;fill:none;stroke:#000000;stroke-width:1;stroke-dasharray:none"
       x="67.325157"
       y="205.95758"
       id="text1"><tspan
         sodipodi:role="line"
         id="tspan1"
         style="fill:#000000;fill-opacity:1;stroke:none;stroke-width:1"
         x="67.325157"
         y="205.95758">TMD</tspan></text>
    <rect
       style="fill:#000000;fill-opacity:1;stroke:none;stroke-width:1;stroke-dasharray:none"
       id="rect2"
       width="22.248985"
       height="22.248985"
       x="61.41048"
       y="150.16011"
       ry="0.81021029" />
    <rect
       style="fill:#000000;fill-opacity:1;stroke:none;stroke-width:1;stroke-dasharray:none"
       id="rect3"
       width="22.248985"
       height="22.248985"
       x="85.13726"
       y="150.16011"
       ry="0.81021029" />
    <rect
       style="fill:#000000;fill-opacity:1;stroke:none;stroke-width:1;stroke-dasharray:none"
       id="rect5"
       width="22.248985"
       height="22.248985"
       x="108.86404"
       y="150.16011"
       ry="0.81021029" />
    <g
       id="g28">
      <rect
         style="fill:#808080;fill-opacity:1;stroke:none;stroke-width:0.999995;stroke-dasharray:none"
         id="rect6"
         width="2.6507494"
         height="22.240801"
         x="85.150505"
         y="150.16653"
         ry="0" />
      <rect
         style="fill:#808080;fill-opacity:1;stroke:none;stroke-width:0.999999;stroke-dasharray:none"
         id="rect7"
         width="2.6507494"
         height="14.56449"
         x="88.400803"
         y="157.84285"
         ry="0" />
      <rect
         style="fill:#808080;fill-opacity:1;stroke:none;stroke-width:0.999996;stroke-dasharray:none"
         id="rect9"
         width="2.6507494"
         height="8.920145"
         x="91.67382"
         y="163.4872"
         ry="0" />
      <rect
         style="fill:#808080;fill-opacity:1;stroke:none;stroke-width:0.999994;stroke-dasharray:none"
         id="rect11"
         width="2.6507494"
         height="5.5335374"
         x="94.924126"
         y="166.87379"
         ry="0" />
      <rect
         style="fill:#808080;fill-opacity:1;stroke:none;stroke-width:0.999993;stroke-dasharray:none"
         id="rect12"
         width="2.6507494"
         height="8.8790951"
         x="98.197151"
         y="163.52824"
         ry="0" />
      <rect
         style="fill:#808080;fill-opacity:1;stroke:none;stroke-width:0.999994;stroke-dasharray:none"
         id="rect14"
         width="2.6507494"
         height="14.461866"
         x="101.44744"
         y="157.94547"
         ry="0" />
      <rect
         style="fill:#808080;fill-opacity:1;stroke:none;stroke-width:0.999995;stroke-dasharray:none"
         id="rect15"
         width="2.6507494"
         height="22.240801"
         x="104.72047"
         y="150.16653"
         ry="0" />
    </g>
    <path
       id="path17"
       style="fill:#cccccc;fill-opacity:1;stroke:none;stroke-width:1;stroke-dasharray:none;stroke-opacity:1"
       d="M 119.98337 150.16034 A 11.124493 11.124493 0 0 0 119.82421 150.16138 L 119.82421 160.90077 L 128.68258 154.35027 A 11.124493 11.124493 0 0 0 119.98337 150.16034 z M 129.07636 154.87582 L 119.82421 161.71726 L 119.82421 172.40808 A 11.124493 11.124493 0 0 0 119.98337 172.40911 A 11.124493 11.124493 0 0 0 131.10828 161.28473 A 11.124493 11.124493 0 0 0 129.07636 154.87582 z " />
    <g
       id="g27"
       transform="translate(-10.96561)">
      <path
         id="path21"
         style="fill:#00aa00;fill-opacity:1;stroke:none;stroke-width:1;stroke-dasharray:none;stroke-opacity:1"
         d="m 119.98337,150.16034 a 11.124493,11.124493 0 0 0 -0.15916,0.001 v 10.73939 l 8.85837,-6.5505 a 11.124493,11.124493 0 0 0 -8.69921,-4.18993 z" />
      <path
         id="path22"
         style="fill:#00ccff;fill-opacity:1;stroke:none;stroke-width:1;stroke-dasharray:none;stroke-opacity:1"
         d="m 129.07636,154.87582 -9.25215,6.84144 v 10.69082 a 11.124493,11.124493 0 0 0 0.15916,10e-4 11.124493,11.124493 0 0 0 11.12491,-11.12438 11.124493,11.124493 0 0 0 -2.03192,-6.40891 z" />
    </g>
    <rect
       style="fill:#00ccff;fill-opacity:1;stroke:none;stroke-width:1;stroke-dasharray:none;stroke-opacity:1"
       id="rect24"
       width="11.124492"
       height="10.508745"
       x="72.56575"
       y="136.80865" />
    <g
       id="g29">
      <rect
         style="fill:#808080;fill-opacity:1;stroke:none;stroke-width:0.999995;stroke-dasharray:none"
         id="rect23"
         width="2.6507494"
         height="22.240801"
         x="76.786613"
         y="150.16653"
         ry="0" />
      <rect
         style="fill:#808080;fill-opacity:1;stroke:none;stroke-width:0.999998;stroke-dasharray:none"
         id="rect25"
         width="2.6507494"
         height="11.075258"
         x="150.16093"
         y="-83.649612"
         ry="0"
         transform="rotate(90)" />
    </g>
    <rect
       style="fill:#00ccff;fill-opacity:1;stroke:none;stroke-width:1;stroke-dasharray:none;stroke-opacity:1"
       id="rect26"
       width="5.5417209"
       height="10.508745"
       x="78.117737"
       y="139.64108" />
    <g
       id="g43"
       transform="translate(0,72.566458)"
       style="fill:#f47d20;fill-opacity:1">
      <rect
         style="fill:#f47d20;fill-opacity:1;stroke:none;stroke-width:0.999995;stroke-dasharray:none"
         id="rect37"
         width="2.6507494"
         height="22.240801"
         x="85.150505"
         y="150.16653"
         ry="0" />
      <rect
         style="fill:#f47d20;fill-opacity:1;stroke:none;stroke-width:0.999999;stroke-dasharray:none"
         id="rect38"
         width="2.6507494"
         height="14.56449"
         x="88.400803"
         y="157.84285"
         ry="0" />
      <rect
         style="fill:#f47d20;fill-opacity:1;stroke:none;stroke-width:0.999996;stroke-dasharray:none"
         id="rect39"
         width="2.6507494"
         height="8.920145"
         x="91.67382"
         y="163.4872"
         ry="0" />
      <rect
         style="fill:#f47d20;fill-opacity:1;stroke:none;stroke-width:0.999994;stroke-dasharray:none"
         id="rect40"
         width="2.6507494"
         height="5.5335374"
         x="94.924126"
         y="166.87379"
         ry="0" />
      <rect
         style="fill:#f47d20;fill-opacity:1;stroke:none;stroke-width:0.999993;stroke-dasharray:none"
         id="rect41"
         width="2.6507494"
         height="8.8790951"
         x="98.197151"
         y="163.52824"
         ry="0" />
      <rect
         style="fill:#f47d20;fill-opacity:1;stroke:none;stroke-width:0.999994;stroke-dasharray:none"
         id="rect42"
         width="2.6507494"
         height="14.461866"
         x="101.44744"
         y="157.94547"
         ry="0" />
      <rect
         style="fill:#f47d20;fill-opacity:1;stroke:none;stroke-width:0.999995;stroke-dasharray:none"
         id="rect43"
         width="2.6507494"
         height="22.240801"
         x="104.72047"
         y="150.16653"
         ry="0" />
    </g>
    <path
       id="path43"
       style="fill:#bebf32;fill-opacity:1;stroke:none;stroke-width:1;stroke-dasharray:none;stroke-opacity:1"
       d="m 109.01776,222.7268 a 11.124493,11.124493 0 0 0 -0.15916,0.001 v 10.73939 l 8.85837,-6.5505 a 11.124493,11.124493 0 0 0 -8.69921,-4.18993 z" />
    <path
       id="path44"
       style="fill:#005472;fill-opacity:1;stroke:none;stroke-width:1;stroke-dasharray:none;stroke-opacity:1"
       d="m 118.11075,227.44228 -9.25215,6.84144 v 10.69082 a 11.124493,11.124493 0 0 0 0.15916,0.001 11.124493,11.124493 0 0 0 11.12491,-11.12438 11.124493,11.124493 0 0 0 -2.03192,-6.40891 z" />
    <g
       id="g45"
       transform="translate(0,72.566458)"
       style="fill:#4d4848;fill-opacity:1">
      <rect
         style="fill:#4d4848;fill-opacity:1;stroke:none;stroke-width:0.999995;stroke-dasharray:none"
         id="rect44"
         width="2.6507494"
         height="22.240801"
         x="76.786613"
         y="150.16653"
         ry="0" />
      <rect
         style="fill:#4d4848;fill-opacity:1;stroke:none;stroke-width:0.999998;stroke-dasharray:none"
         id="rect45"
         width="2.6507494"
         height="11.075258"
         x="150.16093"
         y="-83.649612"
         ry="0"
         transform="rotate(90)" />
    </g>
    <text
       xml:space="preserve"
       style="font-size:4.17591px;line-height:1;font-family:Lato;-inkscape-font-specification:Lato;text-align:start;writing-mode:lr-tb;direction:ltr;text-anchor:start;fill:#1a1a1a;fill-opacity:1;stroke:none;stroke-width:1;stroke-dasharray:none;stroke-opacity:1"
       x="72.492378"
       y="249.78676"
       id="text45"><tspan
         sodipodi:role="line"
         id="tspan45"
         style="stroke-width:1"
         x="72.492378"
         y="249.78676">Training Metrics Database</tspan></text>
    <rect
       style="fill:#ffffff;fill-opacity:1;stroke:none;stroke-width:0.999997;stroke-dasharray:none;stroke-opacity:1"
       id="rect4"
       width="53.364723"
       height="32.675632"
       x="128.70149"
       y="220.02687"
       inkscape:export-filename="tmd2.png"
       inkscape:export-xdpi="200"
       inkscape:export-ydpi="200" />
    <rect
       style="fill:#f47d20;fill-opacity:1;stroke:none;stroke-width:0.999995;stroke-dasharray:none"
       id="rect8"
       width="2.6507494"
       height="22.240801"
       x="144.39577"
       y="222.73299"
       ry="0" />
    <rect
       style="fill:#f47d20;fill-opacity:1;stroke:none;stroke-width:0.999999;stroke-dasharray:none"
       id="rect10"
       width="2.6507494"
       height="16.884262"
       x="147.64606"
       y="228.08952"
       ry="0" />
    <rect
       style="fill:#f47d20;fill-opacity:1;stroke:none;stroke-width:0.999996;stroke-dasharray:none"
       id="rect13"
       width="2.6507494"
       height="10.608574"
       x="150.91908"
       y="234.36523"
       ry="0" />
    <rect
       style="fill:#f47d20;fill-opacity:1;stroke:none;stroke-width:0.999994;stroke-dasharray:none"
       id="rect16"
       width="2.6507494"
       height="5.5335374"
       x="154.16939"
       y="239.44025"
       ry="0" />
    <rect
       style="fill:#f47d20;fill-opacity:1;stroke:none;stroke-width:0.999993;stroke-dasharray:none"
       id="rect17"
       width="2.6507494"
       height="10.559754"
       x="157.44241"
       y="234.41403"
       ry="0" />
    <rect
       style="fill:#f47d20;fill-opacity:1;stroke:none;stroke-width:0.999994;stroke-dasharray:none"
       id="rect18"
       width="2.6507494"
       height="16.765291"
       x="160.6927"
       y="228.20848"
       ry="0" />
    <rect
       style="fill:#f47d20;fill-opacity:1;stroke:none;stroke-width:0.999995;stroke-dasharray:none"
       id="rect19"
       width="2.6507494"
       height="22.240801"
       x="163.96573"
       y="222.73299"
       ry="0" />
    <g
       id="g21"
       transform="translate(60.163637,72.566458)"
       style="fill:#4d4848;fill-opacity:1">
      <rect
         style="fill:#4d4848;fill-opacity:1;stroke:none;stroke-width:0.999995;stroke-dasharray:none"
         id="rect20"
         width="2.6507494"
         height="22.240801"
         x="76.786613"
         y="150.16653"
         ry="0" />
      <rect
         style="fill:#4d4848;fill-opacity:1;stroke:none;stroke-width:0.999998;stroke-dasharray:none"
         id="rect21"
         width="2.6507494"
         height="11.075258"
         x="150.16093"
         y="-83.649612"
         ry="0"
         transform="rotate(90)" />
    </g>
    <path
       id="path19"
       style="fill:#bebf32;fill-opacity:1;stroke:none;stroke-width:1;stroke-dasharray:none;stroke-opacity:1"
       d="m 167.38457,222.7268 a 11.124493,11.124493 0 0 0 -0.15916,0.001 v 10.73939 l 8.85837,-6.5505 a 11.124493,11.124493 0 0 0 -8.69921,-4.18993 z" />
    <path
       id="path20"
       style="fill:#005472;fill-opacity:1;stroke:none;stroke-width:1;stroke-dasharray:none;stroke-opacity:1"
       d="m 176.47756,227.44228 -9.25215,6.84144 v 10.69082 a 11.124493,11.124493 0 0 0 0.15916,0.001 11.124493,11.124493 0 0 0 11.12491,-11.12438 11.124493,11.124493 0 0 0 -2.03192,-6.40891 z" />
    <text
       xml:space="preserve"
       style="font-size:3.98869px;line-height:1;font-family:Lato;-inkscape-font-specification:Lato;text-align:start;writing-mode:lr-tb;direction:ltr;text-anchor:start;fill:#4d4848;fill-opacity:1;stroke:none;stroke-width:0.99999;stroke-dasharray:none;stroke-opacity:1"
       x="132.65106"
       y="248.77237"
       id="text21"><tspan
         sodipodi:role="line"
         id="tspan21"
         style="font-style:normal;font-variant:normal;font-weight:normal;font-stretch:normal;font-family:Cantarell;-inkscape-font-specification:Cantarell;stroke-width:0.99999;fill:#4d4848;fill-opacity:1"
         x="132.65106"
         y="248.77237">Training Metrics Database</tspan></text>
    <rect
       style="fill:#000000;fill-opacity:1;stroke:none;stroke-width:0.999997;stroke-dasharray:none;stroke-opacity:1"
       id="rect22"
       width="53.364723"
       height="32.675632"
       x="128.70149"
       y="258.34573"
       inkscape:export-filename="tmd2.png"
       inkscape:export-xdpi="200"
       inkscape:export-ydpi="200" />
    <rect
       style="fill:#f47d20;fill-opacity:1;stroke:none;stroke-width:0.999995;stroke-dasharray:none"
       id="rect27"
       width="2.6507494"
       height="22.240801"
       x="144.39577"
       y="261.05185"
       ry="0" />
    <rect
       style="fill:#f47d20;fill-opacity:1;stroke:none;stroke-width:0.999999;stroke-dasharray:none"
       id="rect28"
       width="2.6507494"
       height="16.884262"
       x="147.64606"
       y="266.40839"
       ry="0" />
    <rect
       style="fill:#f47d20;fill-opacity:1;stroke:none;stroke-width:0.999996;stroke-dasharray:none"
       id="rect29"
       width="2.6507494"
       height="10.608574"
       x="150.91908"
       y="272.68408"
       ry="0" />
    <rect
       style="fill:#f47d20;fill-opacity:1;stroke:none;stroke-width:0.999994;stroke-dasharray:none"
       id="rect30"
       width="2.6507494"
       height="5.5335374"
       x="154.16939"
       y="277.75909"
       ry="0" />
    <rect
       style="fill:#f47d20;fill-opacity:1;stroke:none;stroke-width:0.999993;stroke-dasharray:none"
       id="rect31"
       width="2.6507494"
       height="10.559754"
       x="157.44241"
       y="272.73288"
       ry="0" />
    <rect
       style="fill:#f47d20;fill-opacity:1;stroke:none;stroke-width:0.999994;stroke-dasharray:none"
       id="rect32"
       width="2.6507494"
       height="16.765291"
       x="160.6927"
       y="266.52734"
       ry="0" />
    <rect
       style="fill:#f47d20;fill-opacity:1;stroke:none;stroke-width:0.999995;stroke-dasharray:none"
       id="rect33"
       width="2.6507494"
       height="22.240801"
       x="163.96573"
       y="261.05185"
       ry="0" />
    <g
       id="g35"
       transform="translate(60.163637,110.88531)"
       style="fill:#ffffff;fill-opacity:1">
      <rect
         style="fill:#ffffff;fill-opacity:1;stroke:none;stroke-width:0.999995;stroke-dasharray:none"
         id="rect34"
         width="2.6507494"
         height="22.240801"
         x="76.786613"
         y="150.16653"
         ry="0" />
      <rect
         style="fill:#ffffff;fill-opacity:1;stroke:none;stroke-width:0.999998;stroke-dasharray:none"
         id="rect35"
         width="2.6507494"
         height="11.075258"
         x="150.16093"
         y="-83.649612"
         ry="0"
         transform="rotate(90)" />
    </g>
    <path
       id="path35"
       style="fill:#bebf32;fill-opacity:1;stroke:none;stroke-width:1;stroke-dasharray:none;stroke-opacity:1"
       d="m 167.38457,261.04565 a 11.124493,11.124493 0 0 0 -0.15916,10e-4 v 10.73939 l 8.85837,-6.5505 a 11.124493,11.124493 0 0 0 -8.69921,-4.18993 z" />
    <path
       id="path36"
       style="fill:#ffffff;fill-opacity:1;stroke:none;stroke-width:1;stroke-dasharray:none;stroke-opacity:1"
       d="m 176.47756,265.76113 -9.25215,6.84144 v 10.69082 a 11.124493,11.124493 0 0 0 0.15916,0.001 11.124493,11.124493 0 0 0 11.12491,-11.12438 11.124493,11.124493 0 0 0 -2.03192,-6.40891 z" />
    <text
       xml:space="preserve"
       style="font-size:3.98869px;line-height:1;font-family:Lato;-inkscape-font-specification:Lato;text-align:start;writing-mode:lr-tb;direction:ltr;text-anchor:start;fill:#ffffff;fill-opacity:1;stroke:none;stroke-width:0.99999;stroke-dasharray:none;stroke-opacity:1"
       x="132.65106"
       y="287.09122"
       id="text36"><tspan
         sodipodi:role="line"
         id="tspan36"
         style="font-style:normal;font-variant:normal;font-weight:normal;font-stretch:normal;font-family:Cantarell;-inkscape-font-specification:Cantarell;fill:#ffffff;fill-opacity:1;stroke-width:0.99999"
         x="132.65106"
         y="287.09122">Training Metrics Database</tspan></text>
  </g>
</svg>
