<?xml version="1.0" encoding="UTF-8" standalone="no"?>
<!-- Created with Inkscape (http://www.inkscape.org/) -->

<svg
   width="20.293999mm"
   height="20.294176mm"
   viewBox="0 0 20.293999 20.294176"
   version="1.1"
   id="svg1"
   xml:space="preserve"
   xmlns="http://www.w3.org/2000/svg"
   xmlns:svg="http://www.w3.org/2000/svg"><defs
     id="defs1" /><g
     id="layer1"
     transform="translate(-135.80365,-21.242397)"><g
       id="g69"><rect
         style="fill:#ffffff;fill-opacity:0;stroke:none;stroke-width:0.4;stroke-linecap:round;stroke-dasharray:none;stroke-opacity:1"
         id="rect31"
         width="20.293999"
         height="20.294176"
         x="135.80365"
         y="21.242397"
         ry="0" /><g
         id="g62"
         transform="translate(17.960512,1.4967094)"><path
           id="path25"
           style="fill:#25254b;fill-opacity:1;stroke:none;stroke-width:0.799999"
           d="m 128.07751,30.470244 a 3.1746254,3.1746254 0 0 0 -3.17463,3.174625 h 0.003 c -0.002,0.01376 -0.003,0.02772 -0.003,0.04188 V 34.5965 c 0,0.219315 0.17656,0.395876 0.39587,0.395876 h 5.56084 c 0.21931,0 0.39587,-0.176561 0.39587,-0.395876 v -0.909755 c 0,-0.01712 -9.2e-4,-0.0339 -0.004,-0.05044 a 3.1746254,3.1746254 0 0 0 -3.17462,-3.166061 z" /><circle
           style="fill:#25254b;fill-opacity:1;stroke:none;stroke-width:0.799999"
           id="path26"
           cx="128.0927"
           cy="28.40712"
           r="1.7281535" /><path
           style="fill:none;stroke:#25254b;stroke-width:0.4;stroke-linecap:round;stroke-dasharray:none;stroke-opacity:1"
           d="m 126.04388,30.166671 c -0.53658,-0.558591 -1.27763,-0.87439 -2.05219,-0.874545 l -4.7e-4,4e-6 c -1.57194,3.21e-4 -2.84604,1.274838 -2.84584,2.846791 0.005,0.005 0,0.02723 0,0.03758 v 0.815544 c 0,0.196641 0.15832,0.354956 0.35495,0.354956 h 2.6422"
           id="path27" /><circle
           style="fill:#25254b;fill-opacity:1;stroke:none;stroke-width:0.799999"
           id="circle27"
           cx="124.04851"
           cy="27.25948"
           r="1.5494909" /><path
           style="fill:#25254b;fill-opacity:1;stroke:#25254b;stroke-width:0.4;stroke-linecap:round;stroke-dasharray:none;stroke-opacity:1"
           d="m 131.02374,27.90466 h 2.46662"
           id="path28" /><path
           style="fill:#25254b;fill-opacity:1;stroke:#25254b;stroke-width:0.4;stroke-linecap:round;stroke-dasharray:none;stroke-opacity:1"
           d="m 130.67354,29.381584 h 2.80159"
           id="path29" /><path
           style="fill:#25254b;fill-opacity:1;stroke:#25254b;stroke-width:0.4;stroke-linecap:round;stroke-dasharray:none;stroke-opacity:1"
           d="m 131.35109,30.835669 h 2.12404"
           id="path30" /><path
           style="fill:none;fill-opacity:1;stroke:#25254b;stroke-width:0.4;stroke-linecap:round;stroke-dasharray:none;stroke-opacity:1"
           d="m 129.72952,26.275475 v -0.852657 h 3.80652 l 1.46169,1.461698 v 6.425381 h -2.64933"
           id="path31" /></g></g></g></svg>
